<?xml version="1.0" standalone="no"?>
<!DOCTYPE svg PUBLIC "-//W3C//DTD SVG 1.1//EN" "http://www.w3.org/Graphics/SVG/1.1/DTD/svg11.dtd" >
<svg xmlns="http://www.w3.org/2000/svg">
<metadata></metadata>
<defs>
<font id="liebeerikaregular" horiz-adv-x="270" >
<font-face units-per-em="1000" ascent="740" descent="-260" />
<missing-glyph horiz-adv-x="115" />
<glyph unicode="&#xfb01;" horiz-adv-x="266" d="M155 742q80 0 76 -143q-2 -44 -22 -47q-21 -4 -25 16q-4 19 12 25q7 3 17 0q2 32 -1.5 59t-17.5 49.5t-39 22.5q-37 0 -57 -50q-12 -32 -12 -91v-118q20 0 55 0.5t49.5 0.5t23.5 -1q3 -2 3 -17.5t-1.5 -39t-1.5 -30.5v-158.5t-2 -198.5q-2 -24 -10 -24q-5 0 -6.5 6 t-1 16.5t0.5 13.5q2 196 2 295q0 12 1.5 56.5t-0.5 62.5q-43 1 -112 1q-1 -67 -1 -277q0 -103 -1 -156q0 -11 -3 -15.5t-6 -4t-5 3.5q-3 3 -3 174q0 9 0.5 135t-0.5 140q-11 0 -26 -1q-15 -2 -20.5 -0.5t-6.5 8.5q-1 5 4 7.5t14.5 3.5t17 0.5t17.5 -0.5q1 25 1.5 69.5 t1 65.5t4.5 47t11 42q25 52 70 52z" />
<glyph unicode="&#xfb02;" horiz-adv-x="272" d="M144 743q60 0 69 -87q3 -23 3 -116q1 -39 0 -108.5t-1 -91.5q0 -81 -0.5 -168.5t-0.5 -101.5q0 -54 14 -57q13 -2 20 9q0 1 1.5 3.5t2.5 3.5t2.5 3t3.5 2.5t4 -0.5q12 -2 1 -20q-12 -18 -32 -18q-21 0 -28 16q-6 12 -6 74q0 95 1.5 289t-0.5 241q-1 58 -13.5 84t-41.5 26 q-21 0 -33.5 -13.5t-17.5 -51.5t-5.5 -64t-0.5 -92v-40q2 0 12 0.5t18.5 0.5t18 -0.5t15 -3t5.5 -6.5q0 -7 -11.5 -8.5t-32 -0.5t-25.5 1q0 -42 -0.5 -125t-0.5 -126q0 -81 1 -145q0 -6 0.5 -19t0.5 -20q-2 -14 -10 -14q-7 0 -9 11t-1 31.5t1 25.5q-1 193 0 382 q-8 3 -19.5 1t-22.5 -1.5t-11 6.5q-1 8 8 10.5t27 1.5t20 -1q0 18 -0.5 48t-0.5 47t0.5 42t2.5 39.5t5 33t8.5 29t13.5 20.5t19.5 14t25.5 4z" />
<glyph horiz-adv-x="0" />
<glyph horiz-adv-x="333" />
<glyph unicode="&#xd;" horiz-adv-x="0" />
<glyph unicode=" "  horiz-adv-x="115" />
<glyph unicode="&#x09;" horiz-adv-x="115" />
<glyph unicode="&#xa0;" horiz-adv-x="115" />
<glyph unicode="!" horiz-adv-x="156" d="M76 716q4 0 6.5 0.5t3.5 -2t2 -4.5t1 -6.5v-7.5v-8v-7q0 -53 -2 -147.5t0 -141.5q0 -39 -0.5 -128t0.5 -131q3 -26 -6 -27q-7 -1 -8.5 5.5t-1.5 18.5v1.5v1.5q-3 22 -2 128.5t1 131.5q0 45 1 145t0 146q0 3 -0.5 8t-0.5 8t0.5 7t2 6t3.5 3zM61 24q3 15 18 15q9 0 15.5 -6 t6.5 -17q0 -9 -7.5 -15t-17.5 -4q-20 4 -15 27z" />
<glyph unicode="&#x22;" horiz-adv-x="159" d="M38 740q9 7 16 -2q5 -7 2 -29q-2 -15 -3 -43.5t-1 -57v-35.5v-12.5t-0.5 -11l-1 -7t-2 -5t-3.5 -1.5q-3 0 -4.5 5t-2.5 14t-1.5 17.5t-0.5 19v15.5v44t-1 42q-2 42 3 47zM128 739q2 -3 2.5 -10t-0.5 -15.5t-1 -10.5q-3 -57 -3 -123q0 -40 -6 -41q-4 -1 -6 4.5t-3 17 t-1 19.5v23q0 48 -2 94q-2 34 1 39q11 14 19 3z" />
<glyph unicode="#" horiz-adv-x="365" d="M286 677q6 0 7.5 -3.5t0.5 -13t-1 -10.5q0 -65 -16 -153q3 0 24 -0.5t32 0.5h2q7 0 10 -0.5t6 -3t2 -7.5q-2 -7 -36 -7h-42q-2 -18 -14 -125.5t-14 -132.5h57q8 0 13.5 -2.5t4.5 -8.5q0 -6 -12.5 -7.5t-35 -0.5t-28.5 1q-1 -9 -8 -75.5t-11 -92.5q0 -3 -0.5 -9t-1.5 -10 t-2 -9t-3.5 -7t-5.5 -2q-8 1 -2 52q11 95 16 153h-107q-21 -175 -24 -196q0 -7 -8 -7q-9 0 -8 12q3 31 11 98.5t11 92.5q-1 0 -15.5 0.5t-26.5 0.5q-33 0 -32 9q1 8 21 8h56l28 258q-13 1 -29.5 1h-32.5q-17 2 -17 9q0 8 32 8h49q3 23 10 84.5t8 73.5q2 22 10 22q7 0 6 -19 q-2 -28 -8 -81.5t-8 -79.5q4 -1 52.5 -0.5t52.5 0.5l16 146q0 2 1 13t3 16t7 5zM257 479h-105q-3 -19 -9 -71.5t-12.5 -113.5t-7.5 -73q2 -1 53 -0.5t54 0.5q2 26 14 134t13 124z" />
<glyph unicode="$" horiz-adv-x="258" d="M130 752q4 0 6.5 -2t3.5 -6t1 -7.5t-0.5 -10t-0.5 -9.5v-42q22 -1 40 -16q44 -34 26 -109q-5 -26 -16 -24l-6 4q-1 4 0 8t3.5 10.5t2.5 8.5q11 56 -18 85q-15 16 -41 15.5t-42 -18.5t-18 -46.5t11.5 -69t25 -68t34.5 -74.5t28 -57q57 -123 56 -208q-2 -62 -31 -91 q-22 -22 -52 -26q1 -16 1 -40q0 -3 0.5 -9t0 -9.5t-1 -8t-2.5 -6.5t-6 -3q-4 0 -6 3t-2.5 8t-0.5 11v12v12q-1 11 -1 30q-48 1 -75 48q-18 30 -19.5 78t14.5 78q5 13 12 13q12 0 0 -29q-20 -54 -1 -111q14 -40 47 -54t67 5q40 23 38 97q-1 37 -9 71t-15.5 53t-24.5 56 q-8 18 -32.5 68t-37.5 80t-26 71.5t-10.5 72t20.5 51.5q19 24 51 28q-1 12 -1 40v9.5v10t0.5 8t2 6.5t4.5 3z" />
<glyph unicode="%" horiz-adv-x="336" d="M291 688q13 5 9 -14q-1 -6 -28 -69q-2 -6 -4 -10q-13 -36 -27 -77t-27 -76t-32 -86q-53 -142 -62 -172t-29 -81.5t-27 -76.5q-10 -38 -23 -37q-5 1 -6.5 4.5t-0.5 8.5t2.5 10t4 10t2.5 6q15 43 41.5 113t39.5 109q49 148 128 349q32 87 39 89zM105 680q55 -16 37 -198 q-4 -29 -8 -45t-14 -32.5t-24 -19.5q-40 -8 -56 42q-18 59 -6 162q6 47 23.5 73t47.5 18zM88 663q-18 -3 -29 -37q-13 -41 -12.5 -112.5t16.5 -94.5q18 -26 37 -11q19 16 25.5 83.5t-0.5 108.5q-2 17 -5 29t-11.5 24t-20.5 10zM246 287q37 4 51 -46q20 -78 0 -187 q-10 -54 -51 -58q-35 -3 -47.5 33t-12.5 95q0 157 60 163zM263 266q-15 8 -27 -0.5t-17 -22.5q-15 -33 -15 -97q-2 -115 26 -129q10 -5 22 -1.5t19 13.5q10 16 13.5 61t1.5 79q-2 86 -23 97z" />
<glyph unicode="&#x26;" horiz-adv-x="358" d="M342 12q9 -13 -1 -16q-11 -4 -20 12q-9 20 -24 48t-25 49q-49 -103 -114 -110q-46 -4 -76 21q-40 33 -44 95q-3 35 14 95t31 95t55 133q-56 142 -55 214q1 61 38 85q18 11 42 11q19 0 33 -8q27 -18 29 -65q1 -22 -2.5 -45t-12.5 -51.5t-15 -44t-20.5 -51.5t-18.5 -45 q8 -21 25 -64.5t24 -62.5q20 -51 66 -156q33 95 38 147v11.5v14t1 13.5t3.5 10t7.5 4q9 0 7 -35q-6 -88 -46 -189q35 -79 60 -115zM103 669q-9 -60 45 -211q41 101 52 143q8 29 9 56t-10.5 48t-37.5 21q-24 0 -39 -18t-19 -39zM176 18q47 21 86 109q-16 34 -76 181l-39 102 q-55 -126 -77 -202q-36 -124 24 -177q14 -13 37.5 -17t44.5 4z" />
<glyph unicode="'" horiz-adv-x="91" d="M38 739q9 7 16 -2q2 -3 2 -29q0 -44 -4 -136v-12.5t-0.5 -11l-1 -7t-2 -5t-3.5 -1.5q-3 0 -4.5 5t-2.5 14t-1.5 17.5t-0.5 19v15.5v44t-1 42q-2 42 3 47z" />
<glyph unicode="(" horiz-adv-x="171" d="M152 733q1 -7 0.5 -9.5t-4.5 -8t-5 -8.5q-6 -14 -27 -65q-37 -103 -51 -209q-15 -99 -1 -252q15 -142 63 -260q15 -38 22 -49q6 -11 -4 -14q-2 -1 -4 0t-4 3t-4 4.5t-4 6.5l-3.5 7t-3 7t-2.5 6.5t-2 5.5t-1 4q-50 123 -66 247q-21 164 0 303q20 135 80 271q6 16 14 16 q4 0 7 -6z" />
<glyph unicode=")" horiz-adv-x="171" d="M26 738q3 0 5 0.5t3.5 -2t2.5 -3.5t2.5 -5t2.5 -6q6 -10 25 -60t28 -82q26 -89 33 -210t-10 -239q-19 -125 -78 -258q-6 -15 -14 -15q-4 0 -7 5q-1 7 -0.5 9.5t4.5 8t5 8.5q40 89 62 182q24 98 24 249q0 130 -30 238q-35 119 -62 166q-6 11 4 14z" />
<glyph unicode="*" horiz-adv-x="273" d="M136 733q4 1 7 -2.5t4 -8.5q1 -10 0.5 -45t0.5 -62q10 7 74 62q20 18 24 2q1 -4 -1 -7t-7.5 -6.5t-6.5 -4.5q-15 -12 -42.5 -35t-32.5 -28q5 -6 32 -28t37 -29q26 -17 23 -24q-6 -11 -23 3q-7 6 -76 60q0 -6 -0.5 -47t0.5 -49q0 -1 0.5 -5.5t0 -7t-1 -5.5t-3.5 -4t-7 0 q-7 1 -7 32q0 15 1 41t0 45q-9 -6 -40 -29t-37 -27q-16 -11 -22 -11q-9 0 -7 11q1 4 16 14q66 44 81 59q-15 11 -39 28t-36 26q-23 15 -24 20q-3 9 3.5 11t13.5 -4l22 -16q64 -46 68 -48q1 17 0 39.5t-1 35.5q0 4 -0.5 11t-0.5 12t0.5 10t2 8t4.5 3z" />
<glyph unicode="+" horiz-adv-x="334" d="M305 270q5 0 8.5 -4t0.5 -10q-2 -4 -45 -4h-96q0 -20 -0.5 -58t-0.5 -68q0 -22 -5 -23q-5 -2 -8 0.5t-3.5 8.5t-1 11.5t0 14t0.5 10.5v104h-90q-41 0 -45 6t0 10t10 3q11 -1 125 -1q0 13 0.5 44t0.5 54v8t-0.5 9t0 9t1 8t2.5 5.5t5 2.5q4 1 6.5 -1t3.5 -6.5t1 -8.5 t-0.5 -10t-0.5 -8q0 -11 -0.5 -30t-0.5 -28v-48h132z" />
<glyph unicode="," horiz-adv-x="106" d="M55 41q18 -7 20 -37q5 -62 -43 -123q-9 -12 -18 -11q-4 0 -4 6q0 2 6 10t14 20t12 21q16 38 13 65q-28 0 -29 25q-1 12 8.5 20t20.5 4z" />
<glyph unicode="-" horiz-adv-x="158" d="M61 270h55h6h6h5t4.5 -0.5t3 -1.5t2 -2.5t0.5 -3.5q0 -8 -44 -8l-59 -1q-23 0 -24 9q-1 8 45 8z" />
<glyph unicode="." horiz-adv-x="105" d="M30 26q4 16 22 16q10 0 17 -6.5t7 -18.5q0 -9 -8.5 -16t-20.5 -5q-21 5 -17 30z" />
<glyph unicode="/" horiz-adv-x="253" d="M207 742q6 2 9 -1.5t2 -12t-2 -13t-3 -11.5q-24 -116 -30 -143q-2 -11 -18 -83t-31 -140t-19 -85q-16 -63 -57 -260q-9 -41 -15 -72q0 -2 -1 -7.5t-1.5 -9.5t-1.5 -8t-3 -6.5t-5 -3.5q-14 0 -9 19q6 29 40 191t50 228q8 33 26.5 119t25.5 117q6 25 15 67.5t12 58.5 q10 55 16 56z" />
<glyph unicode="0" horiz-adv-x="290" d="M148 687q25 0 42.5 -27t25.5 -64q19 -84 21 -191q2 -160 -5 -230q-4 -37 -8 -62.5t-13.5 -56t-25.5 -46.5t-38 -16q-41 0 -62 40t-31 118q-6 43 -6.5 139.5t6.5 158.5q13 116 33.5 176.5t60.5 60.5zM144 667q-48 -6 -69 -205q-14 -136 -5 -263q8 -91 24 -137.5t52 -46.5 q46 0 62 118q10 66 11 177t-7 197q-6 68 -23.5 116t-44.5 44z" />
<glyph unicode="1" horiz-adv-x="256" d="M157 684q3 -2 3 -52q0 -2 -0.5 -38.5t-0.5 -73.5q0 -39 -1 -104t-1 -100v-62q0 -10 -1 -69.5t-1.5 -101.5t0.5 -67h59q2 0 8.5 0.5t11 0.5t10 -0.5t8 -3t2.5 -6.5q0 -5 -7.5 -7t-20.5 -1.5t-15 0.5q-20 -1 -78 -0.5t-77 0.5t-20 5q-1 4 1.5 7t6.5 3.5t9.5 1t11 0.5h9.5 h62q2 316 6 609q-19 -44 -30 -62q-21 -39 -57 -78l-4 -4l-4.5 -4.5t-5 -4t-5 -2t-4.5 1t-3 5.5q-1 5 7 15q48 61 61 84q23 40 43 96q6 21 17 12z" />
<glyph unicode="2" horiz-adv-x="255" d="M209 513q-17 -66 -66 -214q-14 -44 -52 -148q-27 -75 -50 -135q11 0 35.5 -1t51.5 0q79 2 80 2q12 1 15 -8q1 -6 -8 -8q-2 -1 -4 -1q-30 -3 -117 -1q-22 1 -39.5 0.5t-23.5 -0.5q-5 0 -8 1.5t-3.5 4.5t-0.5 6t1.5 7.5t3.5 8.5t4.5 10.5t4.5 10.5q4 11 18 47t22 59 q96 271 120 377q14 69 1.5 102t-43.5 33q-23 0 -43 -22.5t-26 -56.5q-3 -16 -3 -33t-0.5 -23.5t-5.5 -7.5q-9 -3 -12 2.5t-3 13.5q-2 72 31 114q26 32 63 32q50 0 63.5 -50t-6.5 -122z" />
<glyph unicode="3" horiz-adv-x="239" d="M80 681h92q33 0 35 -6q2 -4 -0.5 -9.5t-7 -13t-5.5 -10.5q-17 -38 -53.5 -110.5t-52.5 -108.5q44 -21 66 -48.5t35 -64.5q12 -32 16.5 -83.5t-1 -104.5t-31 -91t-67.5 -38q-55 0 -80 66q-3 9 -5 18t-2.5 17.5t2 13.5t8.5 4q5 0 6 -6t2 -18t5 -22q22 -55 64 -55 q38 0 59.5 43.5t22.5 99t-5 107.5q-15 87 -77 130q-6 4 -15 8.5t-15.5 8t-7.5 6.5q-3 7 12 34q46 90 105 216h-112q-31 0 -33 7q-1 5 1.5 7.5t7.5 3t10 0.5t11.5 -0.5t9.5 -0.5z" />
<glyph unicode="4" horiz-adv-x="267" d="M227 305q3 0 8.5 0.5t9 0.5t7 -0.5t5.5 -2.5t2 -5q0 -4 -2 -6.5t-6 -3t-7.5 -0.5t-8.5 0.5t-7 0.5h-39q0 -54 -1 -96q-1 -32 -0.5 -64.5t0.5 -64t-1 -41.5v-6t-0.5 -7t-1.5 -6.5t-3 -5t-5 -1.5t-4.5 1t-2 3.5t-0.5 5v6v4.5q1 28 1 172q0 10 0.5 42t0.5 58h-34.5h-46.5 h-44q-25 0 -26 2q-1 8 -1 10.5t5 14t6 13.5q7 18 22.5 56t19.5 49q8 18 22 54.5t22 54.5q9 24 27.5 71t27.5 70q2 5 7 6.5t6 -0.5q3 -3 5 -9.5t2 -11.5t-0.5 -15t-0.5 -13q1 -48 -0.5 -179t-1.5 -156q6 0 18.5 -0.5t19.5 -0.5zM39 305l133 1q3 333 3 343l-66 -173 q-7 -19 -35.5 -87t-34.5 -84z" />
<glyph unicode="5" horiz-adv-x="252" d="M192 688q17 2 17 -9q0 -5 -10.5 -7.5t-30 -3.5t-21.5 -1q-11 -2 -45 -4q-6 -42 -12.5 -122t-7.5 -94q38 -13 69 -44.5t44 -72.5q38 -117 13 -232q-23 -104 -90 -104q-37 0 -63 30q-21 26 -27 68q-4 22 10 24q3 0 4.5 -2t2.5 -7t1.5 -11t2.5 -15t5 -18q19 -50 64 -50 q29 0 48.5 30t27.5 82q16 105 -17 198q-10 30 -32.5 59t-51.5 40l-28 11q-3 3 0 29q3 34 7 86q2 24 6 60t5 52v6t0.5 7t2.5 4q2 2 5 2.5t6.5 1t8 0.5h7.5q13 2 42.5 4t36.5 3z" />
<glyph unicode="6" horiz-adv-x="265" d="M209 684q3 -4 3.5 -6t-4.5 -7t-10.5 -9.5t-15 -14t-17.5 -21.5q-73 -106 -103 -321q17 54 38 72t50 18q24 0 41.5 -17.5t27 -46t13.5 -60.5t4 -66q-1 -95 -26.5 -152.5t-71.5 -58.5q-36 0 -59 36.5t-30.5 86t-6.5 107.5q2 126 33.5 246t83.5 178q40 45 50 36zM147 377 q-39 1 -62.5 -57.5t-24.5 -117.5q-2 -79 20.5 -134.5t57.5 -55.5q23 0 40 22.5t25 56t11.5 61t3.5 46.5q0 177 -71 179z" />
<glyph unicode="7" horiz-adv-x="229" d="M182 684q28 0 30 -6q1 -4 -0.5 -8.5t-4 -11t-3.5 -9.5q-30 -97 -46 -161q-30 -127 -50 -234q-16 -94 -30 -214q-6 -43 -14 -44q-4 0 -6 3.5t-2 9.5t0.5 11t1.5 12t1 8q2 10 4 38.5t3 34.5q16 116 41 240q31 154 83 313q-45 -1 -132 -1q-30 0 -34 4q-2 3 -1 7q1 7 25 7h21 h25h24q31 1 64 1z" />
<glyph unicode="8" horiz-adv-x="287" d="M258 235q17 -61 6 -126q-10 -53 -41 -84t-79 -31q-64 0 -95.5 48.5t-29.5 112.5q0 16 2.5 32.5t5 30t8 31t8.5 27.5t12 28.5t12 25.5t14 27t13.5 24.5t15 26t13.5 23.5l11 18q-40 73 -41 138q-1 40 12 69.5t38 29.5q29 0 44 -26.5t12 -68.5q-5 -67 -46 -145q1 -1 4 -6.5 t6 -10.5q48 -79 66 -114t29 -80zM111 581q3 -59 32 -116q30 54 37 114q4 34 -5.5 61t-31.5 28q-17 1 -25 -29.5t-7 -57.5zM142 13q58 0 83 45.5t24 110.5q0 42 -17.5 90.5t-30 70.5t-49.5 84l-9 15q-6 -10 -9 -16q-48 -79 -73 -142t-23 -131q2 -52 31 -89.5t73 -37.5z" />
<glyph unicode="9" horiz-adv-x="258" d="M138 686q22 -3 37 -20t22 -46.5t10 -52t5 -56.5q7 -109 -14 -255q-21 -150 -82 -216q-30 -32 -54 -39q-20 -6 -21 4q0 5 5.5 9.5t15.5 9t12 5.5q78 50 105 229q16 101 21 201q-6 -24 -10.5 -38t-16.5 -31.5t-28 -24.5q-34 -15 -67 15q-42 38 -42 134q0 76 27 127.5 t75 44.5zM141 665q-38 11 -61 -35t-26 -108q-2 -56 16 -99t54 -42q29 1 45 35.5t21 78.5q5 50 -6.5 106t-42.5 64z" />
<glyph unicode=":" horiz-adv-x="105" d="M53 393q23 0 23 -24t-23 -24q-10 0 -17 10t-6 20q3 18 23 18zM52 44q11 0 18.5 -9.5t5.5 -20.5q-3 -18 -24 -18q-10 0 -16.5 8t-6.5 15q0 11 6.5 18t16.5 7z" />
<glyph unicode=";" horiz-adv-x="128" d="M51 394q22 0 22 -23q0 -11 -7.5 -18.5t-20.5 -5.5q-21 5 -17 30q5 17 23 17zM55 41q18 -7 20 -37q5 -62 -43 -123q-9 -12 -18 -11q-4 0 -4 6q0 2 6 10t14 20t12 21q16 38 13 65q-28 0 -29 25q-1 12 8.5 20t20.5 4z" />
<glyph unicode="&#x3c;" horiz-adv-x="267" d="M217 457q6 -7 -8 -24q-34 -44 -111 -120q-8 -7 -27.5 -28.5t-23.5 -26.5q10 -17 47 -56q45 -48 86 -98t31 -53q-3 -1 -6.5 0.5t-7.5 5.5t-6.5 7t-7 8t-5.5 6q-16 18 -70 81q-8 9 -30.5 34.5t-36.5 42.5t-14 21q0 8 21 29q13 13 42.5 44t31.5 33q31 31 73 80q2 2 4 5.5 t4 6t4.5 4.5t4.5 1.5t5 -3.5z" />
<glyph unicode="=" horiz-adv-x="312" d="M137 318l91 -1q54 0 54 -10q0 -5 -7.5 -6.5t-20.5 -1t-16 0.5h-150q-4 0 -13 -0.5t-15.5 -0.5t-14 0.5t-11.5 2.5t-4 5q0 10 47 10q13 0 32.5 0.5t27.5 0.5zM258 216q24 0 24 -8q0 -10 -47 -10l-88 -1l-63 1q-54 0 -54 10q0 5 7.5 6.5t20.5 1t16 -0.5h106q67 0 78 1z" />
<glyph unicode="&#x3e;" horiz-adv-x="281" d="M52 455q6 3 36 -27l134 -132q32 -32 32 -38q0 -8 -61 -79q-4 -4 -36.5 -42t-43.5 -49q-3 -3 -8.5 -9t-10 -10.5l-9.5 -9.5t-9 -8t-8 -5.5t-7 -2.5t-5 3q-1 3 -1 4.5t2.5 4.5t4.5 5t6 5.5t6 5.5q9 12 19.5 23.5t24.5 27.5t24 27q88 102 90 109q0 2 -12.5 14.5t-29 28.5 t-20.5 21q-12 13 -50.5 50.5t-44.5 43.5q-3 3 -9 8.5t-9.5 9t-7 8t-3 8t5.5 5.5z" />
<glyph unicode="?" horiz-adv-x="217" d="M155 715q19 -12 27 -33q21 -52 3 -132q-5 -27 -15.5 -53t-25.5 -60t-24 -57q-10 -27 -12.5 -70.5t0.5 -169.5q0 -22 -8 -22q-7 -1 -8.5 4.5t-1.5 18.5q1 14 -0.5 57.5t-1.5 67.5q0 91 24 144q37 83 47 111q9 24 13.5 56.5t0 68t-22.5 51.5q-11 12 -32.5 11.5t-36.5 -16.5 q-13 -15 -16.5 -39t10.5 -57q2 -4 6.5 -8t6.5 -7t2 -6q-1 -5 -6.5 -6.5t-9.5 1.5q-29 26 -27 75.5t33 69.5q17 11 38.5 10.5t36.5 -10.5zM81 24q3 15 18 15q9 0 15.5 -6t6.5 -17q0 -9 -7.5 -15t-17.5 -4q-20 4 -15 27z" />
<glyph unicode="@" horiz-adv-x="522" d="M270 574q16 4 37 4q39 0 66 -15q62 -35 76 -153q13 -84 -8 -184q-22 -104 -55 -145q-14 -18 -30 -18q-7 0 -14 4q-31 19 -31 171q-4 -11 -12 -36.5t-13 -41.5t-14 -37t-18 -35q-15 -24 -33 -24q-8 0 -14 5q-22 17 -23 101.5t10 136.5q21 106 50 137q29 29 66 24 q10 -1 26 -7.5t18 -13.5q1 -4 -1.5 -16t-5.5 -24.5t-3 -15.5q-12 -62 -14 -87q-8 -67 3 -168q7 -53 22 -54q22 -2 44 58t31 120q17 135 -15 222q-20 50 -52 67q-23 13 -52 13q-53 0 -94 -32q-51 -39 -86 -126t-40 -183q-5 -136 46 -213q33 -51 85 -54q27 -2 69 15q16 9 20 1 q3 -6 -4.5 -12t-20.5 -10t-22 -6.5t-16 -3.5q-85 -8 -128 64q-61 101 -42 270q19 150 92 237q44 51 100 65zM297 452q-30 -2 -46.5 -27.5t-28.5 -73.5q-29 -108 -15 -231q5 -36 15 -36q17 0 32 40q3 8 40 113q8 26 25.5 109.5t15.5 91.5q-3 16 -38 14z" />
<glyph unicode="A" d="M256 23l1 -7q1 -6 0 -10.5t-5 -5.5q-3 -1 -5 0t-3.5 3t-2.5 4.5t-2 6t-1.5 6t-1 6.5t-0.5 6q-2 11 -10.5 55.5t-17.5 96.5t-17 96q-42 -8 -113 -3q-18 -84 -25 -140q-9 -64 -20 -113q0 -2 -1 -6.5t-1.5 -7t-1.5 -6t-3.5 -5t-5.5 -1.5q-5 0 -7 2.5t-1.5 8t1 9t2.5 10.5 l2 6q5 26 13.5 75.5t17.5 99.5t10 55q9 53 26 172q27 160 37 211q8 39 16 39q4 0 6.5 -2t3.5 -5.5l2 -7t1.5 -9t1.5 -8.5q7 -35 12.5 -70.5t11.5 -79t9 -62.5q16 -116 28 -190q13 -84 28 -160q2 -11 8 -37t7 -32zM80 295q48 -8 109 2q-3 23 -21.5 150t-29.5 192 q-13 -47 -27 -140q-23 -153 -31 -204z" />
<glyph unicode="B" horiz-adv-x="259" d="M80 684q33 4 62 -19q33 -28 43 -96q8 -60 -13 -102t-71 -54q30 -8 56.5 -33.5t42.5 -59.5q33 -69 30 -146q-3 -51 -16 -83q-38 -94 -125 -94q-22 0 -36 5q-9 3 -9 39l3 127q1 34 1 268q0 28 -0.5 61t-1.5 73.5t-1 63.5q-2 29 1 37q6 10 34 13zM61 661q1 -36 1.5 -116 t2.5 -122q23 -2 47.5 11t36.5 29q35 45 15 127q-10 45 -39 67q-24 16 -64 4zM65 404q0 -60 -1.5 -190t-1.5 -194q23 -10 54 -4q55 9 83 81q16 44 14.5 95.5t-17.5 94.5q-46 117 -131 117z" />
<glyph unicode="C" horiz-adv-x="214" d="M145 688q47 0 55 -75q3 -11 2 -25t-8 -13q-5 0 -8 8t-4 24t-1 17q-3 24 -11.5 36.5t-26.5 11.5q-37 0 -59 -82q-20 -77 -27.5 -205t2.5 -217q9 -105 39 -140q7 -10 18.5 -15.5t23.5 -1.5q31 9 43 72q0 2 1.5 11t3 14t4.5 6q5 1 7.5 -1t2.5 -6.5v-8.5t-1 -10.5t-1 -7.5 q-13 -88 -71 -88q-27 0 -45 23q-47 59 -47 277q0 234 42 337q14 33 29 46t37 13z" />
<glyph unicode="D" horiz-adv-x="283" d="M58 684q25 2 52.5 -9t43.5 -24q38 -31 60.5 -102t26.5 -118.5t4 -89.5q1 -77 -2 -125.5t-20 -106.5t-50 -85q-32 -26 -85 -26q-15 0 -37 2q-2 0 -2 41v152q0 29 0.5 84.5t0.5 82.5q0 20 -0.5 99.5t-0.5 130.5v78q1 14 5 15q1 1 4 1zM65 665q2 -217 0 -650q66 -6 97 21 q10 9 18.5 20t15 25.5t11 26t8 29.5t5.5 28.5t3.5 30t2 27t1.5 26.5t1 21q5 107 -9.5 196.5t-44.5 136.5q-42 66 -109 62z" />
<glyph unicode="E" horiz-adv-x="216" d="M177 682q4 0 10.5 0.5t10 0t8 -1t6 -2.5t1.5 -6q0 -2 -1 -3.5t-2 -2.5t-3.5 -1h-4h-5h-5.5q-104 0 -129 -4q2 -35 1 -103t1 -102q35 3 99 1q17 -4 18 -8q0 -4 -4.5 -6.5t-12.5 -3t-15 -0.5t-16 0.5t-11 0.5q-22 1 -57 -1q3 -28 2 -136t-1 -133q0 -13 -1.5 -67t-0.5 -89 q84 0 118 1q30 0 32 -8q1 -3 0 -4.5t-4 -2.5t-5.5 -1h-7.5q-63 0 -89 -1q-55 -3 -58 2q-1 3 -1.5 58t0.5 94v257q0 25 -0.5 69t-1 81.5t-1.5 71.5q0 41 1 42q3 4 57 8h72z" />
<glyph unicode="F" horiz-adv-x="212" d="M92 683q8 1 48.5 0t49.5 -1q27 0 29 -4q3 -11 -19 -12h-10h-2q-106 0 -119 -1q-1 -37 -1 -232l34 -1q34 0 34 1q12 2 30 1.5t17 -8.5q0 -4 -3.5 -6t-10 -2.5t-12 -1t-13.5 0t-10 0.5h-67q0 -243 1 -362q0 -4 0.5 -13t1 -15.5t0 -13.5t-3.5 -10.5t-8 -3.5q-10 1 -7 36 q0 33 -0.5 153t-0.5 195.5v123.5q0 11 0.5 58t1.5 77.5t3 37.5q6 2 21 2.5t16 0.5z" />
<glyph unicode="G" horiz-adv-x="267" d="M215 605q4 -15 3 -35t-11 -19q-12 1 -8 24q2 82 -34 94q-29 8 -55 -34q-39 -66 -51 -209q-5 -65 -5 -121q2 -205 43 -269q11 -17 28 -22.5t30 1.5q25 12 39 67q16 63 17 211q0 49 -2 50q-12 6 -52 3q-39 -3 -40 6q-1 6 2.5 7.5t11.5 2.5h4q12 1 27 0t24 -1q30 0 31 -1 q3 -2 4.5 -3.5t2.5 -4.5t1.5 -5.5t1 -8.5t0.5 -11v-15v-19q0 -154 -21 -229q-20 -69 -69 -69q-44 0 -66 54q-30 72 -34 221q-2 95 7 185q6 48 9.5 69.5t15 58t28.5 65.5q21 39 60 39q45 0 58 -82z" />
<glyph unicode="H" horiz-adv-x="283" d="M226 684q3 0 5 -4.5t3 -13t1 -15.5t-0.5 -18.5t-0.5 -16.5q0 -27 -1 -146.5t-1 -127.5q0 -309 1 -322q3 -20 -7 -20q-4 0 -6.5 3t-3 7.5t-0.5 11v13.5v14q-2 32 -2 196v130q-16 1 -146 4v-29.5v-35.5v-31q0 -45 -1 -124t-1 -122v-7.5v-9t-0.5 -8.5t-1 -7.5t-2.5 -5.5 t-5 -2q-9 1 -9 30q1 42 1.5 127.5t0.5 127.5q0 24 0.5 73.5t0.5 73.5l-1 205q1 8 0 19t1 21t7 10q3 0 5.5 -1.5t3 -6t0.5 -7.5v-10v-9q1 -38 1 -112v-142q23 -2 73.5 -2t72.5 -1q0 39 1 121.5t1 122.5v9v9.5v8.5t0.5 8t1.5 6t3 4.5t5 1.5z" />
<glyph unicode="I" horiz-adv-x="122" d="M61 682q4 0 6 -1t2.5 -3.5t0.5 -5t-0.5 -7t-0.5 -7.5v-141q0 -60 -0.5 -179.5t-0.5 -179.5q0 -20 -0.5 -64t-0.5 -66q0 -29 -7 -30q-10 0 -10 24q2 64 2 343q0 21 0.5 64t0.5 61v168q0 24 8 24z" />
<glyph unicode="J" horiz-adv-x="182" d="M82 682q44 0 47 -5q2 -3 2 -41v-531q-2 -59 -14 -85t-46 -26q-20 0 -33 8q-19 13 -25.5 41.5t3.5 56.5q2 6 3.5 10t4.5 6.5t7 1.5q8 -2 3 -17q-11 -22 -5 -52.5t30 -36.5q24 -7 38 9q3 3 6 7.5t4.5 11t3 11t2.5 13.5t1.5 13t0.5 14.5v14v15v13.5v131q-1 60 0 201t-2 198 h-21.5h-25.5h-21q-24 0 -25 7q-1 9 11 11h14.5h18.5h18z" />
<glyph unicode="K" horiz-adv-x="249" d="M68 648v-119q0 -100 -2 -150q1 1 12 19.5t24 41.5t19 34q53 102 102 198q4 10 11 10q11 0 0 -25q-9 -22 -103 -196q-13 -25 -60 -104q11 -24 35.5 -72t32.5 -65q7 -15 35.5 -70t32.5 -63q12 -27 35 -67q12 -21 -3 -21q-5 0 -8 2.5t-4.5 7.5t-2.5 7q-15 27 -46.5 91 t-49.5 98q-45 86 -61 123q-1 -44 -1.5 -125t-0.5 -126v-14v-20v-16q0 -2 0.5 -7t0 -7.5t-1.5 -6.5t-3.5 -5.5t-6.5 -1.5q-6 0 -6 20q1 28 1 170q0 37 1 100.5t1 93.5v111q0 13 -0.5 61t-0.5 93q0 3 -0.5 9.5t0 10t1 7.5t3 5.5t6.5 1.5q8 0 8 -34z" />
<glyph unicode="L" horiz-adv-x="197" d="M57 682q7 0 9 -8t2 -29v-22v-188q-1 -31 -1 -65.5t0.5 -85.5t0.5 -90q-2 -103 1 -178q30 -2 65 -2q4 0 20.5 1.5t27 1t12.5 -5.5q2 -8 -3.5 -9.5t-18.5 -1.5h-4q-26 -1 -75 -1q-34 0 -36 1q-6 4 -6 38q-1 44 -0.5 151t0.5 151q-1 51 0 135.5t1 120.5q0 16 -1 33 l-1.5 25.5t-0.5 15.5t2 9.5t6 2.5z" />
<glyph unicode="M" horiz-adv-x="355" d="M287 684q9 2 13 -13q2 -10 2 -85q0 -11 0.5 -85t0.5 -126v-82q-1 -49 -1 -107.5t0.5 -115t0.5 -61.5q-2 -11 -9 -11t-8 12.5t0.5 28t-0.5 30.5q-2 35 -0.5 122t0.5 122q0 53 -0.5 160t-0.5 161q-10 -43 -31.5 -121.5t-26.5 -101.5q-23 -91 -32 -121q-9 -23 -16 -24 q-11 -1 -18 16q-11 30 -24 83l-37 148q-6 24 -17 65.5t-14 52.5v-264q0 -17 -1 -71.5t0 -86.5v-104t1 -82v-2v-9t-1 -8t-4 -6.5t-7 0.5q-3 1 -4.5 6.5t-1.5 16v12.5v78.5t0.5 133.5t0.5 152v247q0 36 8 39q5 1 8.5 -1t5.5 -7.5t3.5 -9.5t3 -10.5t1.5 -8.5q15 -49 41 -154 q28 -113 54 -204q8 21 14.5 47.5t14.5 63.5t15 63q28 108 50 189q1 3 2.5 10t3 10.5t4 7.5t6.5 5z" />
<glyph unicode="N" horiz-adv-x="311" d="M252 682q5 0 6 -5t0.5 -16t-0.5 -15q2 -44 0.5 -123t-1.5 -94q3 -145 1 -353q0 -28 1 -44v-9.5v-10t-0.5 -8t-2 -6.5t-4.5 -3t-5 0t-4 3t-3.5 4.5t-2.5 6.5t-2 6.5t-2 6.5t-1 5q-8 26 -20.5 70t-22 77.5t-17.5 62.5q-13 47 -46 180q-40 166 -58 221q-2 -21 -0.5 -76 t1.5 -72v-298q0 -19 1 -77.5t0 -88.5q0 -2 0.5 -11.5t-1.5 -14t-8 -3.5q-8 1 -8 27q0 54 -0.5 150t-0.5 142v160v148v13.5v15.5v13t1.5 11t4.5 5q5 2 9 0.5t7 -7t4 -9.5t4 -12q24 -79 32 -115q79 -317 87 -343q2 -8 19.5 -72t21.5 -75q-2 222 -2 324q0 29 0.5 78.5t0.5 76.5 v123q0 32 11 31z" />
<glyph unicode="O" horiz-adv-x="309" d="M158 688q56 6 82 -67q17 -49 23 -137q7 -88 5 -170q0 -55 -8 -137q-18 -184 -108 -184q-39 0 -64.5 36.5t-34.5 89.5q-21 104 -13 268q9 146 35 218q13 36 35 58.5t48 24.5zM162 670q-51 -8 -71 -71q-23 -65 -32 -182q-16 -216 19 -327q25 -81 75 -81q71 0 90 164 q9 85 9 146q0 230 -27 296q-11 30 -25 42.5t-38 12.5z" />
<glyph unicode="P" horiz-adv-x="213" d="M82 683q46 -3 83 -40q48 -48 45 -136q-3 -92 -42 -132q-33 -32 -100 -29v-86v-104v-84q0 -10 0.5 -23.5t1 -21.5t0 -15.5t-3 -11t-7.5 -3.5q-8 0 -8 38q-1 26 0 70.5t1 58.5q0 42 -0.5 136.5t-0.5 135.5v188v15.5v14.5t1 13t4 10t8 5q11 2 18 1zM73 664q-1 0 -1.5 -9 t-1 -22.5t-0.5 -18.5v-80t-1 -80q-2 -45 0 -89q49 -5 72 11q32 21 45.5 82t-1.5 114q-10 35 -38 63q-32 35 -74 29z" />
<glyph unicode="Q" horiz-adv-x="310" d="M296 -24q9 -2 3 -22q-10 -32 -26 -50q-23 -27 -61 -27q-22 0 -39 10q-24 14 -31.5 39.5t-7.5 69.5q-47 8 -70 80q-26 88 -26 250q0 88 17 188q15 101 55 147q34 38 84 20q35 -13 48 -66q18 -55 26 -176q3 -43 1 -134q-5 -154 -25 -218q-28 -88 -92 -92q-2 -39 7 -63 q14 -37 53 -37q54 0 71 70q2 14 13 11zM61 180q15 -130 55 -159q19 -12 39.5 -9t35.5 16q19 15 31 45.5t15.5 53t8.5 66.5q17 188 -4 346q-5 37 -17 74q-20 65 -71 56q-30 -5 -49 -45q-25 -47 -39 -141q-23 -148 -5 -303z" />
<glyph unicode="R" horiz-adv-x="249" d="M62 682q14 2 20 2q49 0 83 -39q19 -21 32 -59t13 -78q0 -85 -41 -125q-34 -32 -94 -32q8 -16 23.5 -50t27.5 -57q8 -16 37 -75t48 -96q20 -38 29 -52q13 -20 -1 -21q-4 0 -7 1.5t-4.5 3.5t-3 6t-2.5 5q-51 94 -106 211q-22 43 -51 111q4 -75 4 -260q0 -56 1 -63 q3 -16 -10 -16q-8 0 -10 5t0 17t2 16v133q1 42 -0.5 136.5t-1.5 133.5v183q0 5 -0.5 15t-0.5 15.5t1 12.5t4 11t8 5zM71 665q-5 -1 -5 -50q1 -58 1 -156q0 -15 0.5 -45.5t0.5 -44.5q39 -4 74 15t46 77.5t-5 111.5q-13 45 -43 71.5t-69 20.5z" />
<glyph unicode="S" horiz-adv-x="245" d="M141 686q34 -7 49.5 -41t13.5 -77q-2 -26 -5 -29t-8.5 -2.5t-6.5 4.5q-2 5 1 22q7 75 -31 99q-14 9 -32 9q-12 0 -24 -6q-53 -32 -25 -133q9 -29 62 -162q3 -8 21.5 -54t28.5 -73t20.5 -67.5t11.5 -68.5q3 -80 -52 -107q-18 -9 -39 -9q-44 0 -72 31q-41 51 -21 137 q0 1 1 7t2 9.5t3.5 6.5t6.5 3q14 -2 6 -22q-8 -23 -8 -52.5t8 -48.5q23 -60 88 -52q36 5 50.5 41.5t6.5 83.5q-11 65 -78 227q-16 38 -42 106q-33 87 -30 137q2 45 32 68q19 15 46 15q6 0 16 -2z" />
<glyph unicode="T" horiz-adv-x="218" d="M183 682q29 2 30 -6q1 -5 -2.5 -7.5t-10.5 -3.5t-12.5 -1t-12.5 0.5t-8 0.5q-2 0 -25 0.5t-25 -0.5q1 -58 0.5 -182t0.5 -179v-275q0 -1 0.5 -6t0.5 -8.5t-0.5 -7.5t-2.5 -6.5t-5 -2.5q-10 -1 -10 30q-1 18 -0.5 62t0.5 62q-1 83 -1 257t-1 256q-6 1 -41 1 q-6 0 -20.5 -0.5t-23 0.5t-9.5 5q-1 5 2 8t7 3q12 0 30 -0.5t26 -0.5q19 0 57 0.5t56 0.5z" />
<glyph unicode="U" horiz-adv-x="296" d="M60 682q4 -1 6 -3t2.5 -5.5t0.5 -6t-1 -7.5t-1 -7q-1 -23 -1 -239q0 -19 0.5 -102.5t1.5 -145t3 -82.5q6 -51 40 -68q22 -11 51 -7q63 6 68 141q1 37 0.5 235t-1.5 214q0 4 -1 18t-1 21.5t0.5 17.5t2.5 15t5 6q4 1 6.5 -1t3 -6t0.5 -8t-0.5 -9.5t-0.5 -7.5 q0 -23 0.5 -103.5t1.5 -180.5t1 -145q0 -44 -1 -68t-6 -59.5t-17.5 -56.5t-32.5 -31q-16 -9 -41 -9q-38 0 -58 17q-36 26 -39 97q-3 76 -3 325v222v6.5v6.5v5.5t0.5 5t2 3t3.5 2t5 0.5z" />
<glyph unicode="V" horiz-adv-x="246" d="M232 685q5 0 7 -3.5t2 -9t-0.5 -10t-2 -10t-1.5 -6.5q-10 -57 -25.5 -162t-23.5 -156q-40 -250 -51 -305q0 -1 -1 -7.5t-2 -10t-3 -8.5t-5 -7.5t-7 -1.5q-6 2 -13 42q-8 46 -19 125t-18 122q-36 223 -53 327q-6 39 -10 56q-3 20 5 23q3 0 6 -2q4 -3 6.5 -14t5 -30.5 t4.5 -29.5q6 -29 40 -247l33 -215q8 -52 16 -121q20 125 55 337q21 123 37 247q7 78 18 77z" />
<glyph unicode="W" horiz-adv-x="405" d="M367 683q3 -6 1 -40q-3 -42 -16.5 -237.5t-18.5 -262.5q-2 -18 -5 -56.5t-5 -56.5q-5 -29 -10 -32q-9 -3 -12.5 3.5t-5.5 18.5q-21 96 -44 245l-23 143q-6 37 -23 141q-9 -47 -22 -119q-3 -16 -17.5 -102.5t-29.5 -164.5q-23 -125 -29 -144q-5 -20 -11 -21q-17 -6 -21 60 q-2 27 -5 79t-5 79t-5.5 80.5t-5.5 79.5q0 4 -4.5 70.5t-6.5 87.5q0 7 -1.5 19.5t-3.5 39t-5 59.5q0 1 -1 6.5t-1 8.5t0.5 7t2.5 6t6 2q3 0 4.5 -2.5t2.5 -6.5t1.5 -7.5t0.5 -8.5v-7q0 -9 4 -42.5t7 -78.5q4 -30 7.5 -89.5t4.5 -65.5q2 -22 6 -97.5t8.5 -142t8.5 -96.5 q4 13 12.5 58t16 88t8.5 47q6 38 40 235q3 18 10 54.5t10 54.5q1 3 1 7.5t0.5 7.5t2.5 5.5t5 2.5q4 1 6.5 -1t4 -5.5t2 -6.5t1.5 -8t1 -7q12 -56 23 -126q5 -31 12.5 -79t9.5 -58q8 -53 26 -152.5t21 -119.5q1 18 3.5 57.5t4.5 57.5q4 46 6.5 95t5.5 79q3 51 10.5 152.5 t11.5 151.5q3 50 8 54q1 1 4.5 1.5t4.5 -0.5z" />
<glyph unicode="X" horiz-adv-x="287" d="M252 683q6 1 9 -1.5t1.5 -7.5t-3 -9.5t-5 -12t-4.5 -10.5q-16 -36 -52 -138q-30 -75 -44 -117q28 -86 43 -128q5 -16 17 -51.5t14 -40.5q8 -27 24 -70.5t24 -76.5q8 -26 -5 -24q-4 0 -11 20q-1 4 -16 51t-27 80q-45 129 -72 216q-70 -210 -75 -226q-27 -81 -35 -107 q-1 -2 -3 -11t-4.5 -15.5t-6.5 -6.5q-7 -1 -10 3t-2 10t3.5 12t5.5 12.5t3 7.5q27 81 33 101q41 122 49 145q16 50 34 99q-1 4 -11.5 31t-16.5 41q-43 122 -69 185q-2 5 -5 12t-5 11.5t-3 8.5t1 6t8 2q7 0 17 -25q2 -8 8 -23t17.5 -44t22.5 -59q37 -103 43 -125 q5 14 16.5 43.5t17.5 45.5q44 125 58 155q2 3 4 11.5t4.5 13.5t7.5 6z" />
<glyph unicode="Y" horiz-adv-x="263" d="M254 683q9 -2 1 -21q-9 -24 -30 -97t-26 -89q-31 -99 -58 -175v-84q0 -9 -0.5 -49.5t-0.5 -72.5v-70q0 -26 -8 -27q-4 0 -6 4t-2.5 10.5t-0.5 12.5t0.5 13.5t0.5 10.5v192v56q-8 27 -28.5 91.5t-23.5 77.5q-23 91 -57 187q-8 25 -5 28q4 3 7 3t5.5 -2t4.5 -5t3.5 -8.5 t3 -10t3 -11.5t2.5 -11q0 -1 16 -54t23 -77q21 -77 55 -176q29 85 42 130q6 18 20.5 67.5t27.5 91t16 50.5q2 5 3.5 8t4.5 5.5t7 1.5z" />
<glyph unicode="Z" horiz-adv-x="216" d="M167 16q7 1 11.5 1t11.5 -0.5t10 -3t2 -6.5q0 -3 -1.5 -4.5t-4.5 -2t-6 -0.5h-8h-8q-36 -2 -76 -2q-23 0 -31 1q-9 1 -18.5 0t-20 1t-14.5 6q-5 5 17 85q5 17 29 104.5t37 134.5q13 46 87 334q-47 4 -113 -1q-31 -3 -32 9q0 4 2 6t6 2.5t8.5 0.5t10.5 -0.5t10 -0.5 q16 0 44.5 1.5t46.5 1.5h13t16.5 -1.5t7.5 -4.5q1 -8 0.5 -12t-4 -14.5l-4.5 -13.5q-27 -108 -35 -136q-36 -144 -65 -240q-5 -17 -45 -162q-1 -5 -9 -36t-13 -47q59 -6 138 0z" />
<glyph unicode="[" horiz-adv-x="173" d="M85 741h41q2 0 6.5 0.5t7 0.5t6 -0.5t5 -2.5t1.5 -5q0 -4 -2 -6.5t-6 -3.5t-8 -1t-9.5 0.5t-7.5 0.5q-10 0 -25.5 -0.5t-20.5 -0.5q1 -34 1 -92v-93q1 -41 1.5 -224t-0.5 -239q0 -55 -0.5 -114t-0.5 -76q7 -1 43 -1q2 0 7.5 0.5t9 0.5t8 -0.5t6.5 -2.5t3 -5q0 -4 -3 -6.5 t-9 -3t-11 -1t-13 0t-10 0.5q-46 0 -48 3t1 313v48v59.5v51.5q-1 98 -1 358q0 4 -1 14t-0.5 16.5t2.5 8.5t27 2z" />
<glyph unicode="\" horiz-adv-x="257" d="M39 743q11 7 16 -13q7 -35 91 -413q57 -258 77 -363q1 -4 5 -21t5 -23t-1 -13q-13 -11 -20 24q0 1 -1 8q-5 23 -33.5 156.5t-33.5 153.5q-46 211 -65 298q-5 20 -13.5 61t-15.5 72t-8 36q-1 2 -2.5 7.5t-2.5 9.5t-1.5 8.5t0 7.5t3.5 4z" />
<glyph unicode="]" horiz-adv-x="185" d="M60 742q70 2 70 -7v-196q0 -26 -0.5 -80t-0.5 -79l-1 -300q0 -192 -3 -210q-5 -3 -15.5 -2.5t-34 1.5t-35.5 0q-9 -1 -14.5 1t-4.5 8q1 9 18 9h72l2 255q0 5 -0.5 111t0.5 107q3 164 1 365q-11 2 -52 0q-2 0 -7 -0.5t-9 -0.5h-8.5t-7 1.5t-3.5 4.5q-2 8 7 10t24 2h2z" />
<glyph unicode="^" horiz-adv-x="348" d="M181 679q8 -1 22 -32q9 -19 32.5 -72t31.5 -70q1 -3 6 -14t13 -28t16 -33q16 -30 4 -35q-4 -2 -7.5 0.5t-6.5 7.5t-5 10t-4.5 11t-3.5 8q-13 28 -30.5 68.5t-27.5 62.5q-18 39 -26 58q-10 23 -15 32q-2 -3 -19.5 -39t-21.5 -42q-2 -3 -38 -78q-3 -6 -15.5 -34 t-22.5 -45.5t-15 -17.5q-16 0 -3 26q4 8 9 16.5t7.5 14t5.5 11.5q23 50 42 87t36 72q28 56 36 55z" />
<glyph unicode="_" horiz-adv-x="315" d="M112 -46q101 0 144 -2q54 0 54 -10q0 -3 -3.5 -5t-9 -2.5t-10.5 -0.5t-11.5 0.5t-9.5 0.5q-47 0 -98 0.5t-69 0.5h-70q-24 0 -24 8q0 10 47 10h60z" />
<glyph unicode="`" horiz-adv-x="157" d="M21 678q6 12 22 -7q0 -1 61 -93q22 -30 14 -36q-6 -5 -19 15q-3 3 -14.5 20.5t-27.5 40.5t-24 34q-14 22 -12 26z" />
<glyph unicode="a" horiz-adv-x="218" d="M106 472q41 3 59 -34q17 -33 13 -106q-5 -97 -5 -160q0 -112 1 -161q0 -13 -8 -13q-9 0 -9 31q-1 52 1 143l-12 -33t-13 -35.5t-12.5 -33t-14 -31.5t-13.5 -23.5t-14.5 -17t-14.5 -5.5q-18 0 -28 22q-13 28 -14.5 74t3 81.5t10.5 56.5q28 96 126 78q1 35 2 65.5t-10 54.5 t-34 30q-20 5 -34.5 -7t-14.5 -35q0 -1 0.5 -6.5t1 -9.5t-1 -8t-5.5 -4q-14 -1 -11 36q1 21 16 35t36 16zM161 288q-59 10 -87 -18q-24 -28 -32.5 -99t-0.5 -116q3 -17 9 -31t15 -13q12 0 48.5 89.5t42.5 111.5q5 22 5 76z" />
<glyph unicode="b" horiz-adv-x="238" d="M60 740q7 1 8.5 -6t1.5 -21v-3q0 -16 -1 -133.5t-1 -179.5q0 -40 -2 -104q8 33 14.5 54t19 56t28 53t31.5 17q8 -1 14 -5t10 -14.5t4.5 -13t3.5 -15.5q20 -96 12 -217q-7 -112 -30.5 -161.5t-85.5 -49.5q-30 0 -37 8q-4 5 -4.5 45.5t1 101.5t1.5 72q3 108 3 334 q0 26 0.5 75t0.5 71q-2 10 -1.5 23t9.5 13zM152 453q-22 -8 -53 -101t-33 -127q-5 -87 -3 -208q68 -11 90 30q30 55 33.5 176.5t-13.5 203.5q-2 11 -7.5 20t-13.5 6z" />
<glyph unicode="c" horiz-adv-x="186" d="M110 472q32 3 45.5 -26.5t11.5 -63.5q-2 -24 -12 -24q-3 0 -5 1.5t-2 4.5v5.5t1 6.5t1 6q2 26 -6 49t-26 25q-19 2 -34.5 -24.5t-22 -55t-9.5 -57.5q-10 -85 -5 -174q7 -134 60 -134q21 0 36 28t9 65q-2 13 5 15q5 1 8 -2t4 -10t1 -11.5t-1 -11.5q-3 -46 -21 -70 q-16 -21 -42 -21q-67 0 -76 143q-6 104 8 206q6 47 24 87.5t48 42.5z" />
<glyph unicode="d" horiz-adv-x="256" d="M208 739q3 -1 5 -5.5t2.5 -12.5t0.5 -15t-0.5 -17t-0.5 -14q-1 -28 -2 -63t-2 -79t-2 -67q-2 -80 -2 -113v-123q0 -22 -1 -95t0 -114v-6q2 -17 -6 -17q-10 -1 -11 16v15q-1 28 0 121.5t1 121.5q-14 -73 -47 -185q-20 -72 -41 -88q-40 -29 -56.5 43.5t-15.5 176.5 q6 184 72 235q37 28 90 8q0 80 4 236q0 8 0.5 14.5t1.5 13.5t3.5 10.5t6.5 2.5zM191 440q-19 15 -47 10.5t-44 -23.5q-47 -53 -52 -198q-3 -71 7.5 -145.5t31.5 -71.5q18 2 45 98q39 135 54 225q6 45 5 105z" />
<glyph unicode="e" horiz-adv-x="210" d="M160 447q23 -43 25 -156q2 -38 -6 -42q-5 -3 -37 -3q-75 0 -96 -2q-4 -97 13 -165t53 -68q21 0 34 25.5t13 49.5v6.5t-0.5 6t-0.5 5t1.5 4t4.5 1.5q6 0 9 -6t3 -13.5t-1 -15.5q-4 -33 -20.5 -56.5t-43.5 -23.5q-64 0 -78 133q-13 131 19 245q14 47 31 73t42 26 q23 0 35 -24zM140 445q-7 8 -16 8q-18 0 -32 -26q-30 -55 -44 -165q17 1 57 1t62 2q2 43 -4 102.5t-23 77.5z" />
<glyph unicode="f" horiz-adv-x="168" d="M131 744q33 3 49 -26t14 -68q0 -19 -5 -39.5t-16 -12.5q-3 6 -2 11t4 24t2 37q-1 25 -13 41.5t-26 16.5q-32 0 -46 -40q-14 -39 -10 -223h20h26.5h21.5q2 0 6 0.5t6.5 0.5t5 -1.5t2.5 -4.5q1 -5 -1 -7.5t-7 -3.5t-9 -1t-11 0.5t-10 0.5h-49q1 -45 1 -110q0 -58 0.5 -150 t0.5 -144q0 -47 -5 -49h-5t-5 4t-3 11.5t-1 13.5t0.5 13.5t0.5 9.5q1 136 0 288q0 62 -1 112q-45 0 -46 6q0 4 3 6t8.5 2.5t12 1t12 0t9.5 0.5q-3 47 -1.5 121t12.5 108q17 47 55 51z" />
<glyph unicode="g" horiz-adv-x="226" d="M117 1q42 -31 60 -76.5t13 -91.5q-4 -41 -25 -69t-58 -28q-33 0 -57.5 31t-24.5 79q0 50 24 92t47 57q-14 9 -29 20q-4 3 -7 6.5t-4 7.5t-1.5 7.5t0.5 9t2 9t4 10t4 9.5t5 10.5t5 10.5q7 14 8 17q-34 21 -45 93.5t1 136.5q7 56 29 94t60 35q6 0 11 -3q11 2 23 12.5 t13 22.5v5.5v6t0.5 5.5t2 3.5t4 1.5t6.5 -1q3 -1 4 -9.5t0 -12.5q-3 -31 -37 -45q36 -39 38.5 -145.5t-30.5 -169.5q-23 -42 -63 -36l-23 -46q-10 -19 -4 -27q2 -3 11 -9.5t19.5 -13.5zM52 260q2 -101 34 -129q24 -21 44.5 -1.5t32.5 59.5q15 55 14 113.5t-15 101.5 q-5 16 -9 25t-14 17.5t-23 6.5q-36 -5 -50.5 -64.5t-13.5 -128.5zM161 -212q24 53 8 111t-58 87q-21 -12 -45 -52.5t-24 -81.5q0 -43 19 -71t47 -28q34 0 53 35z" />
<glyph unicode="h" horiz-adv-x="251" d="M65 740q7 -2 7 -26q0 -8 -0.5 -28t-0.5 -42q0 -27 -2 -82t-1 -85q0 -147 -4 -185q31 109 48 140q23 40 50 40t34.5 -21.5t7.5 -69.5v-125q-1 -24 2 -234q0 -23 -5 -25q-5 -1 -7.5 2.5t-3.5 10t-1.5 12.5t-0.5 13.5v9.5q0 32 -0.5 96.5t-0.5 96.5v116v11q0 22 -0.5 33.5 t-2.5 27.5t-8 23t-15 6q-29 -3 -58 -91q-34 -102 -36 -130q-1 -19 -1 -84v-98v-9.5v-9v-8.5v-8t-0.5 -6.5t-1.5 -6t-2.5 -4.5t-3.5 -2.5t-4 -0.5q-6 1 -6 31v195q0 67 2 184.5t2 152.5q0 23 1 75t1 75q0 2 -0.5 8t0 9t1 7t3.5 5.5t7 0.5z" />
<glyph unicode="i" horiz-adv-x="121" d="M37 568q0 10 6.5 16t13.5 6q8 0 14.5 -6t6.5 -17q0 -8 -7 -13.5t-16 -5.5q-18 0 -18 20zM57 465q7 2 9 -4.5t3 -18.5q0 -14 -1 -53t0 -57q0 -211 2 -317q0 -6 -0.5 -9t-2.5 -6.5t-7 -2.5q-8 1 -8 49q-1 45 -0.5 140t0.5 139v35v41.5v33.5q0 2 -0.5 6t-0.5 7.5v7t1.5 6 t4.5 3.5z" />
<glyph unicode="j" horiz-adv-x="112" d="M35 571q0 10 7.5 16.5t14.5 6.5q17 0 17 -24q0 -8 -5.5 -14t-14.5 -6t-14 6.5t-5 14.5zM56 465q8 0 9 -14v-67v-90v-179q0 -42 -0.5 -124t-0.5 -128q0 -67 -16.5 -98t-54.5 -31q-26 0 -44 19t-18 54q0 40 26 81q13 18 19 13q3 -3 3 -6q0 -1 -10 -19q-21 -37 -21 -67 q0 -26 12.5 -42t33.5 -16q51 0 53 103q1 29 1 103q0 28 0.5 83t0.5 85v88q-2 204 -2 234q0 9 2 14t7 4z" />
<glyph unicode="k" horiz-adv-x="213" d="M53 738q11 8 13 -12q1 -7 0 -20v-7l1 -253q0 -29 0.5 -78t0.5 -75q3 5 50 70q55 78 60 88q9 15 18 15q5 0 5 -5q0 -3 -15 -29q-12 -19 -23.5 -35t-25.5 -35t-25 -34q-3 -4 -40 -57l35 -71q22 -43 51.5 -98.5t44.5 -83.5q10 -19 -1 -20q-4 0 -7 2t-4.5 5t-4 9t-4.5 9 l-28 51l-46 87q-28 56 -42 89q2 -152 1 -228q0 -24 -8 -24q-4 0 -6.5 4t-3 11t0 13t1 13t0.5 9v307q0 3 -0.5 63t-0.5 137v121q0 2 -1 20.5t0 29t4 12.5z" />
<glyph unicode="l" horiz-adv-x="123" d="M68 690q-1 -101 -1 -624q0 -51 12 -54q9 -3 19.5 5t15.5 4q13 -10 -12 -22q-9 -3 -16 -4q-7 0 -12 1t-9 4t-6.5 6t-4 9.5t-2.5 10.5t-1.5 12.5t-0.5 13v14v13.5v260q0 137 2 371q0 30 8 30q7 0 9 -6.5t0.5 -24t-1.5 -19.5z" />
<glyph unicode="m" horiz-adv-x="350" d="M160 472q22 3 27 -26q2 -13 1 -57q0 -15 -3 -78q17 52 43 104t46 56q9 2 15 -0.5t9.5 -10.5t5.5 -16t2 -23v-26.5t-0.5 -31t-0.5 -32.5q0 -41 -1.5 -108t-1.5 -115q0 -14 -0.5 -42.5t-0.5 -45.5q0 -9 -2 -14t-7 -4q-9 1 -9.5 21t1.5 31q2 37 1.5 86t0.5 82q0 9 1.5 48.5 t2 63.5t0.5 55t-2 47.5t-7 17.5q-14 3 -42 -53.5t-43 -101.5q-11 -31 -11 -57l-2 -106q-1 -38 -1 -114q0 -2 0.5 -6t0.5 -6.5v-5.5t-1.5 -5t-4.5 -2q-5 0 -8 3.5t-4 11t-1 13.5t0.5 15t0.5 12q0 14 3 150.5t3 155.5q0 9 0.5 24.5t0.5 25.5t-0.5 21t-2 17t-4.5 7 q-20 8 -55.5 -82.5t-41.5 -130.5q-2 -24 -5 -219q0 -23 -8 -24q-4 0 -6 4t-2.5 11.5t-0.5 14t0.5 14.5t0.5 10q0 112 1 173q1 43 1 219q0 22 9 22q3 0 5 -3.5t3 -10t1 -11.5t-0.5 -13t-0.5 -11q0 -42 -2 -128q53 179 96 184z" />
<glyph unicode="n" horiz-adv-x="256" d="M181 473q28 0 30 -38q1 -24 0.5 -174t-1.5 -220q0 -5 0.5 -13.5t0.5 -13t-1 -9t-4 -6t-9 -0.5q-5 1 -6 7.5t0.5 21.5t1.5 21q0 59 0.5 157t0.5 158v44q0 47 -17 47q-21 0 -55.5 -62t-51.5 -126q-6 -21 -6 -243v-4.5v-5v-5t-1 -5t-2 -3.5t-3 -2.5t-5 -0.5t-5 4t-2.5 11 t-0.5 13.5t0.5 16t0.5 13.5q0 30 0.5 82t0.5 84q0 34 0.5 107.5t0.5 112.5q0 23 8 23q4 0 6 -2t2.5 -6t1 -7.5t0 -9.5t-0.5 -8q0 -94 -2 -133q19 71 54.5 122.5t63.5 51.5z" />
<glyph unicode="o" horiz-adv-x="236" d="M122 471q53 0 70 -90q13 -66 13 -161q0 -168 -51 -213q-16 -13 -39 -13q-57 0 -75 90q-19 109 -4 232q8 73 30 114t56 41zM57 343q-15 -116 -6 -220q13 -113 65 -113q26 0 44 32q24 38 28 140.5t-8 172.5q-14 100 -60 100q-25 0 -41 -35.5t-22 -76.5z" />
<glyph unicode="p" horiz-adv-x="251" d="M178 469q43 -23 43 -218q0 -91 -20 -168q-23 -88 -82 -88q-26 0 -55 16q1 -26 1.5 -108.5t0.5 -111.5q0 -2 0.5 -10.5t0.5 -14.5t-1 -13.5t-3.5 -10.5t-7.5 -2q-6 3 -6 30q0 29 -0.5 107.5t-1.5 106.5q0 23 1.5 122t-0.5 135q0 64 0.5 114.5t0.5 61.5q0 3 -0.5 11 t-0.5 13.5t1 11.5t3.5 9t7.5 2q10 -1 8 -53q-2 -47 -4 -229q22 118 39 185q6 24 10 37t12 32t17.5 28t20.5 9q8 0 15 -4zM163 453q-15 0 -29 -45q-20 -62 -56 -229q-8 -32 -11 -73q-2 -27 -2 -77q42 -18 59 -17q42 3 60 76q22 87 18 213q0 19 -2 41t-6 49.5t-12 45t-19 16.5 z" />
<glyph unicode="q" horiz-adv-x="248" d="M199 459q3 -4 3.5 -39.5t-1 -86t-1.5 -60.5v-109q-1 -47 -1 -148q0 -14 0.5 -51.5t0.5 -70t-1 -57.5q-1 -18 -0.5 -41.5t0.5 -36.5q0 -7 -0.5 -10.5t-3.5 -6.5t-9 1q-4 3 -4 23q0 19 1 125t0 151q-1 54 1 217l-12.5 -50t-14 -53.5t-13.5 -48.5t-14 -45.5t-14 -34 t-15.5 -25.5t-15.5 -8q-33 0 -45 86t-5 173q4 57 19 116.5t39 79.5q22 20 70 20q29 0 36 -10zM186 445q-20 8 -44.5 5.5t-37.5 -13.5q-22 -22 -35.5 -81t-17.5 -116q-5 -71 5 -148t27 -79q7 -1 17 21t21 57.5t20 70t18 68t11 41.5q21 72 16 174z" />
<glyph unicode="r" horiz-adv-x="188" d="M138 471q23 1 34.5 -15t10.5 -38t-5 -44q-1 -3 -2 -8.5t-1.5 -9.5t-2 -8.5t-3.5 -6.5t-5 -2q-10 1 -2 36q9 28 2.5 57t-31.5 22q-23 -6 -47 -96q-20 -73 -20 -148q0 -2 -0.5 -80.5t0.5 -83.5q0 -49 -12 -49q-10 1 -8 25q2 39 2 207q0 15 1 53.5t0 64.5q0 15 0.5 44 t-0.5 48q0 24 9 24q2 0 3.5 -0.5t2.5 -2.5t1.5 -3.5t1 -4.5t0.5 -5t0.5 -5.5t0.5 -5.5l-3 -103q8 35 11.5 47t13 39.5t21 39t27.5 12.5z" />
<glyph unicode="s" horiz-adv-x="175" d="M84 470q35 3 51 -23t16 -64q0 -6 -0.5 -9.5t-1.5 -9.5t-4.5 -8.5t-8.5 -1.5t-5.5 5t2 12t2.5 10q1 31 -12 53.5t-38 19.5q-8 -1 -16 -8t-11 -14q-7 -14 -7 -32t4 -34.5t12.5 -37.5t16 -35t17.5 -32.5t13 -25.5q20 -40 31 -70q24 -73 9.5 -122t-64.5 -49q-36 0 -54.5 34 t-10.5 78q1 12 7.5 25.5t14.5 8.5q4 -4 3.5 -7.5t-4 -11.5t-4.5 -11q-7 -37 6 -68.5t43 -31.5q26 0 40 23.5t10 67.5q-5 53 -49 139q-3 7 -12.5 24.5t-15 28t-14.5 30.5t-11 32.5t-5 33.5t3 33q13 44 47 48z" />
<glyph unicode="t" horiz-adv-x="170" d="M79 591q3 -2 3.5 -21.5t-0.5 -55.5t-1 -49q35 -2 72 0h6h6.5h5.5t4.5 -1.5t1.5 -4.5q0 -4 -3 -6.5t-9 -3t-10.5 -1t-11.5 0t-9 0.5q-10 0 -27.5 -0.5t-25.5 -0.5q0 -33 -1 -143t0 -170q0 -80 1 -89q2 -15 9 -25.5t18 -10.5q21 0 25 28t8 29q3 1 5 -2t3 -8.5t1 -11.5 t-1 -12q-5 -38 -40 -38q-25 0 -36 21q-8 17 -10 95q-2 47 -0.5 168t1.5 169q-4 1 -19.5 0t-25.5 0.5t-10 8.5q0 3 1.5 5t4.5 2.5t5.5 0.5t6.5 -0.5t6 -0.5q21 0 31 1q0 4 1 45.5t0 54.5q0 16 3 24t11 2z" />
<glyph unicode="u" horiz-adv-x="259" d="M204 466q3 0 5.5 -1t3 -4.5t0.5 -6v-7.5v-6q0 -27 -0.5 -79t-0.5 -83q0 -4 -0.5 -43t-0.5 -92v-113v-8v-9t-0.5 -7t-2.5 -6t-5 -2q-4 0 -6.5 2t-3.5 6.5t-1 9t0.5 13t0.5 14.5q0 31 2 83t2 75q-5 -14 -12 -38t-11.5 -38.5t-13.5 -37t-21 -44.5q-25 -50 -55 -50 q-12 0 -20 10.5t-11.5 34.5t-5 39t-2 49.5t-0.5 39.5q-1 3 -0.5 94.5t0.5 95.5q0 50 1 83q0 23 6 25q6 1 9 -2.5t3.5 -13t0.5 -12.5t-1 -13q1 -30 0 -75.5t-1 -65.5q0 -177 2 -211q0 -2 1 -8t1.5 -10.5t1.5 -10.5t2.5 -10.5t3.5 -9t4.5 -6.5t6.5 -2q15 -1 32 28.5t32 69.5 q38 99 43 155q3 42 3 161q0 3 -0.5 14t1 17t7.5 6z" />
<glyph unicode="v" horiz-adv-x="229" d="M206 466q3 -1 4 -5.5t0.5 -8t-2 -9t-1.5 -6.5q-1 -8 -16.5 -94.5t-19.5 -111.5q-6 -33 -22.5 -117.5t-20.5 -96.5q-3 -22 -12 -24q-5 -1 -8 2t-5 9.5t-3.5 12.5t-2.5 14.5t-2 12.5l-57 306q-3 16 -8.5 43t-7.5 41q0 2 -1 6.5t-1.5 8.5l-1 8t1.5 6.5t5 2.5q9 0 29 -104 q19 -102 20 -111q5 -24 40 -217q1 5 22 111q11 56 28.5 155t26.5 146q1 7 2 10.5t4.5 7t8.5 2.5z" />
<glyph unicode="w" horiz-adv-x="349" d="M316 466q4 0 6 -3.5t1.5 -11.5t-1.5 -14.5t-3 -17.5t-3 -16q-4 -33 -34 -240q-7 -58 -25 -140q-1 -2 -1.5 -8.5t-1.5 -8.5t-3 -6.5t-4.5 -3t-7.5 1.5q-4 1 -6 6.5t-3.5 17t-2.5 13.5q-1 6 -4 18.5t-4 18.5q-2 10 -6 33.5t-8 52.5t-6 39q-2 11 -6.5 42t-8 55.5t-4.5 27.5 q-2 -8 -15 -85q-7 -40 -13 -71t-14 -67.5t-14 -67.5q0 -2 -2.5 -12.5t-5 -16t-6.5 -5.5q-5 -1 -8 2.5t-4 7t-2 10.5q-11 47 -20 99t-20 121.5t-17 102.5q-7 35 -16 94q-3 30 3 32q7 2 10.5 -4t4.5 -13q1 -2 2 -10.5t2.5 -22.5t2.5 -22q4 -32 22 -132l9 -63q5 -24 14 -76.5 t15 -76.5q12 39 37 176q5 29 23 133q0 1 1.5 13t4.5 19.5t7 7.5t6.5 -5.5t4.5 -17.5l1 -11l6 -40q4 -24 19 -125t25 -153q5 23 25 149q0 4 6 39.5t12.5 79t9.5 64.5q0 3 3.5 30.5t5.5 40.5q1 3 1.5 7.5t1 6.5t2.5 4t6 2z" />
<glyph unicode="x" horiz-adv-x="209" d="M175 465q6 1 8.5 -1t2 -6.5t-2 -8.5t-3.5 -9t-3 -7q-9 -32 -34 -105.5t-26 -78.5q7 -22 13 -42t9 -30.5t4 -12.5l16.5 -49.5t20 -61t10.5 -35.5q2 -18 -7 -19q-6 0 -13 23q-11 33 -32.5 99t-31.5 99q-3 -8 -10.5 -32.5t-12.5 -37.5q-35 -103 -41 -118q-13 -34 -20 -34 q-5 0 -6.5 3t-0.5 8t3 9.5t4 9.5t3 7q4 11 15 42.5t16 47.5q40 120 41 124q-2 6 -5 16t-5 15q-53 164 -53 165q-5 21 7 20q5 0 11 -21q2 -7 5 -15t6 -17t4 -13q4 -13 12.5 -38t15.5 -46.5t13 -41.5q4 12 20.5 65t26.5 79q1 4 3.5 12t3.5 12q5 23 13 24z" />
<glyph unicode="y" horiz-adv-x="221" d="M190 466q6 1 8.5 -2t2.5 -9.5t-1 -12.5t-2.5 -12.5t-1.5 -7.5q-6 -38 -17.5 -107t-18.5 -110q-9 -54 -36 -188q-37 -178 -40 -190q-10 -44 -16 -64q-1 -2 -2 -6t-1.5 -6.5t-2 -5t-3 -3.5t-4.5 -1q-11 1 -5 22l9 36q28 111 40 192q-6 30 -11.5 65t-12 79t-10.5 70 q-24 155 -35 208q0 2 -2 9.5t-3.5 14t-2.5 13.5t1 11.5t7 4.5q5 -1 8 -5.5t4 -9t2 -13t1 -10.5q3 -16 8.5 -48.5t8.5 -48.5q8 -47 23.5 -152t24.5 -153q8 37 21 114t20 110q12 55 29 180q0 2 1.5 12.5t3 17t5.5 6.5z" />
<glyph unicode="z" horiz-adv-x="173" d="M105 466q7 1 32 0t27 -4q1 -8 0.5 -11.5t-5 -16t-4.5 -13.5q-43 -138 -76 -242q-30 -97 -49 -164q24 -1 104 2q23 3 25 -3q7 -15 -34 -15h-80q-27 0 -30 5q-5 7 11 58q7 25 15.5 52.5t19 61t16.5 51.5l69 221q-33 3 -88 1q-9 -2 -16 -1t-7 8q0 6 13 8t34.5 2h22.5z" />
<glyph unicode="{" horiz-adv-x="173" d="M137 730q-1 -3 -4 -3.5t-9.5 0t-11.5 0.5q-26 -2 -38 -26.5t-10.5 -64t7 -78t13 -81t7.5 -60.5q0 -21 -3.5 -37.5t-14.5 -31.5t-14 -18.5t-16 -16.5q29 -19 38.5 -40t11.5 -59q0 -36 -5 -67.5t-14 -71.5t-13 -68q-18 -113 27 -125q11 -3 21 -1.5t17 1t8 -4.5 q3 -9 -10 -12t-28 -1q-42 3 -52.5 45t1.5 101q3 17 13 62t15.5 84.5t2.5 74.5q0 41 -39 67q-1 1 -6 3t-8 4.5t-3 5.5t3 6.5t7.5 7t6.5 5.5q40 42 38 84q-2 28 -15 112t-12 125q2 53 28 77q16 14 43 14q10 0 15 -3t3 -9z" />
<glyph unicode="|" horiz-adv-x="128" d="M65 737q5 0 8.5 -3.5t4 -10t0.5 -12t-0.5 -12.5t-0.5 -9v-56q-1 -122 -1 -332q0 -48 -2 -162t-1 -179q0 -9 1 -25t1.5 -28t0.5 -24t-3 -18.5t-9 -5.5q-4 0 -6 4t-2.5 11t-0.5 12.5t0.5 12.5t0.5 9q0 112 1 167q4 295 3 443v168q0 2 -0.5 9t-0.5 12.5t0.5 12t1.5 11t4 5.5 z" />
<glyph unicode="}" horiz-adv-x="188" d="M91 736q48 -14 51 -83q1 -28 -4.5 -68t-13.5 -83t-10 -60q-9 -67 19 -99q5 -6 14 -11.5t14.5 -9.5t5.5 -7q0 -5 -4.5 -11t-13 -12.5t-9.5 -7.5q-42 -45 -33 -125q2 -22 14.5 -79t14.5 -86q10 -95 -35 -122q-14 -8 -36 -8q-13 0 -21 3.5t-7 9.5t7 6t15 -2t21 1 q49 12 38 118q-3 25 -11 64t-12.5 63t-6 61.5t8.5 59.5q11 34 47 64q-53 34 -50 102q2 35 12.5 88t14.5 82q9 36 4.5 78.5t-33.5 54.5q-15 6 -30.5 7t-19 0t-6.5 4q0 13 25 13q15 0 30 -5z" />
<glyph unicode="~" horiz-adv-x="322" d="M95 318q26 0 67 -35.5t66 -35.5q34 0 43 39q1 3 1.5 8.5t1 8.5t2.5 5.5t5 2.5q6 0 8.5 -5t1.5 -13.5t-3 -16.5t-5 -14q-15 -33 -54 -33q-31 0 -72.5 35.5t-61.5 35.5q-42 0 -48 -45q-3 -20 -9 -20q-9 0 -6 26q3 25 20 41t43 16z" />
<glyph unicode="&#xa1;" horiz-adv-x="150" d="M61 514q-5 23 15 27q10 2 17.5 -4t7.5 -15q0 -11 -6.5 -17t-15.5 -6q-15 0 -18 15zM76 -178q-2 1 -3.5 3t-2 6t-0.5 7t0.5 8t0.5 8q1 45 0 145.5t-1 145.5q0 25 -1 131.5t2 128.5v3v9t1 7.5t3 6t6 1.5q9 -1 6 -27q-1 -42 -0.5 -131t0.5 -128q-2 -47 0 -141.5t2 -147.5v-7 v-8v-7.5t-1 -6.5t-2 -4.5t-3.5 -2t-6.5 0.5z" />
<glyph unicode="&#xa2;" horiz-adv-x="209" d="M118 688q3 0 5 -0.5t3.5 -2t2 -3t0.5 -5v-5.5v-6v-6l-1 -79q40 -10 45 -71q1 -10 0 -19.5t-4.5 -16.5t-9.5 -6q-8 1 -3 24q4 22 -7 47t-26 25q-27 0 -44 -46t-22.5 -98.5t-5.5 -110.5q0 -39 3 -73t10.5 -65.5t23 -46t36.5 -5.5q37 14 35 86l-1 11q-2 10 0 15.5t8 5.5 q8 1 10.5 -15.5t0.5 -33.5q-10 -82 -59 -88v-74v-8v-9.5t-0.5 -8t-2.5 -7t-5 -2.5q-6 0 -8.5 4.5t-2 16.5t0.5 14v75q-29 5 -45.5 48.5t-19.5 95t0 111.5q12 208 76 223l1 83q0 24 6 26z" />
<glyph unicode="&#xa3;" d="M252 32q10 -2 6 -11t-11 -14q-21 -16 -43 -16q-13 0 -41.5 9.5t-47.5 11.5q-12 1 -28.5 -5t-28 -10t-14.5 -1q-2 5 -1.5 8.5t4.5 10.5t4 8q40 129 35 319q-47 -6 -50 4q-1 6 3 9t13.5 4t15 1t17.5 -1q-2 36 -12.5 107t-9 113.5t21.5 73.5q24 34 65 33q37 -1 56 -34.5 t15 -81.5q-2 -21 -9.5 -41.5t-15.5 -20.5q-13 0 -1 28q14 32 5.5 74.5t-33.5 53.5q-18 8 -35.5 2.5t-27.5 -18.5q-20 -24 -22 -66.5t8.5 -116.5t12.5 -107l79 1q1 0 8.5 1t11 -0.5t4.5 -5.5q1 -5 -2 -7.5t-9.5 -3.5t-11.5 -1t-13 0.5t-11 0.5q-37 0 -55 -1q6 -178 -35 -323 q33 12 48 12t40 -8.5t38.5 -11t38.5 8.5q2 1 5 4.5t6 5.5t7 2z" />
<glyph unicode="&#xa4;" horiz-adv-x="411" d="M345 474q19 0 -1 -24q-5 -7 -26.5 -38t-33.5 -46q17 -11 29.5 -35.5t15.5 -47.5q7 -47 -9.5 -87t-47.5 -58q3 -5 17.5 -31.5t24.5 -39.5q1 -1 5 -6.5t6.5 -10t1.5 -7.5q-6 -16 -22 6q-13 19 -29.5 47.5t-19.5 32.5q-19 -10 -51.5 -11t-55.5 6q-2 -5 -10 -17t-19.5 -29.5 t-18.5 -28.5q-1 -1 -4.5 -8t-6.5 -11t-7 -4q-17 1 4 33q7 12 22.5 35.5t21.5 34.5q-73 47 -65 141q5 51 45 91q-8 11 -16 25t-17.5 33t-15.5 29q-7 9 -6 14.5t8 5.5q4 0 9 -6t9.5 -15.5t5.5 -11.5q3 -6 38 -62q75 37 140 4q7 8 27 33.5t28 35.5q2 2 6.5 10t9 13t8.5 5z M204 372q-40 -2 -65.5 -14.5t-41.5 -43.5q-20 -41 -13 -84t38 -71q24 -23 69 -25t70 15q25 15 39.5 50t10.5 75q-4 45 -31.5 72.5t-75.5 25.5z" />
<glyph unicode="&#xa5;" horiz-adv-x="301" d="M276 683q4 4 8.5 0.5t3.5 -7.5q-3 -12 -16 -46.5t-17 -48.5q-25 -77 -52 -147q-5 -13 -21.5 -56.5t-23.5 -63.5q0 -26 1 -28h65q41 3 42 -7q1 -7 -3 -8.5t-13 -1.5h-1.5h-1.5h-192q-23 0 -24 7q-1 10 36 10h73v28q-3 9 -22 63t-27 76q-3 9 -8.5 26t-8.5 25 q0 1 -25.5 71.5t-29.5 80.5q-10 19 1 26q3 2 6 0t5.5 -7t4.5 -10t3.5 -12t2.5 -9q7 -24 49.5 -142.5t57.5 -164.5q1 2 16 41t22 60q8 23 30 85t34 97q17 55 25 63zM78 200h111q50 0 63.5 -1.5t13.5 -7.5q0 -8 -26 -8q-8 0 -41.5 -1.5t-41.5 0.5q-1 -26 -1 -136v-8t0.5 -9 t0.5 -8.5t-0.5 -8.5t-1.5 -7t-3 -5t-4 -2q-10 0 -10 46q1 33 1 71.5v66.5q-20 1 -65 1h-9.5h-12t-10.5 0.5t-9 2t-3 4.5q0 4 2.5 6.5t8 3t10.5 1t14 0t13 -0.5z" />
<glyph unicode="&#xa6;" horiz-adv-x="129" d="M69 738q7 1 8.5 -4t1.5 -18v-4v-105q-1 -28 -1.5 -87.5t-2.5 -82.5q0 -3 0.5 -9.5t0.5 -10.5t-1 -8.5t-3.5 -6.5t-6.5 -2q-9 2 -5 47q1 106 1 229q0 2 -0.5 10.5t-1 16.5t0 16.5t2.5 13.5t7 5zM65 227q2 0 3.5 -0.5t2.5 -1.5t1.5 -2.5t1 -4t0.5 -5v-5.5v-6v-6.5v-6.5 q0 -31 0.5 -91.5t0.5 -110t-1 -89.5v-10t-0.5 -10t-1 -8t-3 -5t-6.5 -2q-3 0 -5 2.5t-2.5 7.5t-0.5 9t0.5 10t0.5 9l1 108v200q0 17 8 18z" />
<glyph unicode="&#xa7;" horiz-adv-x="303" d="M168 431l56 -140q2 -4 12.5 -29t12.5 -32t10 -29t8.5 -31t3 -28t-2 -29t-11 -23.5t-19 -23.5t-29.5 -18q30 -77 26 -125q-4 -44 -30.5 -67.5t-61.5 -23.5q-27 0 -49 14q-37 23 -46 77t19 86q12 12 21 1q3 -4 -0.5 -7.5t-10 -12t-9.5 -21.5q-7 -33 5 -62t31 -42t41 -13 q26 0 46 18t24 48q4 34 -4 64t-37 99q-60 138 -111 278q-26 75 -13 116q16 50 61 53q-8 22 -12.5 34.5t-10.5 32.5t-8 34t-2 31t4 32q7 23 26.5 38t41.5 15q25 0 42 -18q39 -41 19 -112v-1q-4 -13 -9 -13h-3q-7 2 -1 28q10 51 -15 84q-13 16 -33 16q-18 0 -33 -13t-20 -35 q-9 -41 29 -143q10 -29 42 -107zM202 65q31 15 44 40q17 37 -14 118q0 2 -0.5 3t-1 3t-1.5 3l-41 101q-8 20 -32.5 81t-37.5 95q-31 1 -44 -22t-11 -52q1 -42 77 -224q8 -20 62 -146z" />
<glyph unicode="&#xa8;" horiz-adv-x="238" d="M94 568q0 -19 -22 -19q-18 0 -18 20t22 20q18 0 18 -21zM163 589q10 0 16 -6t6 -15q0 -19 -20 -19q-19 0 -19 21q0 7 5 13t12 6z" />
<glyph unicode="&#xa9;" horiz-adv-x="532" d="M203 624q33 17 73 17q43 0 79 -21q89 -56 105 -199q8 -55 2.5 -130t-24.5 -126q-53 -140 -167 -140q-89 0 -141 68.5t-61 179.5q-11 140 33 239q36 79 101 112zM266 621q-69 -4 -114.5 -62.5t-59.5 -144.5q-16 -95 4 -195t81 -147q36 -28 89 -28t95.5 36t64.5 109 q13 43 17 114.5t-1 108.5q-11 93 -53.5 152.5t-122.5 56.5zM267 536q31 6 44.5 -13.5t11.5 -50.5q3 -23 -8 -23q-4 0 -6 1.5t-2.5 5t-1 6.5t0 7t0.5 6q1 25 -10 36.5t-31 5.5q-26 -7 -41 -54t-19 -99q-4 -75 6.5 -133t32.5 -71q32 -18 53 10q5 7 8 15.5t4 15.5t1.5 13.5 t0.5 11t1.5 7t5.5 2.5q8 -1 8.5 -21t-4.5 -32q-13 -40 -47 -46q-45 -7 -67 42q-19 40 -21 132q-3 68 12 130q23 88 68 96z" />
<glyph unicode="&#xaa;" horiz-adv-x="209" d="M108 687q13 0 22.5 -4.5t14 -15.5t7 -20.5t2 -27.5t-1 -26.5t-2.5 -27.5q-1 -7 -1 -10q-12 -109 0 -177q0 -1 1 -5t1.5 -7t0.5 -6.5t-2 -5.5t-6 -2q-3 0 -4.5 1.5t-2.5 4.5t-1.5 5.5t-1.5 7t-1 6.5q-2 9 -2.5 24t-1 32t-0.5 23q-2 -5 -10.5 -29.5t-12.5 -33.5 q-16 -38 -30 -41q-13 -4 -19.5 7t-9.5 28q-6 39 1 82t19 65q24 43 65 29q0 2 2.5 20.5t2.5 27v23t-4.5 22.5t-11.5 11q-11 5 -21 0.5t-12 -13.5t-0.5 -15.5t1.5 -11t-4 -5.5q-8 -2 -11.5 5.5t-3.5 20.5q1 18 11 28.5t27 10.5zM94 543q-18 -13 -27.5 -61t-3.5 -88 q3 -22 9 -24q5 -1 14 17t16.5 36.5t10.5 29.5q17 42 17 86q0 8 -13 9.5t-23 -5.5zM76 300h63q27 0 27 -10q0 -8 -44 -8l-67 -1q-23 0 -24 9q-1 10 45 10z" />
<glyph unicode="&#xab;" horiz-adv-x="291" d="M146 418q4 1 6.5 -1.5t2.5 -5.5t-7 -16t-18 -30.5t-13 -21.5q-6 -11 -20.5 -35t-25 -41.5t-10.5 -18.5q0 -2 18 -34q13 -24 36 -62.5t29 -50.5q0 -1 2.5 -4.5t4 -7l3 -7t1 -6.5t-3.5 -4q-2 -1 -4.5 0t-5.5 4t-6 6.5t-7.5 10.5t-8.5 14t-10.5 18t-12 21.5t-14 25.5 t-16.5 29q-24 45 -24 47t13 23.5t34 57t34 58.5q16 28 23 31zM229 418q3 1 5 -0.5t2 -5t-3 -10.5q-4 -7 -17 -30t-16 -28q-6 -11 -20 -35t-25 -43l-11 -18q0 -4 18 -36q9 -16 33 -54.5t34.5 -59.5t4.5 -25q-8 -6 -15 8q-16 28 -42 72.5t-39 67t-13 27.5q0 2 11.5 21.5 t26.5 44t20 33.5q3 5 8 14q30 53 38 57z" />
<glyph unicode="&#xac;" horiz-adv-x="330" d="M149 301h82q3 0 14 0.5t19.5 0.5t17 -1t10.5 -4t2 -40v-61q0 -2 0.5 -7.5t0.5 -9t-0.5 -7.5t-2.5 -6t-5 -2q-2 0 -4 0.5t-3 2l-2 3t-1 4.5v4.5v4.5v4q1 29 -1 98q-87 -3 -215 -3q-39 0 -41 3q-6 7 3 10.5t23 3.5q70 2 103 2z" />
<glyph unicode="&#xad;" horiz-adv-x="158" d="M61 270h55h6h6h5t4.5 -0.5t3 -1.5t2 -2.5t0.5 -3.5q0 -8 -44 -8l-59 -1q-23 0 -24 9q-1 8 45 8z" />
<glyph unicode="&#xae;" horiz-adv-x="384" d="M178 743q62 8 100 -38q27 -33 41 -94t3 -128q-14 -78 -61 -104q-30 -19 -68 -19q-25 0 -44 9q-50 24 -71.5 77t-19.5 119q3 79 34 124q17 25 36 37.5t50 16.5zM179 726q-36 -3 -60 -30t-33 -58.5t-11 -66.5q-5 -100 39 -155q30 -38 80 -38q43 0 72 26q44 40 44 141 q0 70 -31 128q-32 59 -100 53zM172 689q26 0 43.5 -16t20.5 -43q7 -63 -38 -73q14 -16 26 -62.5t20 -57.5q10 0 12 -2q5 -7 -0.5 -11.5t-14.5 -2.5q-13 3 -23 32q-2 6 -7.5 29.5t-12.5 42t-16 28.5h-11l-1 -113q2 -20 -8 -20q-6 0 -8 7.5t-1.5 21t0.5 15.5q2 96 1 151 q-4 60 1 71q1 3 17 3zM170 671q0 -10 1 -50t0 -51q56 -4 49 57q-6 46 -50 44z" />
<glyph unicode="&#xaf;" horiz-adv-x="229" d="M84 563q8 0 36 -0.5t52 -0.5q23 0 23 -9q0 -3 -3.5 -5t-9 -2.5t-10.5 -0.5t-11.5 0.5t-9.5 0.5h-90q-24 0 -24 9q0 3 3.5 5t10 3t11.5 1t12.5 -0.5t9.5 -0.5z" />
<glyph unicode="&#xb0;" horiz-adv-x="187" d="M92 741q30 3 45 -20.5t15 -66.5q0 -52 -23 -77q-15 -17 -35 -17q-24 0 -41 25q-19 35 -17 68.5t14 56.5q15 28 42 31zM78 717q-22 -18 -23 -64t18 -64q19 -19 39 -3q23 19 23 68q0 46 -18 62q-19 17 -39 1z" />
<glyph unicode="&#xb1;" horiz-adv-x="344" d="M160 271h-90q-41 0 -45 6t0 10t10 3q11 -1 125 -1q0 13 0.5 44t0.5 54v8t-0.5 9t0 9t1 8t2.5 5.5t5 2.5q4 1 6.5 -1t3.5 -6.5t1 -8.5t-0.5 -10t-0.5 -8q0 -11 -0.5 -30t-0.5 -28v-48h132q5 0 8.5 -4t0.5 -10q-2 -4 -45 -4h-96q0 -21 -0.5 -59t-0.5 -67q0 -22 -5 -23 q-5 -2 -8 0.5t-3.5 8.5t-1 11.5t0 14t0.5 10.5v104zM150 19l144 -2q28 0 28 -9q-1 -5 -10 -6.5t-24 -1t-18 0.5h-178q-4 0 -15 -0.5t-19 -0.5t-16.5 0.5t-13.5 2.5t-5 5q0 10 56 10q15 0 38 0.5t33 0.5z" />
<glyph unicode="&#xb2;" horiz-adv-x="202" d="M152 667q-4 -27 -15 -60q-39 -117 -88 -213q21 7 49 -1.5t34 -6.5q7 2 16.5 9.5t15.5 4.5q7 -4 -0.5 -14.5t-19.5 -15.5q-14 -5 -43 4t-48 5q-2 0 -11 -5.5t-13 -3.5q-3 1 -4.5 4t-0.5 6.5t2.5 6.5t4 6.5t2.5 4.5q37 70 81 192q19 51 21 85q2 22 -5 37.5t-27 13.5 q-27 -3 -32 -35q-2 -8 -0.5 -16t0.5 -15t-6 -8q-8 -2 -11.5 6.5t-1.5 20.5q3 40 28 58q11 8 27 8q23 0 36.5 -21.5t8.5 -56.5z" />
<glyph unicode="&#xb3;" horiz-adv-x="226" d="M87 733q78 6 88 -3q7 -7 -5 -31q-10 -20 -34.5 -65.5t-28.5 -53.5q42 -15 60 -48.5t15 -72.5q-2 -44 -24 -72q-23 -28 -61 -28q-25 0 -41 11q-27 18 -17 27q2 2 6 3t7.5 -2t9 -8.5t11.5 -8.5q10 -5 22 -5q26 0 44 17q22 20 25.5 64.5t-15.5 70.5q-12 16 -27 25 t-24.5 12.5t-9.5 7.5t14.5 33.5t34 65.5t23.5 45q-19 2 -63 0q-2 0 -8.5 -0.5t-11.5 -0.5t-10.5 0.5t-9 2.5t-4.5 5q-1 6 2.5 8t15.5 1.5t16 -0.5z" />
<glyph unicode="&#xb4;" horiz-adv-x="156" d="M125 679q2 -2 2.5 -4t-1 -5l-2.5 -5t-4 -6.5t-4 -6.5q-12 -17 -38.5 -55.5t-27.5 -39.5q-14 -19 -19 -15q-6 4 15 36l42 64q1 1 8.5 12t10.5 16q10 17 18 9z" />
<glyph unicode="&#xb5;" horiz-adv-x="266" d="M205 466q9 0 9 -42v-82v-125v-77.5v-42v-41.5q0 -38 6 -41t12 3.5t11 14.5t8 8q14 -1 5 -19q-14 -26 -36 -25q-6 0 -10 2t-6.5 6t-4 8t-2.5 11t-1 11.5v13v13.5q-1 28 1 76t2 75q-43 -216 -88 -220q-19 -3 -30 16t-17 47q0 -12 3 -289q0 -27 -10 -27q-3 0 -5 2t-2.5 7 t-0.5 8.5v10v8.5q-1 25 0 81.5t0 81.5q-2 118 -2 175q1 35 0 94t-1 81v48v58.5v48.5q0 7 1 11t2.5 7.5t4 3t6.5 -2.5q2 -1 3 -8t1 -19.5v-25t-0.5 -31.5t-0.5 -32q0 -3 -0.5 -42t0 -62t1.5 -59.5t4 -65.5t8 -49q13 -58 32 -58q26 0 62 146q18 78 26 125q0 2 0.5 71t-0.5 81 q0 32 9 32z" />
<glyph unicode="&#xb6;" horiz-adv-x="311" d="M167 681q2 -1 2 -72.5t-1 -102.5q-1 -12 -0.5 -79t0.5 -79l1 -28q1 -28 0 -43.5t-6 -15.5q-32 0 -63 38q-39 41 -48.5 131.5t11.5 152.5q13 45 43.5 75.5t60.5 22.5zM202 683h40q32 3 35 -6q-1 -4 0 -6.5t-3.5 -3.5t-6.5 -1.5t-8 0t-8 0.5q-16 -1 -34 -1q-2 -27 -1.5 -78 t-0.5 -78q-4 -37 1 -136q1 -37 1 -106t-1 -90q0 -21 0.5 -95t-0.5 -89q0 -50 -4 -54q-3 -3 -12 -3t-20.5 0.5t-16.5 0.5q-27 0 -30 5q-1 5 0.5 7.5t6.5 3.5t9.5 1t11.5 0.5t11 0.5t9 -0.5t8.5 0t6.5 2.5q5 5 2 38q0 41 0.5 146t-0.5 147q-2 158 0 312q1 11 0 29t-0.5 36 t4.5 18z" />
<glyph unicode="&#xb7;" horiz-adv-x="102" d="M51 313q22 0 22 -23q0 -11 -7.5 -18.5t-20.5 -5.5q-21 5 -17 30q5 17 23 17z" />
<glyph unicode="&#xb8;" horiz-adv-x="167" d="M97 3l18 -3q-21 -43 -21 -51q2 -3 9.5 -15t9.5 -15.5t7.5 -14t7.5 -15.5t5.5 -13.5t4.5 -15.5t1 -14q0 -25 -13.5 -39t-32.5 -14q-18 0 -32 12q-11 10 -17 27q-2 6 -3 13t-1 14.5t3.5 11.5t9.5 2q4 -1 4.5 -4.5t0 -9t-0.5 -8.5q4 -34 27 -39q21 -4 31 10.5t6 37.5 q-3 21 -44 83q-1 2 -1.5 4t0 5t1.5 5.5t3.5 8t4.5 10t5.5 12.5t6.5 15z" />
<glyph unicode="&#xb9;" horiz-adv-x="187" d="M113 743q10 -5 8 -42q-1 -14 -1 -152q-5 -125 -5 -166q3 0 10.5 -0.5t14 -0.5t13.5 -0.5t10.5 -3t2.5 -6.5q-2 -9 -43 -5q-4 0 -27 -1t-37 -0.5t-15 3.5q-1 5 0.5 7.5t7 3.5t11.5 1.5t16 0.5t18 1q1 18 3.5 153t4.5 175q-8 -8 -29.5 -35.5t-27.5 -34.5q-14 -17 -18 -16 q-5 1 -7 5.5t2 9.5q42 51 49 60q2 3 7.5 10.5t9 12.5t8.5 10.5t8.5 8t5.5 1.5z" />
<glyph unicode="&#xba;" horiz-adv-x="199" d="M103 687q12 0 21 -5.5t13.5 -11t8 -18.5t4.5 -18.5t3 -20.5q9 -74 0 -163q-6 -79 -30 -95q-9 -7 -25 -7t-26 10q-22 22 -27 113q-4 67 7 137q12 79 51 79zM102 670q-18 0 -28 -42q-13 -46 -11 -142q2 -120 37 -120q29 0 36 86q11 117 -4 187q-8 31 -30 31zM76 298h63h6h6 h5t4.5 -0.5t3 -1.5t2 -2.5t0.5 -3.5q0 -4 -2.5 -6t-7.5 -2.5t-9.5 -1t-11 0t-8.5 0.5l-72 1q-2 0 -7 -0.5t-8 -0.5t-6 2t-3 7q0 4 3 6t9 2.5t11.5 0.5t12.5 -0.5t9 -0.5z" />
<glyph unicode="&#xbb;" horiz-adv-x="290" d="M140 418q2 0 3.5 1t4.5 -2l5 -5t5 -6.5l5 -7.5t5 -8.5t4 -8t3.5 -7.5t3.5 -6l46 -79q23 -43 23 -47q0 -3 -11.5 -22t-26.5 -43.5t-20 -33.5q-13 -25 -40 -65q-4 -5 -7.5 -5.5t-6 2t-1.5 5.5q0 4 7 15t17 27.5t14 24.5q5 10 20 34t25.5 41.5t10.5 19.5q0 4 -16.5 33.5 t-39 68t-26.5 45.5q-12 25 -7 29zM57 416q3 4 7.5 1t7.5 -8l23 -41q9 -16 27 -47t27 -47q16 -27 16 -32q0 -7 -26 -46q-7 -12 -18.5 -31.5t-19.5 -34t-17 -28.5t-14.5 -22t-8.5 -8q-3 -1 -4.5 1.5t-1.5 6t2 8.5q4 7 17 30t16 28l7.5 12.5t9.5 16.5t11 18.5t11 18.5t9 15.5 t6 10.5l3 4q0 5 -57 100q-38 64 -33 74z" />
<glyph unicode="&#xbc;" horiz-adv-x="383" d="M358 686q5 0 6 -4.5t-1 -12t-4 -13t-4 -10.5q-9 -20 -44 -96t-66.5 -143.5t-32.5 -71.5l-31 -69q-12 -27 -33 -74t-25 -56q-17 -43 -52 -115q-1 -2 -5 -13t-8 -17t-8 -5q-6 0 -7 6.5t3 11.5q15 33 68 156t82 182q28 56 71.5 151.5t53.5 117.5q5 11 13.5 32.5t14 32 t9.5 10.5zM110 683q4 1 6.5 -1.5t3.5 -6t1 -8.5v-10v-10q0 -3 -0.5 -14t-0.5 -34.5v-56.5v-42.5v-55.5v-42h9t9 0.5t6.5 -1.5t2.5 -7q0 -6 -8 -7.5t-23 -0.5t-22 0q-20 -2 -20 7q0 7 3.5 8.5t12 0.5t12.5 0q-1 40 0.5 127t1.5 115q-14 -19 -26.5 -37t-18 -25.5t-8.5 -10.5 q-4 -5 -11 -6.5t-9 5.5q0 4 1 6.5t4 5t4 3.5q15 18 49 68q1 2 5.5 10t8 13.5t7.5 6.5zM290 300q5 4 10 2t6 -8q3 -24 2.5 -50.5t-1.5 -72t-1 -62.5h15t17 -1t5 -5q-1 -5 -5 -7.5t-8 -3.5t-12 -1.5t-11 -0.5q-4 -55 -3 -75q0 -20 -4 -22q-13 -7 -14 14v24q0 13 0.5 30.5 t0.5 28.5h-58h-8h-9t-7 0.5t-6 2.5t-3 5t1 9.5t6.5 15t5.5 9.5l39 85q41 82 42 83zM292 274q-11 -27 -39 -89.5t-36 -75.5q39 -4 71 0q4 161 4 165z" />
<glyph unicode="&#xbd;" horiz-adv-x="383" d="M362 686q5 0 6 -4.5t-1 -12t-4 -13t-4 -10.5q-9 -20 -44 -96t-66.5 -143.5t-32.5 -71.5l-31 -69q-12 -27 -33 -74t-25 -56q-17 -43 -52 -115q-1 -2 -5 -13t-8 -17t-8 -5q-6 0 -7 6.5t3 11.5q15 33 68 156t82 182q28 56 71.5 151.5t53.5 117.5q5 11 13.5 32.5t14 32 t9.5 10.5zM110 683q4 1 6.5 -1.5t3.5 -6t1 -8.5v-10v-10q0 -3 -0.5 -12.5t-0.5 -33v-59.5q-2 -70 0 -140q4 -1 17 0t21.5 -0.5t8.5 -7.5q0 -4 -5.5 -6t-15 -2.5t-18 -0.5t-19.5 0.5t-15 0.5q-45 0 -45 7q0 6 10.5 8t22.5 1t20 0q-1 40 0.5 127t1.5 115q-30 -50 -53 -73 q-4 -4 -10.5 -6t-9.5 5q0 4 1 6.5t4 5t4 3.5q34 40 49 68q17 29 21 30zM310 295q17 -8 21 -31t-1 -46.5t-15 -46.5q-17 -38 -47 -89.5t-32 -55.5q17 6 43 -2.5t35 -8.5q10 0 16 8t10 8q16 0 5 -18q-4 -7 -10 -10q-12 -6 -23 -6t-35.5 8.5t-36.5 5.5q-2 -1 -7 -4t-9.5 -4.5 t-7.5 -0.5q-11 5 4 28q13 26 35.5 64t34.5 62q29 55 26 97q-3 32 -30 28q-23 -3 -28 -36q-2 -8 -0.5 -16t0.5 -15t-6 -8q-8 -2 -11.5 6.5t-1.5 20.5q4 44 29 60q21 13 42 2z" />
<glyph unicode="&#xbe;" horiz-adv-x="395" d="M360 686q5 0 6 -4.5t-1 -12t-4 -13t-4 -10.5q-9 -20 -44 -96t-66.5 -143.5t-32.5 -71.5l-31 -69q-12 -27 -33 -74t-25 -56q-17 -43 -52 -115q-1 -2 -5 -13t-8 -17t-8 -5q-6 0 -7 6.5t3 11.5q15 33 68 156t82 182q28 56 71.5 151.5t53.5 117.5q5 11 13.5 32.5t14 32 t9.5 10.5zM78 676q66 0 70 -5q4 -7 -5 -28q-7 -16 -21.5 -40t-20.5 -37q35 -12 47.5 -47t5 -70.5t-26.5 -54.5q-15 -15 -38 -19t-48 11q-5 4 -8.5 10.5t-2.5 12t7 5.5q4 0 7 -2t6 -6t5 -6q21 -18 53 2q22 13 27.5 52.5t-11.5 70.5q-6 11 -17 17t-18.5 8.5t-7.5 6.5 q0 7 14 35q32 56 35 65q-21 4 -45 2q-29 0 -30 7v4t1.5 3l3 2t4.5 1h4.5h5h4.5zM302 300q5 4 10 2t6 -8q3 -24 2.5 -50.5t-1.5 -72t-1 -62.5h15t17 -1t5 -5q-1 -5 -5 -7.5t-8 -3.5t-12 -1.5t-11 -0.5q-4 -55 -3 -75q0 -20 -4 -22q-4 -1 -6.5 -1.5t-4 2.5t-2 5.5t-1 7 t-0.5 8.5v8.5v7.5q0 13 0.5 30.5t0.5 28.5h-58h-8h-9t-7 0.5t-6 2.5t-3 5t1 9.5t6.5 15t5.5 9.5l39 85q41 82 42 83zM304 274q-10 -25 -38 -87t-37 -78q39 -4 71 0q4 161 4 165z" />
<glyph unicode="&#xbf;" horiz-adv-x="217" d="M145 506q-3 -15 -18 -15q-9 0 -15.5 6t-6.5 17q0 9 7.5 15t17.5 4q20 -4 15 -27zM71 -185q-19 12 -27 33q-21 52 -3 132q5 27 15.5 53t25.5 60t24 57q10 27 12.5 70.5t-0.5 169.5q0 22 8 22q7 1 8.5 -4.5t1.5 -18.5q-1 -14 0.5 -57.5t1.5 -67.5q0 -91 -24 -144 q-37 -83 -47 -111q-9 -24 -13.5 -56.5t0 -68t22.5 -51.5q11 -12 32.5 -11.5t36.5 16.5q13 15 16.5 39t-10.5 57q-2 4 -6.5 8t-6.5 7t-2 6q1 5 6.5 6.5t9.5 -1.5q29 -26 27 -75.5t-33 -69.5q-17 -11 -38.5 -10.5t-36.5 10.5z" />
<glyph unicode="&#xc0;" d="M78 776q-15 11 -15 17q0 10 9 10q5 0 30 -25q11 -11 53 -47q16 -16 10 -21q-4 -3 -33 20q-4 3 -23.5 20.5t-30.5 25.5zM256 23l1 -7q1 -6 0 -10.5t-5 -5.5q-3 -1 -5 0t-3.5 3t-2.5 4.5t-2 6t-1.5 6t-1 6.5t-0.5 6q-2 11 -10.5 55.5t-17.5 96.5t-17 96q-42 -8 -113 -3 q-18 -84 -25 -140q-9 -64 -20 -113q0 -2 -1 -6.5t-1.5 -7t-1.5 -6t-3.5 -5t-5.5 -1.5q-5 0 -7 2.5t-1.5 8t1 9t2.5 10.5l2 6q5 26 13.5 75.5t17.5 99.5t10 55q9 53 26 172q27 160 37 211q8 39 16 39q4 0 6.5 -2t3.5 -5.5l2 -7t1.5 -9t1.5 -8.5q7 -35 12.5 -70.5t11.5 -79 t9 -62.5q16 -116 28 -190q13 -84 28 -160q2 -11 8 -37t7 -32zM80 295q48 -8 109 2q-3 23 -21.5 150t-29.5 192q-13 -47 -27 -140q-23 -153 -31 -204z" />
<glyph unicode="&#xc1;" d="M111 710q-6 5 10 21q42 36 53 47q25 25 30 25q9 0 9 -10q0 -6 -15 -17q-11 -8 -30.5 -25.5t-23.5 -20.5q-29 -23 -33 -20zM256 23l1 -7q1 -6 0 -10.5t-5 -5.5q-3 -1 -5 0t-3.5 3t-2.5 4.5t-2 6t-1.5 6t-1 6.5t-0.5 6q-2 11 -10.5 55.5t-17.5 96.5t-17 96q-42 -8 -113 -3 q-18 -84 -25 -140q-9 -64 -20 -113q0 -2 -1 -6.5t-1.5 -7t-1.5 -6t-3.5 -5t-5.5 -1.5q-5 0 -7 2.5t-1.5 8t1 9t2.5 10.5l2 6q5 26 13.5 75.5t17.5 99.5t10 55q9 53 26 172q27 160 37 211q8 39 16 39q4 0 6.5 -2t3.5 -5.5l2 -7t1.5 -9t1.5 -8.5q7 -35 12.5 -70.5t11.5 -79 t9 -62.5q16 -116 28 -190q13 -84 28 -160q2 -11 8 -37t7 -32zM80 295q48 -8 109 2q-3 23 -21.5 150t-29.5 192q-13 -47 -27 -140q-23 -153 -31 -204z" />
<glyph unicode="&#xc2;" d="M64 695q-12 -13 -19 -6q-2 3 -1.5 5.5t3.5 6.5t6 6.5t6.5 5.5t4.5 4q25 24 47 40q21 16 24 16q5 0 30 -20q32 -26 55 -46q15 -13 6 -19q-5 -4 -29 17q-50 44 -61 49q-14 -7 -36 -26q-21 -18 -36 -33zM256 23l1 -7q1 -6 0 -10.5t-5 -5.5q-3 -1 -5 0t-3.5 3t-2.5 4.5t-2 6 t-1.5 6t-1 6.5t-0.5 6q-2 11 -10.5 55.5t-17.5 96.5t-17 96q-42 -8 -113 -3q-18 -84 -25 -140q-9 -64 -20 -113q0 -2 -1 -6.5t-1.5 -7t-1.5 -6t-3.5 -5t-5.5 -1.5q-5 0 -7 2.5t-1.5 8t1 9t2.5 10.5l2 6q5 26 13.5 75.5t17.5 99.5t10 55q9 53 26 172q27 160 37 211 q8 39 16 39q4 0 6.5 -2t3.5 -5.5l2 -7t1.5 -9t1.5 -8.5q7 -35 12.5 -70.5t11.5 -79t9 -62.5q16 -116 28 -190q13 -84 28 -160q2 -11 8 -37t7 -32zM80 295q48 -8 109 2q-3 23 -21.5 150t-29.5 192q-13 -47 -27 -140q-23 -153 -31 -204z" />
<glyph unicode="&#xc3;" d="M73 712q-8 0 -7 12q0 2 1 12.5t2 15t2.5 14t4 14.5t6 11t9 8.5t12.5 2.5q13 0 26 -19.5t24 -38.5t19 -18q21 3 21 71q0 8 8 8t7 -13q-1 -19 -1.5 -27.5t-4 -24.5t-11.5 -23.5t-21 -7.5q-17 -1 -38.5 37.5t-28.5 38.5q-19 0 -21 -62q0 -11 -9 -11zM256 23l1 -7 q1 -6 0 -10.5t-5 -5.5q-3 -1 -5 0t-3.5 3t-2.5 4.5t-2 6t-1.5 6t-1 6.5t-0.5 6q-2 11 -10.5 55.5t-17.5 96.5t-17 96q-42 -8 -113 -3q-18 -84 -25 -140q-9 -64 -20 -113q0 -2 -1 -6.5t-1.5 -7t-1.5 -6t-3.5 -5t-5.5 -1.5q-5 0 -7 2.5t-1.5 8t1 9t2.5 10.5l2 6 q5 26 13.5 75.5t17.5 99.5t10 55q9 53 26 172q27 160 37 211q8 39 16 39q4 0 6.5 -2t3.5 -5.5l2 -7t1.5 -9t1.5 -8.5q7 -35 12.5 -70.5t11.5 -79t9 -62.5q16 -116 28 -190q13 -84 28 -160q2 -11 8 -37t7 -32zM80 295q48 -8 109 2q-3 23 -21.5 150t-29.5 192 q-13 -47 -27 -140q-23 -153 -31 -204z" />
<glyph unicode="&#xc4;" d="M89 712q-18 0 -18 20t22 20q18 0 18 -21q0 -19 -22 -19zM182 712q-19 0 -19 21q0 7 5 13t12 6q10 0 16 -6t6 -15q0 -19 -20 -19zM256 23l1 -7q1 -6 0 -10.5t-5 -5.5q-3 -1 -5 0t-3.5 3t-2.5 4.5t-2 6t-1.5 6t-1 6.5t-0.5 6q-2 11 -10.5 55.5t-17.5 96.5t-17 96 q-42 -8 -113 -3q-18 -84 -25 -140q-9 -64 -20 -113q0 -2 -1 -6.5t-1.5 -7t-1.5 -6t-3.5 -5t-5.5 -1.5q-5 0 -7 2.5t-1.5 8t1 9t2.5 10.5l2 6q5 26 13.5 75.5t17.5 99.5t10 55q9 53 26 172q27 160 37 211q8 39 16 39q4 0 6.5 -2t3.5 -5.5l2 -7t1.5 -9t1.5 -8.5 q7 -35 12.5 -70.5t11.5 -79t9 -62.5q16 -116 28 -190q13 -84 28 -160q2 -11 8 -37t7 -32zM80 295q48 -8 109 2q-3 23 -21.5 150t-29.5 192q-13 -47 -27 -140q-23 -153 -31 -204z" />
<glyph unicode="&#xc5;" d="M136 703q-18 0 -29 16.5t-11 41.5q0 20 13 36t30 16q41 0 41 -54q0 -56 -44 -56zM127 793q-13 -10 -15 -28.5t6 -32.5q7 -13 21 -13q11 0 17 9q9 14 8 34t-10 29q-6 6 -15 6q-6 0 -12 -4zM256 23l1 -7q1 -6 0 -10.5t-5 -5.5q-3 -1 -5 0t-3.5 3t-2.5 4.5t-2 6t-1.5 6 t-1 6.5t-0.5 6q-2 11 -10.5 55.5t-17.5 96.5t-17 96q-42 -8 -113 -3q-18 -84 -25 -140q-9 -64 -20 -113q0 -2 -1 -6.5t-1.5 -7t-1.5 -6t-3.5 -5t-5.5 -1.5q-5 0 -7 2.5t-1.5 8t1 9t2.5 10.5l2 6q5 26 13.5 75.5t17.5 99.5t10 55q9 53 26 172q27 160 37 211q8 39 16 39 q4 0 6.5 -2t3.5 -5.5l2 -7t1.5 -9t1.5 -8.5q7 -35 12.5 -70.5t11.5 -79t9 -62.5q16 -116 28 -190q13 -84 28 -160q2 -11 8 -37t7 -32zM80 295q48 -8 109 2q-3 23 -21.5 150t-29.5 192q-13 -47 -27 -140q-23 -153 -31 -204z" />
<glyph unicode="&#xc6;" horiz-adv-x="367" d="M343 664q-97 3 -118 2q-3 -62 -5 -225h93h4h9.5t5.5 -2.5t3 -6.5q0 -9 -23 -9q-61 0 -92 -1q0 -28 -2 -114t-2 -97q-4 -155 -4 -193q34 -1 116 1q30 0 31 -10q0 -9 -35 -9h-89q-39 0 -41 3t-2 37q0 31 7 240h-106q-27 -81 -40 -124l-42 -132q-1 -2 -2 -5t-1.5 -5 t-1.5 -4.5t-2.5 -4.5t-3 -3.5t-3.5 -2.5t-5 -1q-8 0 -5 17q5 19 23 73l25 75q33 103 66 204l42 131q7 21 21 67t22 70q0 1 2 6t2.5 7t2 6.5t3 7t3.5 6t4 5.5l4 4t5 3.5t6 1.5q10 1 22.5 1t28 -0.5t23.5 -0.5q69 0 72 -4q5 -7 -2 -10.5t-19 -3.5zM206 641q-9 -29 -52 -168.5 t-55 -175.5l100 1q7 327 7 343z" />
<glyph unicode="&#xc7;" horiz-adv-x="214" d="M192 114q5 1 7.5 -1t2.5 -6.5v-8.5t-1 -10.5t-1 -7.5q-10 -75 -55 -86q-20 -43 -20 -49q2 -3 9.5 -15t9.5 -15.5t7.5 -14t7.5 -15.5t5.5 -13.5t4.5 -15.5t1 -14q0 -25 -13.5 -39t-32.5 -14q-18 0 -32 12q-11 10 -17 27q-2 6 -3 13t-1 14.5t3.5 11.5t9.5 2q4 -1 4.5 -4.5 t0 -9t-0.5 -8.5q4 -34 27 -39q21 -4 31 10.5t6 37.5q-3 21 -44 83q-1 2 -1.5 3.5t0 4.5t1.5 5.5t2.5 7t3.5 8.5t5 11t6 13q-25 3 -41 23q-47 59 -47 277q0 234 42 337q14 33 29 46t37 13q47 0 55 -75q3 -11 2 -25t-8 -13q-5 0 -8 8t-4 24t-1 17q-3 24 -11.5 36.5t-26.5 11.5 q-37 0 -59 -82q-20 -77 -27.5 -205t2.5 -217q9 -105 39 -140q7 -10 18.5 -15.5t23.5 -1.5q31 9 43 72q0 2 1.5 11t3 14t4.5 6z" />
<glyph unicode="&#xc8;" horiz-adv-x="216" d="M65 803q5 0 30 -25q11 -11 53 -47q16 -16 10 -21q-4 -3 -33 20q-4 3 -23.5 20.5t-30.5 25.5q-15 11 -15 17q0 10 9 10zM177 682q4 0 10.5 0.5t10 0t8 -1t6 -2.5t1.5 -6q0 -2 -1 -3.5t-2 -2.5t-3.5 -1h-4h-5h-5.5q-104 0 -129 -4q2 -35 1 -103t1 -102q35 3 99 1 q17 -4 18 -8q0 -4 -4.5 -6.5t-12.5 -3t-15 -0.5t-16 0.5t-11 0.5q-22 1 -57 -1q3 -28 2 -136t-1 -133q0 -13 -1.5 -67t-0.5 -89q84 0 118 1q30 0 32 -8q1 -3 0 -4.5t-4 -2.5t-5.5 -1h-7.5q-63 0 -89 -1q-55 -3 -58 2q-1 3 -1.5 58t0.5 94v257q0 25 -0.5 69t-1 81.5 t-1.5 71.5q0 41 1 42q3 4 57 8h72z" />
<glyph unicode="&#xc9;" horiz-adv-x="216" d="M197 803q9 0 9 -10q0 -6 -15 -17q-11 -8 -30.5 -25.5t-23.5 -20.5q-29 -23 -33 -20q-6 5 10 21q42 36 53 47q25 25 30 25zM177 682q4 0 10.5 0.5t10 0t8 -1t6 -2.5t1.5 -6q0 -2 -1 -3.5t-2 -2.5t-3.5 -1h-4h-5h-5.5q-104 0 -129 -4q2 -35 1 -103t1 -102q35 3 99 1 q17 -4 18 -8q0 -4 -4.5 -6.5t-12.5 -3t-15 -0.5t-16 0.5t-11 0.5q-22 1 -57 -1q3 -28 2 -136t-1 -133q0 -13 -1.5 -67t-0.5 -89q84 0 118 1q30 0 32 -8q1 -3 0 -4.5t-4 -2.5t-5.5 -1h-7.5q-63 0 -89 -1q-55 -3 -58 2q-1 3 -1.5 58t0.5 94v257q0 25 -0.5 69t-1 81.5 t-1.5 71.5q0 41 1 42q3 4 57 8h72z" />
<glyph unicode="&#xca;" horiz-adv-x="216" d="M128 795q5 0 30 -20q32 -25 55 -46q15 -13 6 -19q-5 -4 -29 17q-50 44 -61 49q-14 -7 -36 -26q-21 -18 -36 -33q-13 -13 -19 -6q-2 3 -1.5 5.5t3.5 6.5t6 6.5t6.5 5.5t4.5 4q25 24 47 40q21 16 24 16zM177 682q4 0 10.5 0.5t10 0t8 -1t6 -2.5t1.5 -6q0 -2 -1 -3.5 t-2 -2.5t-3.5 -1h-4h-5h-5.5q-104 0 -129 -4q2 -35 1 -103t1 -102q35 3 99 1q17 -4 18 -8q0 -4 -4.5 -6.5t-12.5 -3t-15 -0.5t-16 0.5t-11 0.5q-22 1 -57 -1q3 -28 2 -136t-1 -133q0 -13 -1.5 -67t-0.5 -89q84 0 118 1q30 0 32 -8q1 -3 0 -4.5t-4 -2.5t-5.5 -1h-7.5 q-63 0 -89 -1q-55 -3 -58 2q-1 3 -1.5 58t0.5 94v257q0 25 -0.5 69t-1 81.5t-1.5 71.5q0 41 1 42q3 4 57 8h72z" />
<glyph unicode="&#xcb;" horiz-adv-x="216" d="M104 746q0 -19 -22 -19q-18 0 -18 20t22 20q18 0 18 -21zM173 767q10 0 16 -6t6 -15q0 -19 -20 -19q-19 0 -19 21q0 7 5 13t12 6zM177 682q4 0 10.5 0.5t10 0t8 -1t6 -2.5t1.5 -6q0 -2 -1 -3.5t-2 -2.5t-3.5 -1h-4h-5h-5.5q-104 0 -129 -4q2 -35 1 -103t1 -102q35 3 99 1 q17 -4 18 -8q0 -4 -4.5 -6.5t-12.5 -3t-15 -0.5t-16 0.5t-11 0.5q-22 1 -57 -1q3 -28 2 -136t-1 -133q0 -13 -1.5 -67t-0.5 -89q84 0 118 1q30 0 32 -8q1 -3 0 -4.5t-4 -2.5t-5.5 -1h-7.5q-63 0 -89 -1q-55 -3 -58 2q-1 3 -1.5 58t0.5 94v257q0 25 -0.5 69t-1 81.5 t-1.5 71.5q0 41 1 42q3 4 57 8h72z" />
<glyph unicode="&#xcc;" horiz-adv-x="122" d="M-2 803q5 0 30 -25q11 -11 53 -47q16 -16 10 -21q-4 -3 -33 20q-4 3 -23.5 20.5t-30.5 25.5q-15 11 -15 17q0 10 9 10zM61 682q4 0 6 -1t2.5 -3.5t0.5 -5t-0.5 -7t-0.5 -7.5v-141q0 -60 -0.5 -179.5t-0.5 -179.5q0 -20 -0.5 -64t-0.5 -66q0 -29 -7 -30q-10 0 -10 24 q2 64 2 343q0 21 0.5 64t0.5 61v168q0 24 8 24z" />
<glyph unicode="&#xcd;" horiz-adv-x="122" d="M130 803q9 0 9 -10q0 -6 -15 -17q-11 -8 -30.5 -25.5t-23.5 -20.5q-29 -23 -33 -20q-6 5 10 21q42 36 53 47q25 25 30 25zM61 682q4 0 6 -1t2.5 -3.5t0.5 -5t-0.5 -7t-0.5 -7.5v-141q0 -60 -0.5 -179.5t-0.5 -179.5q0 -20 -0.5 -64t-0.5 -66q0 -29 -7 -30q-10 0 -10 24 q2 64 2 343q0 21 0.5 64t0.5 61v168q0 24 8 24z" />
<glyph unicode="&#xce;" horiz-adv-x="122" d="M61 773q5 0 30 -20q32 -26 55 -46q15 -13 6 -19q-5 -4 -29 17q-50 44 -61 49q-14 -7 -36 -26q-21 -18 -36 -33q-12 -13 -19 -6q-2 3 -1.5 5.5t3.5 6.5t6 6.5t6.5 5.5t4.5 4q25 24 47 40q21 16 24 16zM61 682q4 0 6 -1t2.5 -3.5t0.5 -5t-0.5 -7t-0.5 -7.5v-141 q0 -60 -0.5 -179.5t-0.5 -179.5q0 -20 -0.5 -64t-0.5 -66q0 -29 -7 -30q-10 0 -10 24q2 64 2 343q0 21 0.5 64t0.5 61v168q0 24 8 24z" />
<glyph unicode="&#xcf;" horiz-adv-x="122" d="M37 727q0 -19 -22 -19q-18 0 -18 20t22 20q18 0 18 -21zM106 748q10 0 16 -6t6 -15q0 -19 -20 -19q-19 0 -19 21q0 7 5 13t12 6zM61 682q4 0 6 -1t2.5 -3.5t0.5 -5t-0.5 -7t-0.5 -7.5v-141q0 -60 -0.5 -179.5t-0.5 -179.5q0 -20 -0.5 -64t-0.5 -66q0 -29 -7 -30 q-10 0 -10 24q2 64 2 343q0 21 0.5 64t0.5 61v168q0 24 8 24z" />
<glyph unicode="&#xd0;" horiz-adv-x="293" d="M255 341q1 -77 -2 -125.5t-20 -106.5t-50 -85q-32 -26 -85 -26q-15 0 -37 2q-2 0 -2 41v152q0 27 0.5 80t0.5 78q-26 -1 -37.5 -0.5t-11.5 5.5q0 7 4.5 8.5t17.5 2.5q8 1 27 1q0 24 -0.5 102t-0.5 125v73q1 14 5 15q1 1 4 1q25 2 52.5 -9t43.5 -24q38 -31 60.5 -102 t26.5 -118.5t4 -89.5zM238 270q5 107 -9.5 196.5t-44.5 136.5q-42 66 -109 62q1 -98 1 -298h3q11 2 69 2q2 0 11.5 0.5t13.5 -1.5t3 -8q0 -4 -3.5 -6t-9 -2h-10.5t-11 0.5t-9 0.5q-9 0 -26.5 -1t-28.5 -1h-2q0 -226 -1 -336q66 -6 97 21q10 9 18.5 20t15 25.5t11 26t8 29.5 t5.5 28.5t3.5 30t2 27t1.5 26.5t1 21z" />
<glyph unicode="&#xd1;" horiz-adv-x="311" d="M124 788q13 0 26 -19.5t24 -38.5t19 -18q21 3 21 71q0 8 8 8t7 -13q-1 -19 -1.5 -27.5t-4 -24.5t-11.5 -23.5t-21 -7.5q-17 -1 -38.5 37.5t-28.5 38.5q-19 0 -21 -62q0 -11 -9 -11q-8 0 -7 12q0 2 1 12.5t2 15t2.5 14t4 14.5t6 11t9 8.5t12.5 2.5zM252 682q5 0 6 -5 t0.5 -16t-0.5 -15q2 -44 0.5 -123t-1.5 -94q3 -145 1 -353q0 -28 1 -44v-9.5v-10t-0.5 -8t-2 -6.5t-4.5 -3t-5 0t-4 3t-3.5 4.5t-2.5 6.5t-2 6.5t-2 6.5t-1 5q-8 26 -20.5 70t-22 77.5t-17.5 62.5q-13 47 -46 180q-40 166 -58 221q-2 -21 -0.5 -76t1.5 -72v-298 q0 -19 1 -77.5t0 -88.5q0 -2 0.5 -11.5t-1.5 -14t-8 -3.5q-8 1 -8 27q0 54 -0.5 150t-0.5 142v160v148v13.5v15.5v13t1.5 11t4.5 5q5 2 9 0.5t7 -7t4 -9.5t4 -12q24 -79 32 -115q79 -317 87 -343q2 -8 19.5 -72t21.5 -75q-2 222 -2 324q0 29 0.5 78.5t0.5 76.5v123 q0 32 11 31z" />
<glyph unicode="&#xd2;" horiz-adv-x="309" d="M101 803q5 0 30 -25q11 -11 53 -47q16 -16 10 -21q-4 -3 -33 20q-4 3 -23.5 20.5t-30.5 25.5q-15 11 -15 17q0 10 9 10zM158 688q56 6 82 -67q17 -49 23 -137q7 -88 5 -170q0 -55 -8 -137q-18 -184 -108 -184q-39 0 -64.5 36.5t-34.5 89.5q-21 104 -13 268q9 146 35 218 q13 36 35 58.5t48 24.5zM162 670q-51 -8 -71 -71q-23 -65 -32 -182q-16 -216 19 -327q25 -81 75 -81q71 0 90 164q9 85 9 146q0 230 -27 296q-11 30 -25 42.5t-38 12.5z" />
<glyph unicode="&#xd3;" horiz-adv-x="309" d="M233 803q9 0 9 -10q0 -6 -15 -17q-11 -8 -30.5 -25.5t-23.5 -20.5q-29 -23 -33 -20q-6 5 10 21q42 36 53 47q25 25 30 25zM158 688q56 6 82 -67q17 -49 23 -137q7 -88 5 -170q0 -55 -8 -137q-18 -184 -108 -184q-39 0 -64.5 36.5t-34.5 89.5q-21 104 -13 268 q9 146 35 218q13 36 35 58.5t48 24.5zM162 670q-51 -8 -71 -71q-23 -65 -32 -182q-16 -216 19 -327q25 -81 75 -81q71 0 90 164q9 85 9 146q0 230 -27 296q-11 30 -25 42.5t-38 12.5z" />
<glyph unicode="&#xd4;" horiz-adv-x="309" d="M162 778q5 0 30 -20q32 -26 55 -46q15 -13 6 -19q-5 -4 -29 17q-50 44 -61 49q-14 -7 -36 -26q-21 -18 -36 -33q-13 -12 -19 -6q-2 3 -1.5 5.5t3.5 6.5t6 6.5t6.5 5.5t4.5 4q25 24 47 40q21 16 24 16zM158 688q56 6 82 -67q17 -49 23 -137q7 -88 5 -170q0 -55 -8 -137 q-18 -184 -108 -184q-39 0 -64.5 36.5t-34.5 89.5q-21 104 -13 268q9 146 35 218q13 36 35 58.5t48 24.5zM162 670q-51 -8 -71 -71q-23 -65 -32 -182q-16 -216 19 -327q25 -81 75 -81q71 0 90 164q9 85 9 146q0 230 -27 296q-11 30 -25 42.5t-38 12.5z" />
<glyph unicode="&#xd5;" horiz-adv-x="309" d="M132 802q13 0 26 -19.5t24 -38.5t19 -18q21 3 21 71q0 8 8 8t7 -13q-1 -19 -1.5 -27.5t-4 -24.5t-11.5 -23.5t-21 -7.5q-17 -1 -38.5 37.5t-28.5 38.5q-19 0 -21 -62q0 -11 -9 -11q-8 0 -7 12q0 2 1 12.5t2 15t2.5 14t4 14.5t6 11t9 8.5t12.5 2.5zM158 688q56 6 82 -67 q17 -49 23 -137q7 -88 5 -170q0 -55 -8 -137q-18 -184 -108 -184q-39 0 -64.5 36.5t-34.5 89.5q-21 104 -13 268q9 146 35 218q13 36 35 58.5t48 24.5zM162 670q-51 -8 -71 -71q-23 -65 -32 -182q-16 -216 19 -327q25 -81 75 -81q71 0 90 164q9 85 9 146q0 230 -27 296 q-11 30 -25 42.5t-38 12.5z" />
<glyph unicode="&#xd6;" horiz-adv-x="309" d="M138 742q0 -19 -22 -19q-18 0 -18 20t22 20q18 0 18 -21zM207 763q10 0 16 -6t6 -15q0 -19 -20 -19q-19 0 -19 21q0 7 5 13t12 6zM158 688q56 6 82 -67q17 -49 23 -137q7 -88 5 -170q0 -55 -8 -137q-18 -184 -108 -184q-39 0 -64.5 36.5t-34.5 89.5q-21 104 -13 268 q9 146 35 218q13 36 35 58.5t48 24.5zM162 670q-51 -8 -71 -71q-23 -65 -32 -182q-16 -216 19 -327q25 -81 75 -81q71 0 90 164q9 85 9 146q0 230 -27 296q-11 30 -25 42.5t-38 12.5z" />
<glyph unicode="&#xd7;" horiz-adv-x="335" d="M274 368q4 -2 4.5 -5t-2.5 -7t-5.5 -6.5t-7 -6.5t-6.5 -6l-75 -74q73 -74 93 -94q4 -3 3 -8.5t-7 -7.5q-5 -2 -34 29q-8 8 -16 15.5t-22.5 22.5t-29.5 30q-2 -2 -90 -88q-2 -2 -4.5 -5t-4 -4t-4 -3t-3.5 -1.5t-4 0.5q-3 2 -4 4.5t0 5.5t3 6t6 7t6.5 6t7 6t5.5 5 q5 5 27 27.5t46 46.5q-3 2 -31.5 31t-32.5 32q-3 3 -8 8.5t-8 8.5t-6 7t-4.5 7t-0.5 5q1 7 7 7t9 -5q8 -9 41 -42l47 -47q15 16 70 69q27 30 35 24z" />
<glyph unicode="&#xd8;" horiz-adv-x="317" d="M268 484q7 -88 5 -170q0 -55 -8 -137q-18 -184 -108 -184q-27 0 -49 19q-2 -14 -3.5 -21.5t-4.5 -19t-6.5 -16.5t-7.5 -5t-6 3t-1.5 7l1 8t2 8.5t1.5 5.5l11 45q-26 34 -36 92q-21 104 -13 268q9 146 35 218q13 36 35.5 58.5t47.5 24.5q30 3 51 -15q1 5 2.5 15t3 17.5 t3.5 15t4.5 12t5.5 5.5q5 1 7.5 -0.5t2.5 -6t-0.5 -8.5t-1.5 -9.5t-1 -7.5q0 -3 -2.5 -11.5t-5 -19.5t-4.5 -18q8 -13 17 -36q17 -49 23 -137zM64 417q-16 -216 19 -327q5 -18 16 -38l55 301q2 9 11 61.5t14 78.5q6 26 16 81t15 79q-16 17 -43 17q-51 -8 -71 -71 q-23 -65 -32 -182zM248 173q9 85 9 146q0 230 -27 296q-1 4 -4 10t-3 7q-5 -27 -16 -83.5t-13 -68.5q-10 -51 -27 -151.5t-25 -140.5q-14 -67 -21 -109l-9 -47q20 -23 46 -23q71 0 90 164z" />
<glyph unicode="&#xd9;" horiz-adv-x="296" d="M82 803q5 0 30 -25q11 -11 53 -47q16 -16 10 -21q-4 -3 -33 20q-4 3 -23.5 20.5t-30.5 25.5q-15 11 -15 17q0 10 9 10zM60 682q4 -1 6 -3t2.5 -5.5t0.5 -6t-1 -7.5t-1 -7q-1 -23 -1 -239q0 -19 0.5 -102.5t1.5 -145t3 -82.5q6 -51 40 -68q22 -11 51 -7q63 6 68 141 q1 37 0.5 235t-1.5 214q0 4 -1 18t-1 21.5t0.5 17.5t2.5 15t5 6q4 1 6.5 -1t3 -6t0.5 -8t-0.5 -9.5t-0.5 -7.5q0 -23 0.5 -103.5t1.5 -180.5t1 -145q0 -44 -1 -68t-6 -59.5t-17.5 -56.5t-32.5 -31q-16 -9 -41 -9q-38 0 -58 17q-36 26 -39 97q-3 76 -3 325v222v6.5v6.5v5.5 t0.5 5t2 3t3.5 2t5 0.5z" />
<glyph unicode="&#xda;" horiz-adv-x="296" d="M214 803q9 0 9 -10q0 -6 -15 -17q-11 -8 -30.5 -25.5t-23.5 -20.5q-29 -23 -33 -20q-6 5 10 21q42 36 53 47q25 25 30 25zM60 682q4 -1 6 -3t2.5 -5.5t0.5 -6t-1 -7.5t-1 -7q-1 -23 -1 -239q0 -19 0.5 -102.5t1.5 -145t3 -82.5q6 -51 40 -68q22 -11 51 -7q63 6 68 141 q1 37 0.5 235t-1.5 214q0 4 -1 18t-1 21.5t0.5 17.5t2.5 15t5 6q4 1 6.5 -1t3 -6t0.5 -8t-0.5 -9.5t-0.5 -7.5q0 -23 0.5 -103.5t1.5 -180.5t1 -145q0 -44 -1 -68t-6 -59.5t-17.5 -56.5t-32.5 -31q-16 -9 -41 -9q-38 0 -58 17q-36 26 -39 97q-3 76 -3 325v222v6.5v6.5v5.5 t0.5 5t2 3t3.5 2t5 0.5z" />
<glyph unicode="&#xdb;" horiz-adv-x="296" d="M145 793q5 0 30 -20q32 -26 55 -46q15 -13 6 -19q-5 -4 -29 17q-50 44 -61 49q-14 -7 -36 -26q-21 -18 -36 -33q-12 -13 -19 -6q-2 3 -1.5 5.5t3.5 6.5t6 6.5t6.5 5.5t4.5 4q25 24 47 40q21 16 24 16zM60 682q4 -1 6 -3t2.5 -5.5t0.5 -6t-1 -7.5t-1 -7q-1 -23 -1 -239 q0 -19 0.5 -102.5t1.5 -145t3 -82.5q6 -51 40 -68q22 -11 51 -7q63 6 68 141q1 37 0.5 235t-1.5 214q0 4 -1 18t-1 21.5t0.5 17.5t2.5 15t5 6q4 1 6.5 -1t3 -6t0.5 -8t-0.5 -9.5t-0.5 -7.5q0 -23 0.5 -103.5t1.5 -180.5t1 -145q0 -44 -1 -68t-6 -59.5t-17.5 -56.5t-32.5 -31 q-16 -9 -41 -9q-38 0 -58 17q-36 26 -39 97q-3 76 -3 325v222v6.5v6.5v5.5t0.5 5t2 3t3.5 2t5 0.5z" />
<glyph unicode="&#xdc;" horiz-adv-x="296" d="M121 731q0 -19 -22 -19q-18 0 -18 20t22 20q18 0 18 -21zM190 752q10 0 16 -6t6 -15q0 -19 -20 -19q-19 0 -19 21q0 7 5 13t12 6zM60 682q4 -1 6 -3t2.5 -5.5t0.5 -6t-1 -7.5t-1 -7q-1 -23 -1 -239q0 -19 0.5 -102.5t1.5 -145t3 -82.5q6 -51 40 -68q22 -11 51 -7 q63 6 68 141q1 37 0.5 235t-1.5 214q0 4 -1 18t-1 21.5t0.5 17.5t2.5 15t5 6q4 1 6.5 -1t3 -6t0.5 -8t-0.5 -9.5t-0.5 -7.5q0 -23 0.5 -103.5t1.5 -180.5t1 -145q0 -44 -1 -68t-6 -59.5t-17.5 -56.5t-32.5 -31q-16 -9 -41 -9q-38 0 -58 17q-36 26 -39 97q-3 76 -3 325v222 v6.5v6.5v5.5t0.5 5t2 3t3.5 2t5 0.5z" />
<glyph unicode="&#xdd;" horiz-adv-x="263" d="M201 783q9 0 9 -10q0 -6 -15 -17q-11 -8 -30.5 -25.5t-23.5 -20.5q-29 -23 -33 -20q-6 5 10 21q42 36 53 47q25 25 30 25zM254 683q9 -2 1 -21q-9 -24 -30 -97t-26 -89q-31 -99 -58 -175v-84q0 -9 -0.5 -49.5t-0.5 -72.5v-70q0 -26 -8 -27q-4 0 -6 4t-2.5 10.5t-0.5 12.5 t0.5 13.5t0.5 10.5v192v56q-8 27 -28.5 91.5t-23.5 77.5q-23 91 -57 187q-8 25 -5 28q4 3 7 3t5.5 -2t4.5 -5t3.5 -8.5t3 -10t3 -11.5t2.5 -11q0 -1 16 -54t23 -77q21 -77 55 -176q29 85 42 130q6 18 20.5 67.5t27.5 91t16 50.5q2 5 3.5 8t4.5 5.5t7 1.5z" />
<glyph unicode="&#xde;" horiz-adv-x="215" d="M178 462q30 -62 21 -147q-14 -130 -131 -129q-2 -98 -2 -149q0 -4 1 -14t0 -14q0 -5 -4 -8.5t-9 -1.5t-5 40q0 33 0.5 93t1 110t1.5 93q1 32 -1 90t-2 80v39.5v52v44.5q0 5 -0.5 13t-1 12.5t0 9t3 7t7.5 2.5q6 0 9 -35q0 -98 1 -112q45 0 76 -31q23 -23 34 -45zM154 240 q24 32 28 93.5t-13 104.5q-14 37 -38 58q-11 10 -31 17t-32 6q0 -27 1 -84.5t0.5 -111.5t-2.5 -118q60 0 87 35z" />
<glyph unicode="&#xdf;" horiz-adv-x="248" d="M136 743q74 0 74 -147q0 -50 -36 -108t-36 -95q0 -12 2.5 -26t5 -24t8.5 -25t8.5 -21t9.5 -21.5t8 -17.5q20 -44 30 -69.5t18.5 -63t5.5 -69.5q-2 -27 -19 -45t-44 -18q-44 0 -61 35q-11 21 0 24q2 1 4 0t3.5 -3t2.5 -3.5t2.5 -5t2.5 -4.5q14 -26 45 -26q43 0 47 52 q6 63 -56 198q-14 31 -20 45t-12.5 39.5t-6.5 49.5q0 43 35 99t35 100q0 72 -17.5 102.5t-41.5 30.5q-22 0 -35.5 -12.5t-19 -35.5t-7.5 -47.5t-3 -55.5v-8.5v-7.5q-2 -50 -2 -246q0 -192 1 -280v-5.5t0.5 -7t0 -7.5t-1 -6.5t-2.5 -5t-5 -2.5q-9 0 -9 38v308q0 231 3 277 q1 22 3 35.5t7.5 32t13.5 28.5t23 17.5t36 7.5z" />
<glyph unicode="&#xe0;" horiz-adv-x="218" d="M46 678q6 12 22 -7q0 -1 61 -93q22 -30 14 -36q-6 -5 -19 15q-3 3 -14.5 20.5t-27.5 40.5t-24 34q-14 22 -12 26zM106 472q41 3 59 -34q17 -33 13 -106q-5 -97 -5 -160q0 -112 1 -161q0 -13 -8 -13q-9 0 -9 31q-1 52 1 143l-12 -33t-13 -35.5t-12.5 -33t-14 -31.5 t-13.5 -23.5t-14.5 -17t-14.5 -5.5q-18 0 -28 22q-13 28 -14.5 74t3 81.5t10.5 56.5q28 96 126 78q1 35 2 65.5t-10 54.5t-34 30q-20 5 -34.5 -7t-14.5 -35q0 -1 0.5 -6.5t1 -9.5t-1 -8t-5.5 -4q-14 -1 -11 36q1 21 16 35t36 16zM161 288q-59 10 -87 -18q-24 -28 -32.5 -99 t-0.5 -116q3 -17 9 -31t15 -13q12 0 48.5 89.5t42.5 111.5q5 22 5 76z" />
<glyph unicode="&#xe1;" horiz-adv-x="218" d="M180 679q2 -2 2.5 -4t-1 -5l-2.5 -5t-4 -6.5t-4 -6.5q-12 -17 -38.5 -55.5t-27.5 -39.5q-14 -19 -19 -15q-6 4 15 36l42 64q1 1 8.5 12t10.5 16q10 17 18 9zM106 472q41 3 59 -34q17 -33 13 -106q-5 -97 -5 -160q0 -112 1 -161q0 -13 -8 -13q-9 0 -9 31q-1 52 1 143 l-12 -33t-13 -35.5t-12.5 -33t-14 -31.5t-13.5 -23.5t-14.5 -17t-14.5 -5.5q-18 0 -28 22q-13 28 -14.5 74t3 81.5t10.5 56.5q28 96 126 78q1 35 2 65.5t-10 54.5t-34 30q-20 5 -34.5 -7t-14.5 -35q0 -1 0.5 -6.5t1 -9.5t-1 -8t-5.5 -4q-14 -1 -11 36q1 21 16 35t36 16z M161 288q-59 10 -87 -18q-24 -28 -32.5 -99t-0.5 -116q3 -17 9 -31t15 -13q12 0 48.5 89.5t42.5 111.5q5 22 5 76z" />
<glyph unicode="&#xe2;" horiz-adv-x="218" d="M111 654q5 0 23 -27q8 -11 27.5 -47t24.5 -43q12 -17 4 -23q-2 -2 -4.5 -1.5t-3.5 1t-2.5 3t-2.5 4t-2.5 4t-2.5 4.5l-38 66q-16 26 -25 39q-1 -2 -52 -92l-3.5 -7t-4.5 -8.5l-4 -7t-4.5 -5t-4.5 -0.5q-11 3 0 24q4 8 49 88q16 28 26 28zM106 472q41 3 59 -34 q17 -33 13 -106q-5 -97 -5 -160q0 -112 1 -161q0 -13 -8 -13q-9 0 -9 31q-1 52 1 143l-12 -33t-13 -35.5t-12.5 -33t-14 -31.5t-13.5 -23.5t-14.5 -17t-14.5 -5.5q-18 0 -28 22q-13 28 -14.5 74t3 81.5t10.5 56.5q28 96 126 78q1 35 2 65.5t-10 54.5t-34 30q-20 5 -34.5 -7 t-14.5 -35q0 -1 0.5 -6.5t1 -9.5t-1 -8t-5.5 -4q-14 -1 -11 36q1 21 16 35t36 16zM161 288q-59 10 -87 -18q-24 -28 -32.5 -99t-0.5 -116q3 -17 9 -31t15 -13q12 0 48.5 89.5t42.5 111.5q5 22 5 76z" />
<glyph unicode="&#xe3;" horiz-adv-x="218" d="M79 653q13 0 26 -26t24 -52t19 -25q11 1 16 35t5 63q0 8 8 8t7 -13q-3 -109 -38 -110q-17 -1 -38.5 51t-28.5 52q-18 0 -21 -89q0 -11 -9 -11q-8 0 -7 12q0 1 1.5 20t3.5 29.5t5.5 25.5t10.5 22.5t16 7.5zM106 472q41 3 59 -34q17 -33 13 -106q-5 -97 -5 -160 q0 -112 1 -161q0 -13 -8 -13q-9 0 -9 31q-1 52 1 143l-12 -33t-13 -35.5t-12.5 -33t-14 -31.5t-13.5 -23.5t-14.5 -17t-14.5 -5.5q-18 0 -28 22q-13 28 -14.5 74t3 81.5t10.5 56.5q28 96 126 78q1 35 2 65.5t-10 54.5t-34 30q-20 5 -34.5 -7t-14.5 -35q0 -1 0.5 -6.5t1 -9.5 t-1 -8t-5.5 -4q-14 -1 -11 36q1 21 16 35t36 16zM161 288q-59 10 -87 -18q-24 -28 -32.5 -99t-0.5 -116q3 -17 9 -31t15 -13q12 0 48.5 89.5t42.5 111.5q5 22 5 76z" />
<glyph unicode="&#xe4;" horiz-adv-x="218" d="M86 568q0 -19 -22 -19q-18 0 -18 20t22 20q18 0 18 -21zM155 589q10 0 16 -6t6 -15q0 -19 -20 -19q-19 0 -19 21q0 7 5 13t12 6zM106 472q41 3 59 -34q17 -33 13 -106q-5 -97 -5 -160q0 -112 1 -161q0 -13 -8 -13q-9 0 -9 31q-1 52 1 143l-12 -33t-13 -35.5t-12.5 -33 t-14 -31.5t-13.5 -23.5t-14.5 -17t-14.5 -5.5q-18 0 -28 22q-13 28 -14.5 74t3 81.5t10.5 56.5q28 96 126 78q1 35 2 65.5t-10 54.5t-34 30q-20 5 -34.5 -7t-14.5 -35q0 -1 0.5 -6.5t1 -9.5t-1 -8t-5.5 -4q-14 -1 -11 36q1 21 16 35t36 16zM161 288q-59 10 -87 -18 q-24 -28 -32.5 -99t-0.5 -116q3 -17 9 -31t15 -13q12 0 48.5 89.5t42.5 111.5q5 22 5 76z" />
<glyph unicode="&#xe5;" horiz-adv-x="218" d="M115 687q34 0 39 -62q4 -55 -11 -78q-10 -20 -32 -20q-23 0 -33 23q-9 23 -8.5 54t7.5 51q11 32 38 32zM103 669q-14 -10 -17 -54t7 -60q7 -12 17.5 -13t17.5 10q11 15 11 57t-12 57q-11 14 -24 3zM106 472q41 3 59 -34q17 -33 13 -106q-5 -97 -5 -160q0 -112 1 -161 q0 -13 -8 -13q-9 0 -9 31q-1 52 1 143l-12 -33t-13 -35.5t-12.5 -33t-14 -31.5t-13.5 -23.5t-14.5 -17t-14.5 -5.5q-18 0 -28 22q-13 28 -14.5 74t3 81.5t10.5 56.5q28 96 126 78q1 35 2 65.5t-10 54.5t-34 30q-20 5 -34.5 -7t-14.5 -35q0 -1 0.5 -6.5t1 -9.5t-1 -8t-5.5 -4 q-14 -1 -11 36q1 21 16 35t36 16zM161 288q-59 10 -87 -18q-24 -28 -32.5 -99t-0.5 -116q3 -17 9 -31t15 -13q12 0 48.5 89.5t42.5 111.5q5 22 5 76z" />
<glyph unicode="&#xe6;" horiz-adv-x="338" d="M116 470q17 0 31.5 -10t20.5 -25q12 -29 10 -110q14 73 40 116q18 29 45 29q19 0 30.5 -15t16.5 -45.5t6 -53.5t1 -62q0 -32 -4 -36q-3 -3 -67 -3q-12 0 -31.5 1t-29.5 1q-6 -73 4 -140q5 -40 21 -72.5t37 -32.5q12 0 23.5 11t15.5 28q2 7 2.5 20t2.5 20.5t8 8.5 q11 2 9 -19q0 -3 -4 -28q-4 -28 -20 -42.5t-37 -14.5q-30 0 -49.5 34.5t-26.5 85.5q-4 32 -4 72q-33 -108 -45 -135q-15 -33 -25.5 -45.5t-30.5 -12.5q-15 0 -24 14.5t-11.5 29.5t-3.5 39q-3 89 24 143q16 31 44 41t70 10q0 116 -7 140q-11 41 -42 41q-21 0 -33 -12.5 t-11 -34.5q0 -3 1.5 -8t2.5 -9t1 -8t-2 -6.5t-6 -3.5q-2 0 -4 0.5t-3 1.5t-2 2.5t-2 3.5t-1 4t-0.5 4.5t-0.5 4t-0.5 4.5t-0.5 4q-2 34 16.5 52t44.5 18zM262 453q-31 0 -52.5 -67t-23.5 -113h113q3 72 -6.5 126t-30.5 54zM165 256q-62 0 -85 -24q-20 -20 -29.5 -72.5 t-4.5 -103.5q5 -42 19 -43q5 0 9.5 1.5t7.5 4t6 7.5l4.5 7.5t4 8t3.5 6.5q36 77 60 171q6 21 5 37z" />
<glyph unicode="&#xe7;" horiz-adv-x="186" d="M157 119q5 1 8 -2t4 -10t1 -11.5t-1 -11.5q-3 -46 -21 -70q-11 -14 -28 -19q-19 -38 -19 -46q2 -3 9.5 -15t9.5 -15.5t7.5 -14t7.5 -15.5t5.5 -13.5t4.5 -15.5t1 -14q0 -25 -13.5 -39t-32.5 -14q-18 0 -32 12q-11 10 -17 27q-2 6 -3 13t-1 14.5t3.5 11.5t9.5 2 q4 -1 4.5 -4.5t0 -9t-0.5 -8.5q4 -34 27 -39q21 -4 31 10.5t6 37.5q-3 21 -44 83q-4 6 16 50q-61 8 -70 143q-6 104 8 206q6 47 24 87.5t48 42.5q32 3 45.5 -26.5t11.5 -63.5q-2 -24 -12 -24q-3 0 -5 1.5t-2 4.5v5.5t1 6.5t1 6q2 26 -6 49t-26 25q-19 2 -34.5 -24.5t-22 -55 t-9.5 -57.5q-10 -85 -5 -174q7 -134 60 -134q21 0 36 28t9 65q-2 13 5 15z" />
<glyph unicode="&#xe8;" horiz-adv-x="210" d="M58 678q6 12 22 -7q0 -1 61 -93q22 -30 14 -36q-6 -5 -19 15q-3 3 -14.5 20.5t-27.5 40.5t-24 34q-14 22 -12 26zM160 447q23 -43 25 -156q2 -38 -6 -42q-5 -3 -37 -3q-75 0 -96 -2q-4 -97 13 -165t53 -68q21 0 34 25.5t13 49.5v6.5t-0.5 6t-0.5 5t1.5 4t4.5 1.5 q6 0 9 -6t3 -13.5t-1 -15.5q-4 -33 -20.5 -56.5t-43.5 -23.5q-64 0 -78 133q-13 131 19 245q14 47 31 73t42 26q23 0 35 -24zM140 445q-7 8 -16 8q-18 0 -32 -26q-30 -55 -44 -165q17 1 57 1t62 2q2 43 -4 102.5t-23 77.5z" />
<glyph unicode="&#xe9;" horiz-adv-x="210" d="M192 679q2 -2 2.5 -4t-1 -5l-2.5 -5t-4 -6.5t-4 -6.5q-12 -17 -38.5 -55.5t-27.5 -39.5q-14 -19 -19 -15q-6 4 15 36l42 64q1 1 8.5 12t10.5 16q10 17 18 9zM160 447q23 -43 25 -156q2 -38 -6 -42q-5 -3 -37 -3q-75 0 -96 -2q-4 -97 13 -165t53 -68q21 0 34 25.5t13 49.5 v6.5t-0.5 6t-0.5 5t1.5 4t4.5 1.5q6 0 9 -6t3 -13.5t-1 -15.5q-4 -33 -20.5 -56.5t-43.5 -23.5q-64 0 -78 133q-13 131 19 245q14 47 31 73t42 26q23 0 35 -24zM140 445q-7 8 -16 8q-18 0 -32 -26q-30 -55 -44 -165q17 1 57 1t62 2q2 43 -4 102.5t-23 77.5z" />
<glyph unicode="&#xea;" horiz-adv-x="210" d="M123 654q5 0 23 -27q8 -11 27.5 -47t24.5 -43q12 -17 4 -23q-2 -2 -4.5 -1.5t-3.5 1t-2.5 3t-2.5 4t-2.5 4t-2.5 4.5l-38 66q-16 26 -25 39q-1 -2 -52 -92l-3.5 -7t-4.5 -8.5l-4 -7t-4.5 -5t-4.5 -0.5q-11 3 0 24q4 8 49 88q16 28 26 28zM160 447q23 -43 25 -156 q2 -38 -6 -42q-5 -3 -37 -3q-75 0 -96 -2q-4 -97 13 -165t53 -68q21 0 34 25.5t13 49.5v6.5t-0.5 6t-0.5 5t1.5 4t4.5 1.5q6 0 9 -6t3 -13.5t-1 -15.5q-4 -33 -20.5 -56.5t-43.5 -23.5q-64 0 -78 133q-13 131 19 245q14 47 31 73t42 26q23 0 35 -24zM140 445q-7 8 -16 8 q-18 0 -32 -26q-30 -55 -44 -165q17 1 57 1t62 2q2 43 -4 102.5t-23 77.5z" />
<glyph unicode="&#xeb;" horiz-adv-x="210" d="M98 568q0 -19 -22 -19q-18 0 -18 20t22 20q18 0 18 -21zM167 589q10 0 16 -6t6 -15q0 -19 -20 -19q-19 0 -19 21q0 7 5 13t12 6zM160 447q23 -43 25 -156q2 -38 -6 -42q-5 -3 -37 -3q-75 0 -96 -2q-4 -97 13 -165t53 -68q21 0 34 25.5t13 49.5v6.5t-0.5 6t-0.5 5t1.5 4 t4.5 1.5q6 0 9 -6t3 -13.5t-1 -15.5q-4 -33 -20.5 -56.5t-43.5 -23.5q-64 0 -78 133q-13 131 19 245q14 47 31 73t42 26q23 0 35 -24zM140 445q-7 8 -16 8q-18 0 -32 -26q-30 -55 -44 -165q17 1 57 1t62 2q2 43 -4 102.5t-23 77.5z" />
<glyph unicode="&#xec;" horiz-adv-x="121" d="M-6 678q6 12 22 -7q0 -1 61 -93q22 -30 14 -36q-6 -5 -19 15q-3 3 -14.5 20.5t-27.5 40.5t-24 34q-14 22 -12 26zM57 465q7 2 9 -4.5t3 -18.5q0 -14 -1 -53t0 -57q0 -211 2 -317q0 -6 -0.5 -9t-2.5 -6.5t-7 -2.5q-8 1 -8 49q-1 45 -0.5 140t0.5 139v35v41.5v33.5 q0 2 -0.5 6t-0.5 7.5v7t1.5 6t4.5 3.5z" />
<glyph unicode="&#xed;" horiz-adv-x="121" d="M128 679q2 -2 2.5 -4t-1 -5l-2.5 -5t-4 -6.5t-4 -6.5q-12 -17 -38.5 -55.5t-27.5 -39.5q-14 -19 -19 -15q-6 4 15 36l42 64q1 1 8.5 12t10.5 16q10 17 18 9zM57 465q7 2 9 -4.5t3 -18.5q0 -14 -1 -53t0 -57q0 -211 2 -317q0 -6 -0.5 -9t-2.5 -6.5t-7 -2.5q-8 1 -8 49 q-1 45 -0.5 140t0.5 139v35v41.5v33.5q0 2 -0.5 6t-0.5 7.5v7t1.5 6t4.5 3.5z" />
<glyph unicode="&#xee;" horiz-adv-x="121" d="M59 654q5 0 23 -27q8 -11 27.5 -47t24.5 -43q12 -17 4 -23q-2 -2 -4.5 -1.5t-3.5 1t-2.5 3t-2.5 4t-2.5 4t-2.5 4.5l-38 66q-16 26 -25 39q-1 -2 -52 -92l-3.5 -7t-4.5 -8.5l-4 -7t-4.5 -5t-4.5 -0.5q-11 3 0 24q4 8 49 88q16 28 26 28zM57 465q7 2 9 -4.5t3 -18.5 q0 -14 -1 -53t0 -57q0 -211 2 -317q0 -6 -0.5 -9t-2.5 -6.5t-7 -2.5q-8 1 -8 49q-1 45 -0.5 140t0.5 139v35v41.5v33.5q0 2 -0.5 6t-0.5 7.5v7t1.5 6t4.5 3.5z" />
<glyph unicode="&#xef;" horiz-adv-x="121" d="M34 568q0 -19 -22 -19q-18 0 -18 20t22 20q18 0 18 -21zM103 589q10 0 16 -6t6 -15q0 -19 -20 -19q-19 0 -19 21q0 7 5 13t12 6zM57 465q7 2 9 -4.5t3 -18.5q0 -14 -1 -53t0 -57q0 -211 2 -317q0 -6 -0.5 -9t-2.5 -6.5t-7 -2.5q-8 1 -8 49q-1 45 -0.5 140t0.5 139v35 v41.5v33.5q0 2 -0.5 6t-0.5 7.5v7t1.5 6t4.5 3.5z" />
<glyph unicode="&#xf0;" horiz-adv-x="239" d="M205 258q0 -84 -2 -111q-4 -64 -25 -106.5t-58 -45.5q-40 -3 -61 32q-23 37 -27 125t5 157q4 27 7 43.5t11 44t18 42.5t27 24.5t39 4.5q18 -5 34 -32q-18 99 -66 192l-39 -24q-2 -1 -7 -4.5t-8.5 -5.5t-8.5 -4.5t-7 -2t-4 1.5q-6 10 15 21q2 1 22 14t29 18q-19 35 -39 61 q-1 2 -5 7t-6 8t-4 6.5t-1 5.5t5 3q3 1 6.5 -1t5.5 -4.5t5.5 -7t4.5 -5.5q23 -30 42 -65q2 1 20.5 13t26.5 17q26 18 31 16q4 -1 5 -7q0 -2 -0.5 -3.5t-2.5 -3l-4 -3t-6 -3.5t-7 -4l-55 -36q50 -99 67 -198q16 -93 17 -180zM188 241q0 212 -66 212q-50 0 -69 -152 q-8 -70 -5 -143q4 -85 28 -125q10 -16 26.5 -21t31.5 4q35 23 44.5 76.5t9.5 148.5z" />
<glyph unicode="&#xf1;" horiz-adv-x="256" d="M91 653q13 0 26 -26t24 -52t19 -25q11 1 16 35t5 63q0 8 8 8t7 -13q-3 -109 -38 -110q-17 -1 -38.5 51t-28.5 52q-18 0 -21 -89q0 -11 -9 -11q-8 0 -7 12q0 1 1.5 20t3.5 29.5t5.5 25.5t10.5 22.5t16 7.5zM181 473q28 0 30 -38q1 -24 0.5 -174t-1.5 -220q0 -5 0.5 -13.5 t0.5 -13t-1 -9t-4 -6t-9 -0.5q-5 1 -6 7.5t0.5 21.5t1.5 21q0 59 0.5 157t0.5 158v44q0 47 -17 47q-21 0 -55.5 -62t-51.5 -126q-6 -21 -6 -243v-4.5v-5v-5t-1 -5t-2 -3.5t-3 -2.5t-5 -0.5t-5 4t-2.5 11t-0.5 13.5t0.5 16t0.5 13.5q0 30 0.5 82t0.5 84q0 34 0.5 107.5 t0.5 112.5q0 23 8 23q4 0 6 -2t2.5 -6t1 -7.5t0 -9.5t-0.5 -8q0 -94 -2 -133q19 71 54.5 122.5t63.5 51.5z" />
<glyph unicode="&#xf2;" horiz-adv-x="236" d="M55 678q6 12 22 -7q0 -1 61 -93q22 -30 14 -36q-6 -5 -19 15q-3 3 -14.5 20.5t-27.5 40.5t-24 34q-14 22 -12 26zM122 471q53 0 70 -90q13 -66 13 -161q0 -168 -51 -213q-16 -13 -39 -13q-57 0 -75 90q-19 109 -4 232q8 73 30 114t56 41zM57 343q-15 -116 -6 -220 q13 -113 65 -113q26 0 44 32q24 38 28 140.5t-8 172.5q-14 100 -60 100q-25 0 -41 -35.5t-22 -76.5z" />
<glyph unicode="&#xf3;" horiz-adv-x="236" d="M189 679q2 -2 2.5 -4t-1 -5l-2.5 -5t-4 -6.5t-4 -6.5q-12 -17 -38.5 -55.5t-27.5 -39.5q-14 -19 -19 -15q-6 4 15 36l42 64q1 1 8.5 12t10.5 16q10 17 18 9zM122 471q53 0 70 -90q13 -66 13 -161q0 -168 -51 -213q-16 -13 -39 -13q-57 0 -75 90q-19 109 -4 232 q8 73 30 114t56 41zM57 343q-15 -116 -6 -220q13 -113 65 -113q26 0 44 32q24 38 28 140.5t-8 172.5q-14 100 -60 100q-25 0 -41 -35.5t-22 -76.5z" />
<glyph unicode="&#xf4;" horiz-adv-x="236" d="M120 654q5 0 23 -27q8 -11 27.5 -47t24.5 -43q12 -17 4 -23q-2 -2 -4.5 -1.5t-3.5 1t-2.5 3t-2.5 4t-2.5 4t-2.5 4.5l-38 66q-16 26 -25 39q-1 -2 -52 -92l-3.5 -7t-4.5 -8.5l-4 -7t-4.5 -5t-4.5 -0.5q-11 3 0 24q4 8 49 88q16 28 26 28zM122 471q53 0 70 -90 q13 -66 13 -161q0 -168 -51 -213q-16 -13 -39 -13q-57 0 -75 90q-19 109 -4 232q8 73 30 114t56 41zM57 343q-15 -116 -6 -220q13 -113 65 -113q26 0 44 32q24 38 28 140.5t-8 172.5q-14 100 -60 100q-25 0 -41 -35.5t-22 -76.5z" />
<glyph unicode="&#xf5;" horiz-adv-x="236" d="M88 653q13 0 26 -26t24 -52t19 -25q11 1 16 35t5 63q0 8 8 8t7 -13q-3 -109 -38 -110q-17 -1 -38.5 51t-28.5 52q-18 0 -21 -89q0 -11 -9 -11q-8 0 -7 12q0 1 1.5 20t3.5 29.5t5.5 25.5t10.5 22.5t16 7.5zM122 471q53 0 70 -90q13 -66 13 -161q0 -168 -51 -213 q-16 -13 -39 -13q-57 0 -75 90q-19 109 -4 232q8 73 30 114t56 41zM57 343q-15 -116 -6 -220q13 -113 65 -113q26 0 44 32q24 38 28 140.5t-8 172.5q-14 100 -60 100q-25 0 -41 -35.5t-22 -76.5z" />
<glyph unicode="&#xf6;" horiz-adv-x="236" d="M95 568q0 -19 -22 -19q-18 0 -18 20t22 20q18 0 18 -21zM164 589q10 0 16 -6t6 -15q0 -19 -20 -19q-19 0 -19 21q0 7 5 13t12 6zM122 471q53 0 70 -90q13 -66 13 -161q0 -168 -51 -213q-16 -13 -39 -13q-57 0 -75 90q-19 109 -4 232q8 73 30 114t56 41zM57 343 q-15 -116 -6 -220q13 -113 65 -113q26 0 44 32q24 38 28 140.5t-8 172.5q-14 100 -60 100q-25 0 -41 -35.5t-22 -76.5z" />
<glyph unicode="&#xf7;" horiz-adv-x="323" d="M161 417q23 0 23 -26q0 -9 -8.5 -16t-20.5 -5q-11 3 -15.5 12t-1.5 18q1 7 8.5 12t14.5 5zM138 271q26 0 64 -1t62 0q31 0 31 -7q0 -4 -1 -6t-3.5 -3t-4.5 -1h-6.5h-5.5q-27 -1 -65 -1q-25 0 -60 0.5t-52 0.5q-65 0 -67 3q-4 7 1.5 10.5t15.5 3.5q23 0 45 0.5t46 0.5z M151 146q14 8 28 -6q14 -17 -5 -35q-7 -6 -18 -4t-17 12q-10 22 12 33z" />
<glyph unicode="&#xf8;" horiz-adv-x="240" d="M194 381q13 -66 13 -161q0 -168 -51 -213q-16 -13 -39 -13q-21 0 -34 10l-11 -50q-1 -5 -5 -5q-12 0 -8 19l10 48q-17 21 -27 68q-19 109 -4 232q8 73 30 114t56 41q16 0 31 -10q0 1 1 4q8 48 18 51q6 1 7 -5t-2.5 -21.5t-4.5 -19.5l-5 -23q17 -23 25 -66zM53 123 q6 -52 21 -82q13 65 39 202.5t38 198.5q-11 13 -29 13q-25 0 -41 -35.5t-22 -76.5q-15 -116 -6 -220zM162 42q24 38 28 140.5t-8 172.5q-6 47 -17 68q-4 -19 -34 -174.5t-44 -224.5q14 -14 31 -14q26 0 44 32z" />
<glyph unicode="&#xf9;" horiz-adv-x="259" d="M61 678q6 12 22 -7q0 -1 61 -93q22 -30 14 -36q-6 -5 -19 15q-3 3 -14.5 20.5t-27.5 40.5t-24 34q-14 22 -12 26zM204 466q3 0 5.5 -1t3 -4.5t0.5 -6v-7.5v-6q0 -27 -0.5 -79t-0.5 -83q0 -4 -0.5 -43t-0.5 -92v-113v-8v-9t-0.5 -7t-2.5 -6t-5 -2q-4 0 -6.5 2t-3.5 6.5 t-1 9t0.5 13t0.5 14.5q0 31 2 83t2 75q-5 -14 -12 -38t-11.5 -38.5t-13.5 -37t-21 -44.5q-25 -50 -55 -50q-12 0 -20 10.5t-11.5 34.5t-5 39t-2 49.5t-0.5 39.5q-1 3 -0.5 94.5t0.5 95.5q0 50 1 83q0 23 6 25q6 1 9 -2.5t3.5 -13t0.5 -12.5t-1 -13q1 -30 0 -75.5t-1 -65.5 q0 -177 2 -211q0 -2 1 -8t1.5 -10.5t1.5 -10.5t2.5 -10.5t3.5 -9t4.5 -6.5t6.5 -2q15 -1 32 28.5t32 69.5q38 99 43 155q3 42 3 161q0 3 -0.5 14t1 17t7.5 6z" />
<glyph unicode="&#xfa;" horiz-adv-x="259" d="M195 679q2 -2 2.5 -4t-1 -5l-2.5 -5t-4 -6.5t-4 -6.5q-12 -17 -38.5 -55.5t-27.5 -39.5q-14 -19 -19 -15q-6 4 15 36l42 64q1 1 8.5 12t10.5 16q10 17 18 9zM204 466q3 0 5.5 -1t3 -4.5t0.5 -6v-7.5v-6q0 -27 -0.5 -79t-0.5 -83q0 -4 -0.5 -43t-0.5 -92v-113v-8v-9 t-0.5 -7t-2.5 -6t-5 -2q-4 0 -6.5 2t-3.5 6.5t-1 9t0.5 13t0.5 14.5q0 31 2 83t2 75q-5 -14 -12 -38t-11.5 -38.5t-13.5 -37t-21 -44.5q-25 -50 -55 -50q-12 0 -20 10.5t-11.5 34.5t-5 39t-2 49.5t-0.5 39.5q-1 3 -0.5 94.5t0.5 95.5q0 50 1 83q0 23 6 25q6 1 9 -2.5 t3.5 -13t0.5 -12.5t-1 -13q1 -30 0 -75.5t-1 -65.5q0 -177 2 -211q0 -2 1 -8t1.5 -10.5t1.5 -10.5t2.5 -10.5t3.5 -9t4.5 -6.5t6.5 -2q15 -1 32 28.5t32 69.5q38 99 43 155q3 42 3 161q0 3 -0.5 14t1 17t7.5 6z" />
<glyph unicode="&#xfb;" horiz-adv-x="259" d="M126 654q5 0 23 -27q8 -11 27.5 -47t24.5 -43q12 -17 4 -23q-2 -2 -4.5 -1.5t-3.5 1t-2.5 3t-2.5 4t-2.5 4t-2.5 4.5l-38 66q-16 26 -25 39q-1 -2 -52 -92l-3.5 -7t-4.5 -8.5l-4 -7t-4.5 -5t-4.5 -0.5q-11 3 0 24q4 8 49 88q16 28 26 28zM204 466q3 0 5.5 -1t3 -4.5 t0.5 -6v-7.5v-6q0 -27 -0.5 -79t-0.5 -83q0 -4 -0.5 -43t-0.5 -92v-113v-8v-9t-0.5 -7t-2.5 -6t-5 -2q-4 0 -6.5 2t-3.5 6.5t-1 9t0.5 13t0.5 14.5q0 31 2 83t2 75q-5 -14 -12 -38t-11.5 -38.5t-13.5 -37t-21 -44.5q-25 -50 -55 -50q-12 0 -20 10.5t-11.5 34.5t-5 39 t-2 49.5t-0.5 39.5q-1 3 -0.5 94.5t0.5 95.5q0 50 1 83q0 23 6 25q6 1 9 -2.5t3.5 -13t0.5 -12.5t-1 -13q1 -30 0 -75.5t-1 -65.5q0 -177 2 -211q0 -2 1 -8t1.5 -10.5t1.5 -10.5t2.5 -10.5t3.5 -9t4.5 -6.5t6.5 -2q15 -1 32 28.5t32 69.5q38 99 43 155q3 42 3 161 q0 3 -0.5 14t1 17t7.5 6z" />
<glyph unicode="&#xfc;" horiz-adv-x="259" d="M101 568q0 -19 -22 -19q-18 0 -18 20t22 20q18 0 18 -21zM170 589q10 0 16 -6t6 -15q0 -19 -20 -19q-19 0 -19 21q0 7 5 13t12 6zM204 466q3 0 5.5 -1t3 -4.5t0.5 -6v-7.5v-6q0 -27 -0.5 -79t-0.5 -83q0 -4 -0.5 -43t-0.5 -92v-113v-8v-9t-0.5 -7t-2.5 -6t-5 -2 q-4 0 -6.5 2t-3.5 6.5t-1 9t0.5 13t0.5 14.5q0 31 2 83t2 75q-5 -14 -12 -38t-11.5 -38.5t-13.5 -37t-21 -44.5q-25 -50 -55 -50q-12 0 -20 10.5t-11.5 34.5t-5 39t-2 49.5t-0.5 39.5q-1 3 -0.5 94.5t0.5 95.5q0 50 1 83q0 23 6 25q6 1 9 -2.5t3.5 -13t0.5 -12.5t-1 -13 q1 -30 0 -75.5t-1 -65.5q0 -177 2 -211q0 -2 1 -8t1.5 -10.5t1.5 -10.5t2.5 -10.5t3.5 -9t4.5 -6.5t6.5 -2q15 -1 32 28.5t32 69.5q38 99 43 155q3 42 3 161q0 3 -0.5 14t1 17t7.5 6z" />
<glyph unicode="&#xfd;" horiz-adv-x="221" d="M176 679q2 -2 2.5 -4t-1 -5l-2.5 -5t-4 -6.5t-4 -6.5q-12 -17 -38.5 -55.5t-27.5 -39.5q-14 -19 -19 -15q-6 4 15 36l42 64q1 1 8.5 12t10.5 16q10 17 18 9zM190 466q6 1 8.5 -2t2.5 -9.5t-1 -12.5t-2.5 -12.5t-1.5 -7.5q-6 -38 -17.5 -107t-18.5 -110q-9 -54 -36 -188 q-37 -178 -40 -190q-10 -44 -16 -64q-1 -2 -2 -6t-1.5 -6.5t-2 -5t-3 -3.5t-4.5 -1q-11 1 -5 22l9 36q28 111 40 192q-6 30 -11.5 65t-12 79t-10.5 70q-24 155 -35 208q0 2 -2 9.5t-3.5 14t-2.5 13.5t1 11.5t7 4.5q5 -1 8 -5.5t4 -9t2 -13t1 -10.5q3 -16 8.5 -48.5 t8.5 -48.5q8 -47 23.5 -152t24.5 -153q8 37 21 114t20 110q12 55 29 180q0 2 1.5 12.5t3 17t5.5 6.5z" />
<glyph unicode="&#xfe;" horiz-adv-x="254" d="M59 740q3 0 5 -1.5t3 -5t1 -6.5t0.5 -8.5t0.5 -8.5q0 -61 1 -94q1 -37 -3 -158q-1 -77 -1 -226q6 31 23 92t25 81q21 50 35 60q8 6 18 6q44 0 54 -125q11 -134 -11 -238q-25 -113 -96 -113q-21 0 -44 7q-1 -32 -1.5 -102t-1.5 -104q0 -4 0.5 -12.5t0.5 -14.5t-0.5 -12.5 t-2.5 -10t-6 -3.5q-5 0 -8 4t-3 11v13.5t1 14t1 10.5q4 16 1.5 179.5t-2.5 180.5q0 16 0.5 55.5t0.5 56.5q-1 44 1 136.5t2 129.5q0 7 -1 81t0 96q0 3 -0.5 8t-0.5 8t0.5 6.5t2.5 5t5 1.5zM165 454q-15 -2 -39 -67q-9 -24 -27.5 -91t-21.5 -85q-8 -37 -9 -48 q-3 -18 -1 -70.5t2 -68.5q17 -12 43 -12q22 0 35 9q51 35 58 216q2 44 -1 92t-13 87t-26 38z" />
<glyph unicode="&#xff;" horiz-adv-x="221" d="M82 568q0 -19 -22 -19q-18 0 -18 20t22 20q18 0 18 -21zM151 589q10 0 16 -6t6 -15q0 -19 -20 -19q-19 0 -19 21q0 7 5 13t12 6zM190 466q6 1 8.5 -2t2.5 -9.5t-1 -12.5t-2.5 -12.5t-1.5 -7.5q-6 -38 -17.5 -107t-18.5 -110q-9 -54 -36 -188q-37 -178 -40 -190 q-10 -44 -16 -64q-1 -2 -2 -6t-1.5 -6.5t-2 -5t-3 -3.5t-4.5 -1q-11 1 -5 22l9 36q28 111 40 192q-6 30 -11.5 65t-12 79t-10.5 70q-24 155 -35 208q0 2 -2 9.5t-3.5 14t-2.5 13.5t1 11.5t7 4.5q5 -1 8 -5.5t4 -9t2 -13t1 -10.5q3 -16 8.5 -48.5t8.5 -48.5q8 -47 23.5 -152 t24.5 -153q8 37 21 114t20 110q12 55 29 180q0 2 1.5 12.5t3 17t5.5 6.5z" />
<glyph unicode="&#x152;" horiz-adv-x="372" d="M166 689q15 -1 28 -11.5t20 -21.5q-2 25 11 25q24 1 112 1q30 0 30 -9q0 -7 -24 -9h-58.5t-55.5 -1q-2 -146 -5 -222q31 0 83 2q20 0 21 -7q1 -11 -48 -11q-45 0 -56 -2q0 -33 -0.5 -103.5t-0.5 -104.5q0 -26 -2 -93.5t-1 -103.5q15 0 47.5 0.5t51.5 0.5q27 0 27 -9 q0 -3 -0.5 -5.5t-3 -3t-4.5 -0.5h-6.5h-6.5h-66q-50 -3 -54 3q-2 3 -2 9t0.5 11.5t-0.5 11.5q-26 -42 -63 -42q-22 0 -39 13t-27.5 39.5t-17 48.5t-10.5 59.5t-5 50.5t-2 42q-3 92 5 202q12 163 66 217q25 25 56 23zM137 666q-52 -33 -68 -146q-18 -118 -14 -261 q2 -96 22 -172t62 -76q28 0 49 30q18 25 18 91v264q0 33 3 96.5t2 100.5q-2 41 -16 61q-12 16 -30.5 18t-27.5 -6z" />
<glyph unicode="&#x153;" horiz-adv-x="355" d="M123 471q61 0 65 -138q29 137 83 137q51 0 60 -119q8 -91 -3 -100q-2 -2 -34 -2q-10 0 -46.5 -1t-53.5 0q-6 -64 2.5 -126.5t34.5 -92.5q15 -20 36 -13q19 5 29 35t8 55q-3 24 4 25q5 1 8.5 -3t4 -12t1 -14t-0.5 -15q-2 -33 -17 -61.5t-42 -29.5q-34 -1 -54 34t-26 85 q-10 -94 -44 -115q-11 -7 -24 -7q-36 0 -55 41q-19 39 -25 105.5t-2 126.5q2 31 6.5 61t14 65.5t27.5 57t43 21.5zM122 453q-34 0 -51 -56t-21 -123q-8 -112 8.5 -187t54.5 -75q27 0 39 36q29 89 23 265q-7 140 -53 140zM270 453q-23 0 -41 -44q-33 -79 -35 -142 q18 -1 60 -0.5t60 -0.5q5 38 -3 106q-10 81 -41 81z" />
<glyph unicode="&#x178;" horiz-adv-x="263" d="M109 718q0 -19 -22 -19q-18 0 -18 20t22 20q18 0 18 -21zM178 739q10 0 16 -6t6 -15q0 -19 -20 -19q-19 0 -19 21q0 7 5 13t12 6zM254 683q9 -2 1 -21q-9 -24 -30 -97t-26 -89q-31 -99 -58 -175v-84q0 -9 -0.5 -49.5t-0.5 -72.5v-70q0 -26 -8 -27q-4 0 -6 4t-2.5 10.5 t-0.5 12.5t0.5 13.5t0.5 10.5v192v56q-8 27 -28.5 91.5t-23.5 77.5q-23 91 -57 187q-8 25 -5 28q4 3 7 3t5.5 -2t4.5 -5t3.5 -8.5t3 -10t3 -11.5t2.5 -11q0 -1 16 -54t23 -77q21 -77 55 -176q29 85 42 130q6 18 20.5 67.5t27.5 91t16 50.5q2 5 3.5 8t4.5 5.5t7 1.5z" />
<glyph unicode="&#x2c6;" horiz-adv-x="239" d="M121 654q5 0 23 -27q8 -11 27.5 -47t24.5 -43q12 -17 4 -23q-2 -2 -4.5 -1.5t-3.5 1t-2.5 3t-2.5 4t-2.5 4t-2.5 4.5l-38 66q-16 26 -25 39q-1 -2 -52 -92l-3.5 -7t-4.5 -8.5l-4 -7t-4.5 -5t-4.5 -0.5q-11 3 0 24q4 8 49 88q16 28 26 28z" />
<glyph unicode="&#x2dc;" horiz-adv-x="219" d="M77 653q13 0 26 -26t24 -52t19 -25q11 1 16 35t5 63q0 8 8 8t7 -13q-3 -109 -38 -110q-17 -1 -38.5 51t-28.5 52q-18 0 -21 -89q0 -11 -9 -11q-8 0 -7 12q0 1 1.5 20t3.5 29.5t5.5 25.5t10.5 22.5t16 7.5z" />
<glyph unicode="&#x2000;" horiz-adv-x="406" />
<glyph unicode="&#x2001;" horiz-adv-x="813" />
<glyph unicode="&#x2002;" horiz-adv-x="406" />
<glyph unicode="&#x2003;" horiz-adv-x="813" />
<glyph unicode="&#x2004;" horiz-adv-x="271" />
<glyph unicode="&#x2005;" horiz-adv-x="203" />
<glyph unicode="&#x2006;" horiz-adv-x="135" />
<glyph unicode="&#x2007;" horiz-adv-x="135" />
<glyph unicode="&#x2008;" horiz-adv-x="101" />
<glyph unicode="&#x2009;" horiz-adv-x="162" />
<glyph unicode="&#x200a;" horiz-adv-x="45" />
<glyph unicode="&#x2010;" horiz-adv-x="158" d="M61 270h55h6h6h5t4.5 -0.5t3 -1.5t2 -2.5t0.5 -3.5q0 -8 -44 -8l-59 -1q-23 0 -24 9q-1 8 45 8z" />
<glyph unicode="&#x2011;" horiz-adv-x="158" d="M61 270h55h6h6h5t4.5 -0.5t3 -1.5t2 -2.5t0.5 -3.5q0 -8 -44 -8l-59 -1q-23 0 -24 9q-1 8 45 8z" />
<glyph unicode="&#x2012;" horiz-adv-x="158" d="M61 270h55h6h6h5t4.5 -0.5t3 -1.5t2 -2.5t0.5 -3.5q0 -8 -44 -8l-59 -1q-23 0 -24 9q-1 8 45 8z" />
<glyph unicode="&#x2013;" horiz-adv-x="262" d="M52 272h60q65 0 122 -3h7t7 -0.5t4.5 -1.5t3.5 -2.5t1 -4.5t-4.5 -5t-11.5 -2.5t-13.5 -0.5t-14 0.5t-10.5 0.5q-38 0 -81.5 1t-56 1t-36.5 -1q-24 0 -24 8q0 10 47 10z" />
<glyph unicode="&#x2014;" horiz-adv-x="457" d="M92 270q216 0 259 -2l41 -1q23 0 23 -9q0 -3 -4.5 -5t-11.5 -2.5t-13.5 -0.5t-14 0.5t-10.5 0.5q-41 0 -98 1t-101 1q-82 0 -93 -1q-24 0 -24 8q0 10 47 10z" />
<glyph unicode="&#x2018;" horiz-adv-x="98" d="M41 583q-18 7 -20 37q-5 62 43 123q9 12 18 11q4 0 4 -6q0 -2 -6 -10t-14 -20t-12 -21q-16 -38 -13 -65q28 0 29 -25q1 -12 -8.5 -20t-20.5 -4z" />
<glyph unicode="&#x2019;" horiz-adv-x="98" d="M57 744q18 -7 20 -37q5 -62 -43 -123q-9 -12 -18 -11q-4 0 -4 6q0 2 6 10t14 20t12 21q16 38 13 65q-28 0 -29 25q-1 12 8.5 20t20.5 4z" />
<glyph unicode="&#x201a;" horiz-adv-x="104" d="M53 43q18 -7 20 -37q5 -62 -43 -123q-9 -12 -18 -11q-4 0 -4 6q0 2 6 10t14 20t12 21q16 38 13 65q-28 0 -29 25q-1 12 8.5 20t20.5 4z" />
<glyph unicode="&#x201c;" horiz-adv-x="179" d="M41 583q-18 7 -20 37q-5 62 43 123q9 12 18 11q4 0 4 -6q0 -2 -6 -10t-14 -20t-12 -21q-16 -38 -13 -65q28 0 29 -25q1 -12 -8.5 -20t-20.5 -4zM121 583q-18 7 -20 37q-5 62 43 123q9 12 18 11q3 -2 4 -6q0 -2 -6 -10t-14 -20t-12 -21q-16 -38 -13 -65q28 0 29 -25 q1 -12 -8.5 -20t-20.5 -4z" />
<glyph unicode="&#x201d;" horiz-adv-x="179" d="M59 743q18 -7 20 -37q5 -62 -43 -123q-9 -12 -18 -11q-4 0 -4 6q0 2 6 10t14 20t12 21q16 38 13 65q-28 0 -29 25q-1 12 8.5 20t20.5 4zM138 743q18 -7 20 -37q5 -62 -43 -123q-9 -12 -18 -11q-4 0 -4 6q0 2 6 10t14 20t12 21q16 38 13 65q-28 0 -29 25q-1 12 8.5 20 t20.5 4z" />
<glyph unicode="&#x201e;" horiz-adv-x="179" d="M137 44q18 -7 20 -37q5 -62 -43 -123q-9 -12 -18 -11q-4 0 -4 6q0 2 6 10t14 20t12 21q16 38 13 65q-28 0 -29 25q-1 12 8.5 20t20.5 4zM59 43q18 -7 20 -37q5 -62 -43 -123q-9 -12 -18 -11q-4 0 -4 6q0 2 6 10t14 20t12 21q16 38 13 65q-28 0 -29 25q-1 12 8.5 20 t20.5 4z" />
<glyph unicode="&#x2022;" horiz-adv-x="238" d="M110 386q71 6 77 -68q3 -33 -21 -55t-57 -18q-20 3 -35.5 17t-20.5 32q-9 28 9 59t48 33z" />
<glyph unicode="&#x2026;" horiz-adv-x="281" d="M235 43q21 -5 17 -30q-1 -7 -8.5 -12t-14.5 -5q-22 0 -22 23q0 11 7.5 18.5t20.5 5.5zM51 43q22 0 22 -23q0 -11 -7.5 -18.5t-20.5 -5.5q-21 5 -17 30q1 7 8.5 12t14.5 5zM148 42q17 -3 17 -21q0 -10 -7 -17.5t-19 -7.5q-9 0 -16 8.5t-5 20.5q5 21 30 17z" />
<glyph unicode="&#x202f;" horiz-adv-x="162" />
<glyph unicode="&#x2039;" horiz-adv-x="208" d="M146 418q3 1 5 -0.5t2 -5t-3 -10.5q-4 -7 -17 -30t-16 -28q-6 -11 -20 -35t-25 -43l-11 -18q0 -4 18 -36q13 -24 34.5 -59t28.5 -47q15 -29 9 -33t-11.5 4t-26.5 45q-71 125 -71 126q0 7 26 46q29 48 54 93q15 28 24 31z" />
<glyph unicode="&#x203a;" horiz-adv-x="207" d="M57 416q3 4 7.5 1t7.5 -8l23 -41q70 -119 70 -126q0 -3 -24.5 -44.5t-33.5 -54.5q-4 -5 -13.5 -24t-18.5 -33t-14 -14q-3 -1 -4.5 1.5t-1.5 6t2 8.5q4 7 17 30t16 28l7.5 12.5t9.5 16.5t11 18.5t11 18.5t9 15.5t6 10.5l3 4q0 3 -17 32t-38 64.5t-26 45.5q-12 25 -9 32z " />
<glyph unicode="&#x205f;" horiz-adv-x="203" />
<glyph unicode="&#x20ac;" horiz-adv-x="271" d="M180 682q24 3 39 -13t19 -41q6 -39 -6 -40q-3 0 -5 1.5t-3 4.5t-1.5 6t-1 8t-0.5 8q-4 48 -34 48q-72 0 -99 -247q15 0 41.5 0.5t43.5 0.5q2 0 8.5 0.5t12 0.5t11.5 -0.5t10 -2t4 -4.5t-0.5 -5t-2.5 -3.5t-3.5 -2t-5 -0.5h-6h-6.5h-6q-16 0 -53.5 -1t-66.5 -1 q-2 0 -13 -0.5t-17 0t-14 1.5t-12 3.5t-4 7.5t11 6t27.5 0t22.5 0q3 40 10 79.5t19 82.5t33 71t48 32zM66 329h120q28 0 29 -7q0 -4 -3 -6t-7.5 -3t-10.5 -1q-10 2 -54 0.5t-56 -1.5q-3 -72 7 -151q18 -146 84 -146q20 0 34 26.5t16 64.5q0 20 11 20q7 -5 5.5 -23.5 t-6.5 -37.5q-18 -68 -60 -68q-26 0 -44.5 14t-29.5 42t-15 44t-9 46q-11 75 -11 169h-20.5t-28 2t-9.5 7q0 9 58 9z" />
<glyph unicode="&#x2122;" horiz-adv-x="364" d="M277 684q5 1 8 -3.5t5 -13t3 -16.5t1.5 -20.5t1.5 -18.5q2 -20 5.5 -81t5.5 -81q3 -37 -7 -37q-7 0 -11 52q-2 23 -6 89.5t-6 90.5q-2 -10 -13 -73.5t-16 -85.5q-5 -18 -10 -19q-3 -1 -5.5 0.5t-4 6t-2 6.5t-1.5 8q-6 33 -13 85t-10 72l-19 -213q-2 -19 -10 -19 q-3 0 -5 3t-2 9t0.5 11t1.5 11.5t1 8.5q1 9 7.5 89.5t8.5 95.5q4 42 16 42q11 0 15 -27q8 -45 21 -147q4 16 13 73.5t14 76.5q6 24 13 25zM133 682q31 2 32 -8q1 -9 -26 -9q-21 0 -31 -1q-2 -104 -2 -206q0 -2 0.5 -16t-1.5 -21t-8 -7q-8 1 -8 20v97v39.5v55.5v38 q-8 1 -21.5 0t-26.5 1t-13 8q0 9 25 9h45h13h13h9z" />
<glyph unicode="&#x25fc;" horiz-adv-x="465" d="M0 465h465v-465h-465v465z" />
</font>
</defs>
</svg>
