<?xml version="1.0" encoding="UTF-8" standalone="no"?>
<svg
   xmlns:dc="http://purl.org/dc/elements/1.1/"
   xmlns:cc="http://creativecommons.org/ns#"
   xmlns:rdf="http://www.w3.org/1999/02/22-rdf-syntax-ns#"
   xmlns:svg="http://www.w3.org/2000/svg"
   xmlns="http://www.w3.org/2000/svg"
   viewBox="0 0 642.08374 228.75"
   xml:space="preserve"
   version="1.1"
   id="svg2"><metadata
     id="metadata8"><rdf:RDF><cc:Work
         rdf:about=""><dc:format>image/svg+xml</dc:format><dc:type
           rdf:resource="http://purl.org/dc/dcmitype/StillImage" /></cc:Work></rdf:RDF></metadata><defs
     id="defs6"><clipPath
       id="clipPath16"
       clipPathUnits="userSpaceOnUse"><path
         id="path18"
         d="m 0,183 513.667,0 0,-183 L 0,0 0,183 Z" /></clipPath></defs><g
     transform="matrix(1.25,0,0,-1.25,0,228.75)"
     id="g10"><g
       id="g12"><g
         clip-path="url(#clipPath16)"
         id="g14"><g
           transform="translate(34.0635,74.8535)"
           id="g20"><path
             id="path22"
             style="fill:#fff;fill-opacity:1;fill-rule:nonzero;stroke:none"
             d="m 0,0 c -0.842,-2.155 -1.835,-4.372 -2.976,-6.659 -1.146,-2.287 -2.287,-4.422 -3.433,-6.409 -1.141,-1.983 -2.085,-3.346 -2.824,-4.085 -0.472,-0.468 -0.994,-0.874 -1.564,-1.211 -0.571,-0.336 -1.195,-0.505 -1.864,-0.505 -0.542,0 -1.027,0.201 -1.466,0.608 -0.435,0.402 -0.653,0.874 -0.653,1.412 0,1.95 0.538,3.999 1.614,6.154 1.075,2.152 2.434,4.221 4.085,6.204 1.646,1.983 3.411,3.801 5.296,5.452 1.884,1.646 3.633,2.906 5.247,3.781 C 1.326,3.732 0.842,2.151 0,0 m 59.427,15.589 c 0.505,0.505 0.759,1.124 0.759,1.868 0,1.141 -0.34,1.896 -1.01,2.27 -0.673,0.369 -1.482,0.653 -2.422,0.858 -1.01,0.267 -2.02,0.419 -3.026,0.451 -1.01,0.033 -2.02,0.05 -3.029,0.05 l -4.943,0 c -1.614,0 -3.264,-0.066 -4.943,-0.201 0.94,2.758 2.015,5.616 3.226,8.576 1.212,2.96 2.525,5.887 3.938,8.777 1.412,2.895 2.906,5.719 4.487,8.478 1.581,2.755 3.215,5.346 4.894,7.768 0.336,0.538 0.776,1.075 1.313,1.613 0.538,0.538 1.06,1.113 1.565,1.716 0.505,0.608 0.923,1.228 1.26,1.868 0.337,0.637 0.505,1.294 0.505,1.967 0,0.739 -0.439,1.108 -1.314,1.108 -0.673,0 -1.396,-0.299 -2.167,-0.907 -0.772,-0.603 -1.515,-1.33 -2.222,-2.168 C 55.592,58.84 54.919,57.998 54.283,57.156 53.642,56.315 53.154,55.625 52.821,55.091 48.987,49.639 45.538,43.99 42.475,38.14 39.417,32.286 36.707,26.267 34.355,20.08 30.454,19.673 26.62,18.951 22.851,17.908 19.086,16.865 15.318,15.74 11.553,14.529 c 1.141,4.438 2.118,8.946 2.927,13.52 0.805,4.573 1.211,9.184 1.211,13.823 0,1.749 -0.152,3.596 -0.456,5.55 -0.303,1.95 -0.858,3.732 -1.666,5.346 -0.805,1.617 -1.918,2.96 -3.33,4.035 -1.412,1.076 -3.227,1.618 -5.448,1.618 -0.468,0 -1.26,-0.103 -2.369,-0.304 -1.112,-0.201 -2.221,-0.488 -3.329,-0.858 -1.113,-0.369 -2.102,-0.792 -2.977,-1.26 -0.874,-0.472 -1.314,-1.01 -1.314,-1.614 0,-0.472 0.255,-0.895 0.76,-1.264 0.505,-0.37 0.957,-0.554 1.359,-0.554 0.608,0 1.162,0.119 1.667,0.353 0.505,0.234 1.059,0.353 1.662,0.353 1.347,0 2.439,-0.489 3.281,-1.462 C 4.372,50.834 5.009,49.672 5.448,48.33 5.883,46.983 6.187,45.587 6.355,44.142 6.524,42.697 6.61,41.469 6.61,40.46 6.61,39.987 6.524,38.945 6.355,37.331 6.187,35.718 5.969,33.833 5.703,31.682 5.432,29.527 5.111,27.277 4.742,24.92 4.372,22.568 4.036,20.38 3.732,18.364 3.432,16.344 3.145,14.681 2.874,13.367 2.607,12.058 2.406,11.335 2.27,11.2 1.125,10.325 -0.086,9.517 -1.363,8.778 -2.64,8.039 -3.851,7.23 -4.996,6.355 -6.675,5.078 -8.424,3.58 -10.239,1.868 -12.058,0.152 -13.72,-1.7 -15.235,-3.683 c -1.515,-1.983 -2.743,-4.068 -3.683,-6.256 -0.94,-2.184 -1.412,-4.422 -1.412,-6.709 0,-2.759 0.722,-4.996 2.167,-6.708 1.446,-1.716 3.617,-2.574 6.508,-2.574 2.019,0 3.92,0.624 5.702,1.868 1.782,1.244 3.395,2.874 4.845,4.894 1.445,2.015 2.771,4.286 3.982,6.806 1.211,2.525 2.287,5.063 3.231,7.62 0.94,2.554 1.765,4.992 2.471,7.316 0.707,2.32 1.294,4.253 1.766,5.801 3.633,1.614 7.316,3.01 11.048,4.188 3.731,1.174 7.517,2.135 11.351,2.874 C 31.596,12.21 30.688,8.864 30.015,5.399 29.342,1.934 29.009,-1.515 29.009,-4.943 c 0,-1.548 0.115,-3.231 0.353,-5.046 0.234,-1.814 0.756,-3.399 1.565,-4.741 0.332,-0.608 0.837,-1.212 1.51,-1.815 0.674,-0.608 1.38,-0.911 2.119,-0.911 0.472,0 0.961,0.188 1.465,0.558 0.501,0.365 0.756,0.821 0.756,1.359 0,0.201 -0.119,0.538 -0.353,1.01 -0.238,0.472 -0.505,1.059 -0.809,1.765 -0.3,0.706 -0.571,1.499 -0.805,2.373 -0.238,0.87 -0.353,1.815 -0.353,2.825 0,1.814 0.115,3.781 0.353,5.903 0.234,2.119 0.571,4.237 1.006,6.356 0.439,2.118 0.961,4.204 1.564,6.256 0.608,2.049 1.314,3.884 2.119,5.498 1.281,0.135 2.541,0.25 3.785,0.353 1.244,0.102 2.504,0.152 3.785,0.152 1.881,0 3.662,-0.354 5.346,-1.06 1.683,-0.706 3.395,-1.059 5.148,-1.059 0.739,0 1.359,0.251 1.864,0.756" /></g><g
           transform="translate(113.7222,75.9127)"
           id="g24"><path
             id="path26"
             style="fill:#fff;fill-opacity:1;fill-rule:nonzero;stroke:none"
             d="m 0,0 c -0.271,-1.65 -0.69,-3.247 -1.26,-4.791 -0.575,-1.548 -1.314,-3.014 -2.221,-4.389 -0.908,-1.379 -2.004,-2.574 -3.281,-3.584 -0.673,-0.538 -1.396,-0.994 -2.167,-1.363 -0.776,-0.369 -1.602,-0.554 -2.472,-0.554 -1.01,0 -1.852,0.287 -2.525,0.858 -0.673,0.57 -1.194,1.26 -1.564,2.069 -0.369,0.809 -0.62,1.7 -0.755,2.673 -0.136,0.977 -0.202,1.868 -0.202,2.676 0,1.544 0.251,3.461 0.756,5.748 0.505,2.287 1.244,4.508 2.221,6.659 0.973,2.156 2.184,4.003 3.633,5.551 1.445,1.548 3.108,2.319 4.993,2.319 1.075,0 1.95,-0.32 2.623,-0.956 0.673,-0.641 1.211,-1.412 1.613,-2.32 C -0.201,9.685 0.066,8.691 0.201,7.62 0.337,6.54 0.402,5.6 0.402,4.791 0.402,3.243 0.267,1.646 0,0 m 2.673,15.892 c -0.707,1.343 -1.663,2.455 -2.874,3.33 -1.211,0.874 -2.759,1.309 -4.643,1.309 -3.026,0 -5.699,-0.923 -8.023,-2.775 -2.319,-1.847 -4.286,-4.118 -5.899,-6.807 -1.618,-2.693 -2.845,-5.587 -3.683,-8.679 -0.841,-3.095 -1.264,-5.92 -1.264,-8.473 0,-1.482 0.168,-3.03 0.505,-4.644 0.336,-1.613 0.874,-3.062 1.613,-4.339 0.743,-1.277 1.733,-2.336 2.977,-3.178 1.244,-0.837 2.775,-1.26 4.594,-1.26 1.412,0 2.787,0.25 4.134,0.755 1.346,0.505 2.59,1.129 3.736,1.868 1.95,1.277 3.596,2.825 4.943,4.644 1.342,1.814 2.455,3.764 3.329,5.85 0.875,2.085 1.511,4.253 1.918,6.507 0.402,2.254 0.603,4.491 0.603,6.708 0,1.548 -0.152,3.129 -0.451,4.742 -0.304,1.618 -0.809,3.096 -1.515,4.442" /></g><g
           transform="translate(230.6626,49.2764)"
           id="g28"><path
             id="path30"
             style="fill:#fff;fill-opacity:1;fill-rule:nonzero;stroke:none"
             d="m 0,0 c -0.542,-2.726 -1.195,-5.464 -1.971,-8.223 -0.771,-2.759 -1.679,-5.399 -2.722,-7.92 -1.042,-2.525 -2.237,-4.655 -3.584,-6.408 -0.468,-0.604 -1.005,-1.261 -1.613,-1.967 -0.604,-0.706 -1.26,-1.363 -1.967,-1.966 -0.706,-0.608 -1.445,-1.113 -2.221,-1.515 -0.771,-0.403 -1.564,-0.604 -2.369,-0.604 -0.808,0 -1.465,0.218 -1.966,0.653 -0.505,0.439 -0.911,0.977 -1.211,1.617 -0.304,0.641 -0.505,1.347 -0.608,2.119 -0.098,0.772 -0.152,1.461 -0.152,2.069 0,2.96 0.723,5.85 2.172,8.675 1.445,2.824 3.243,5.501 5.399,8.022 2.151,2.521 4.471,4.861 6.959,7.012 2.487,2.151 4.807,4.106 6.962,5.85 C 0.907,5.198 0.538,2.726 0,0 m -49.947,32.006 c 0.607,1.93 1.346,3.859 2.221,5.789 0.874,1.925 1.819,3.617 2.824,5.074 1.01,1.454 2.02,2.18 3.03,2.18 0.669,0 1.125,-0.254 1.359,-0.759 0.238,-0.509 0.353,-1.035 0.353,-1.573 0,-1.354 -0.369,-2.758 -1.108,-4.212 -0.739,-1.457 -1.651,-2.878 -2.726,-4.261 -1.076,-1.388 -2.254,-2.64 -3.531,-3.757 -1.277,-1.116 -2.455,-2.016 -3.531,-2.689 0.136,0.879 0.505,2.283 1.109,4.208 M 8.728,40.915 C 8.49,41.987 8.17,42.66 7.768,42.931 7.094,43.403 6.421,43.637 5.752,43.637 4.943,43.637 4.253,43.3 3.683,42.627 3.108,41.954 2.586,41.35 2.118,40.813 c -2.422,-3.096 -4.795,-6.204 -7.114,-9.332 -2.32,-3.129 -4.861,-6.105 -7.616,-8.93 -0.271,-0.271 -0.727,-0.706 -1.363,-1.313 -0.64,-0.604 -1.314,-1.212 -2.02,-1.815 -0.706,-0.608 -1.396,-1.145 -2.065,-1.613 -0.673,-0.473 -1.211,-0.707 -1.618,-0.707 -0.537,0 -0.841,0.267 -0.907,0.805 -0.066,0.538 -0.098,0.977 -0.098,1.314 0,0.94 0.147,2.118 0.451,3.531 0.304,1.412 0.674,2.89 1.113,4.438 0.435,1.547 0.907,3.029 1.412,4.442 0.501,1.412 0.924,2.553 1.26,3.428 0.337,0.809 0.772,1.798 1.31,2.976 0.538,1.179 0.809,2.205 0.809,3.079 0,1.142 -0.439,2.119 -1.314,2.923 -0.874,0.809 -1.88,1.212 -3.026,1.212 -0.94,0 -1.716,-0.267 -2.319,-0.805 -0.608,-0.542 -1.109,-1.211 -1.515,-2.02 -0.337,-0.603 -0.587,-1.228 -0.756,-1.864 -0.168,-0.64 -0.353,-1.297 -0.554,-1.971 -0.944,-2.89 -1.765,-5.887 -2.471,-8.978 -0.385,-1.685 -0.655,-3.359 -0.83,-5.023 -0.746,-1.117 -1.558,-2.234 -2.451,-3.352 -1.346,-1.68 -2.824,-3.178 -4.442,-4.488 -1.613,-1.313 -3.362,-2.389 -5.242,-3.231 -1.885,-0.841 -3.905,-1.26 -6.056,-1.26 -2.357,0 -4.036,0.657 -5.046,1.971 -1.01,1.317 -1.51,3.12 -1.51,5.415 0,1.281 0.164,2.697 0.5,4.249 1.548,0.538 3.231,1.548 5.046,3.034 1.819,1.482 3.514,3.186 5.095,5.111 1.581,1.922 2.894,3.909 3.937,5.965 1.043,2.057 1.564,3.929 1.564,5.617 0,1.753 -0.488,3.202 -1.465,4.351 -0.973,1.146 -2.369,1.721 -4.188,1.721 -2.689,0 -5.16,-1.047 -7.414,-3.129 -2.254,-2.085 -4.188,-4.627 -5.801,-7.619 -1.614,-2.993 -2.862,-6.101 -3.732,-9.332 -0.443,-1.635 -0.772,-3.147 -0.992,-4.541 -0.108,-0.169 -0.208,-0.33 -0.322,-0.505 -1.01,-1.548 -2.155,-3.042 -3.432,-4.487 -1.277,-1.449 -2.607,-2.693 -3.983,-3.736 -1.379,-1.043 -2.742,-1.564 -4.089,-1.564 -0.804,0 -1.428,0.205 -1.864,0.607 -0.439,0.403 -0.759,0.908 -0.96,1.515 -0.201,0.604 -0.32,1.261 -0.353,1.967 -0.033,0.706 -0.05,1.363 -0.05,1.966 0,2.353 0.066,4.709 0.202,7.062 0.135,2.356 0.201,4.709 0.201,7.065 0,0.739 -0.033,1.647 -0.099,2.722 -0.07,1.076 -0.254,2.151 -0.558,3.231 -0.3,1.072 -0.755,1.983 -1.359,2.722 -0.608,0.739 -1.412,1.109 -2.422,1.109 -1.281,0 -2.776,-0.739 -4.492,-2.217 -1.716,-1.482 -3.415,-3.199 -5.094,-5.149 -1.684,-1.95 -3.248,-3.933 -4.693,-5.953 -1.445,-2.015 -2.537,-3.563 -3.276,-4.639 0.267,1.95 0.603,3.9 1.006,5.851 0.406,1.95 0.977,3.867 1.716,5.751 0.607,1.614 1.194,3.379 1.765,5.296 0.571,1.918 0.858,3.753 0.858,5.502 0,1.075 -0.218,1.917 -0.657,2.52 -0.435,0.608 -1.227,0.908 -2.369,0.908 -1.281,0 -2.508,-0.501 -3.682,-1.511 -1.179,-1.01 -1.901,-2.118 -2.172,-3.33 -0.337,-1.547 -0.636,-3.128 -0.907,-4.741 -0.267,-1.618 -0.571,-3.199 -0.908,-4.742 -1.01,-4.845 -2.036,-9.89 -3.075,-15.137 -1.047,-5.247 -1.564,-10.358 -1.564,-15.334 0,-0.673 0.164,-1.265 0.501,-1.765 0.337,-0.505 0.874,-0.76 1.618,-0.76 0.94,0 1.765,0.337 2.471,1.01 0.706,0.673 1.26,1.412 1.663,2.221 1.145,2.554 2.323,5.058 3.53,7.517 1.212,2.451 2.558,4.857 4.036,7.214 1.211,1.95 2.558,3.998 4.04,6.154 1.478,2.151 3.059,4.035 4.742,5.649 0.267,0.267 0.636,0.607 1.108,1.01 0.468,0.402 0.875,0.603 1.211,0.603 0.403,0 0.657,-0.267 0.756,-0.804 0.102,-0.542 0.152,-0.945 0.152,-1.212 0,-1.954 -0.066,-3.867 -0.201,-5.751 -0.136,-1.885 -0.202,-3.802 -0.202,-5.752 0,-1.277 0.05,-2.689 0.152,-4.237 0.099,-1.548 0.403,-2.993 0.908,-4.339 0.505,-1.347 1.244,-2.472 2.217,-3.379 0.977,-0.908 2.34,-1.363 4.089,-1.363 1.88,0 3.814,0.607 5.801,1.818 1.983,1.207 3.867,2.69 5.649,4.438 0.791,0.777 1.535,1.58 2.247,2.402 0.101,-0.802 0.241,-1.587 0.43,-2.352 0.402,-1.647 1.059,-3.096 1.966,-4.34 0.907,-1.244 2.069,-2.254 3.482,-3.025 1.412,-0.772 3.128,-1.158 5.144,-1.158 2.759,0 5.415,0.46 7.973,1.379 2.553,0.924 4.943,2.168 7.164,3.736 2.215,1.563 4.249,3.388 6.095,5.472 0.021,-0.184 0.033,-0.362 0.059,-0.549 0.131,-0.977 0.402,-1.852 0.804,-2.624 0.407,-0.776 0.961,-1.412 1.667,-1.917 0.706,-0.505 1.63,-0.755 2.775,-0.755 1.68,0 3.683,0.821 6.003,2.471 2.319,1.646 4.622,3.597 6.909,5.85 2.287,2.254 4.389,4.541 6.306,6.861 1.917,2.323 3.281,4.187 4.089,5.599 0.201,-5.246 0.3,-10.46 0.3,-15.637 l 0,-2.927 c 0,-0.941 -0.033,-1.885 -0.099,-2.825 -2.623,-1.683 -5.464,-3.765 -8.527,-6.257 -3.058,-2.488 -5.92,-5.193 -8.576,-8.12 -2.656,-2.928 -4.877,-6.035 -6.659,-9.332 -1.782,-3.297 -2.673,-6.626 -2.673,-9.989 0,-1.346 0.152,-2.677 0.456,-3.986 0.3,-1.31 0.788,-2.472 1.462,-3.482 0.673,-1.01 1.547,-1.831 2.623,-2.471 1.076,-0.641 2.385,-0.957 3.933,-0.957 1.618,0 3.161,0.3 4.643,0.908 1.478,0.603 2.858,1.379 4.139,2.319 1.276,0.944 2.471,2.036 3.58,3.28 1.108,1.244 2.069,2.505 2.873,3.782 2.488,3.834 4.422,7.972 5.801,12.41 1.38,4.438 2.423,9 3.129,13.672 0.706,4.676 1.145,9.385 1.314,14.127 0.168,4.741 0.25,9.331 0.25,13.769 l 0,2.525 c 0,1.142 -0.049,2.32 -0.152,3.531 -0.098,1.211 -0.267,2.352 -0.501,3.432" /></g><g
           transform="translate(267.7925,57.2985)"
           id="g32"><path
             id="path34"
             style="fill:#fff;fill-opacity:1;fill-rule:nonzero;stroke:none"
             d="m 0,0 c 0,-1.347 -0.053,-2.673 -0.152,-3.986 -0.103,-1.31 -0.287,-2.64 -0.554,-3.987 -0.136,-0.87 -0.423,-2.081 -0.858,-3.629 -0.439,-1.548 -0.994,-3.063 -1.667,-4.541 -0.673,-1.482 -1.478,-2.759 -2.422,-3.834 -0.94,-1.076 -2.016,-1.614 -3.227,-1.614 -0.944,0 -1.7,0.653 -2.27,1.967 -0.571,1.309 -1.01,2.841 -1.314,4.59 -0.3,1.749 -0.489,3.448 -0.554,5.095 -0.066,1.65 -0.099,2.841 -0.099,3.584 0,4.774 0.267,9.516 0.805,14.225 0.537,4.705 1.178,9.414 1.917,14.123 1.95,-1.006 3.584,-2.32 4.894,-3.933 1.313,-1.613 2.373,-3.399 3.177,-5.349 C -1.515,10.76 -0.928,8.708 -0.558,6.556 -0.189,4.405 0,2.32 0,0.304 L 0,0 Z M 10.239,29.26 C 9.87,29.391 9.484,29.461 9.077,29.461 8.539,29.461 8.018,29.412 7.517,29.309 7.012,29.21 6.491,29.091 5.953,28.956 5.144,28.82 4.335,28.722 3.531,28.652 2.722,28.586 1.88,28.554 1.006,28.554 c -0.604,0 -1.359,0.016 -2.27,0.049 -0.908,0.033 -1.832,0.082 -2.772,0.152 -0.944,0.065 -1.851,0.168 -2.726,0.304 -0.874,0.131 -1.58,0.299 -2.118,0.505 1.141,7.061 2.792,13.97 4.943,20.732 2.151,6.762 4.643,13.4 7.468,19.928 0.87,1.95 1.798,3.884 2.775,5.801 0.973,1.918 1.897,3.851 2.771,5.801 0.271,0.538 0.489,1.092 0.657,1.663 0.168,0.571 0.255,1.195 0.255,1.868 0,0.809 -0.189,1.515 -0.559,2.118 -0.369,0.608 -1.026,0.908 -1.966,0.908 -0.604,0 -1.277,-0.099 -2.016,-0.3 C 4.705,87.882 3.966,87.611 3.227,87.274 2.488,86.938 1.798,86.552 1.158,86.112 0.517,85.677 0,85.258 -0.406,84.852 c -0.538,-0.603 -0.973,-1.277 -1.31,-2.016 -0.337,-0.743 -0.673,-1.482 -1.01,-2.221 -5.046,-13.117 -8.827,-26.316 -11.352,-39.601 -2.52,-13.286 -3.781,-26.99 -3.781,-41.117 0,-0.94 0.013,-2.233 0.049,-3.883 0.033,-1.647 0.136,-3.396 0.304,-5.247 0.164,-1.848 0.419,-3.732 0.756,-5.649 0.336,-1.918 0.821,-3.667 1.461,-5.247 0.641,-1.581 1.445,-2.858 2.422,-3.835 0.973,-0.973 2.172,-1.461 3.585,-1.461 3.226,0 5.899,1.006 8.018,3.026 2.118,2.015 3.818,4.491 5.094,7.414 1.281,2.927 2.172,6.023 2.677,9.282 0.505,3.264 0.756,6.142 0.756,8.63 0,1.614 -0.103,3.395 -0.304,5.346 -0.201,1.95 -0.538,3.9 -1.006,5.85 -0.472,1.95 -1.113,3.801 -1.917,5.55 -0.809,1.749 -1.852,3.194 -3.129,4.34 0.875,0 1.881,-0.016 3.026,-0.049 1.141,-0.037 2.221,0.049 3.227,0.25 1.01,0.201 1.868,0.608 2.574,1.211 0.706,0.604 1.059,1.548 1.059,2.825 0,0.538 -0.184,0.874 -0.554,1.01" /></g><g
           transform="translate(412.174,86.7593)"
           id="g36"><path
             id="path38"
             style="fill:#fff;fill-opacity:1;fill-rule:nonzero;stroke:none"
             d="m 0,0 c 0,1.478 0.135,3.445 0.402,5.904 0.271,2.455 0.657,5.16 1.162,8.12 0.505,2.96 1.092,6.019 1.766,9.18 0.673,3.161 1.395,6.158 2.167,8.983 0.776,2.825 1.597,5.329 2.476,7.517 0.87,2.184 1.745,3.781 2.623,4.791 0.201,0.201 0.435,0.435 0.706,0.706 0.267,0.267 0.571,0.403 0.908,0.403 0.267,0 0.468,-0.115 0.603,-0.353 0.136,-0.234 0.234,-0.522 0.304,-0.858 0.066,-0.337 0.103,-0.674 0.103,-1.006 l 0,-0.608 c 0,-3.095 -0.44,-6.593 -1.314,-10.493 C 11.031,28.385 9.939,24.448 8.626,20.482 7.316,16.512 5.887,12.645 4.339,8.88 2.792,5.111 1.347,1.815 0,-1.01 L 0,0 Z m -10.342,-12.308 c -1.449,-1.614 -3.042,-3.231 -4.791,-4.845 -1.753,-1.613 -3.498,-3.025 -5.247,-4.237 -1.753,-1.211 -3.165,-1.814 -4.236,-1.814 -0.542,0 -0.846,0.25 -0.912,0.755 -0.066,0.505 -0.098,0.924 -0.098,1.261 0,2.085 0.505,4.372 1.51,6.86 1.01,2.488 2.357,4.795 4.036,6.914 1.683,2.118 3.601,3.9 5.752,5.345 2.151,1.445 4.372,2.172 6.659,2.172 l 0,-4.34 c 0,-1.412 0.066,-2.861 0.201,-4.339 -0.468,-0.875 -1.429,-2.119 -2.874,-3.732 m 35.11,3.732 c -0.168,0.468 -0.554,0.706 -1.157,0.706 -0.674,0 -1.281,-0.403 -1.819,-1.211 -0.538,-0.805 -0.973,-1.478 -1.31,-2.016 -0.673,-1.145 -1.597,-2.525 -2.775,-4.138 -1.178,-1.614 -2.455,-3.145 -3.835,-4.59 -1.379,-1.45 -2.841,-2.673 -4.388,-3.683 -1.548,-1.01 -3.063,-1.515 -4.541,-1.515 -1.006,0 -1.815,0.673 -2.422,2.02 -0.604,1.343 -1.043,2.907 -1.31,4.688 -0.271,1.782 -0.439,3.535 -0.505,5.247 -0.066,1.716 -0.098,2.944 -0.098,3.683 1.613,3.161 3.411,6.93 5.394,11.302 1.983,4.373 3.835,8.893 5.551,13.569 1.716,4.676 3.145,9.299 4.286,13.876 1.145,4.574 1.716,8.61 1.716,12.107 0,0.871 -0.066,1.934 -0.201,3.178 -0.136,1.244 -0.403,2.439 -0.805,3.58 -0.406,1.145 -0.977,2.119 -1.716,2.927 -0.743,0.809 -1.716,1.211 -2.927,1.211 -1.01,0 -2.004,-0.336 -2.977,-1.01 C 7.952,50.682 7.094,50.009 6.355,49.34 4.943,48.059 3.633,46.31 2.422,44.093 c -1.211,-2.221 -2.34,-4.66 -3.379,-7.316 -1.046,-2.656 -1.954,-5.485 -2.726,-8.474 -0.776,-2.997 -1.445,-5.92 -2.015,-8.781 -0.575,-2.858 -0.994,-5.6 -1.265,-8.22 -0.267,-2.623 -0.402,-4.881 -0.402,-6.761 -1.347,1.547 -3.063,2.319 -5.144,2.319 -1.548,0 -3.182,-0.418 -4.894,-1.26 -1.716,-0.842 -3.145,-1.733 -4.29,-2.673 -2.96,-2.557 -5.296,-5.735 -7.013,-9.537 -0.558,-1.238 -1.017,-2.482 -1.394,-3.731 -0.442,-0.773 -0.961,-1.624 -1.582,-2.575 -1.01,-1.548 -2.155,-3.042 -3.432,-4.487 -1.277,-1.449 -2.607,-2.693 -3.982,-3.736 -1.38,-1.043 -2.743,-1.564 -4.09,-1.564 -0.804,0 -1.428,0.205 -1.863,0.607 -0.44,0.403 -0.76,0.908 -0.961,1.515 -0.201,0.604 -0.32,1.261 -0.353,1.967 -0.033,0.706 -0.049,1.363 -0.049,1.966 0,2.353 0.065,4.709 0.201,7.062 0.135,2.356 0.201,4.709 0.201,7.065 0,0.739 -0.033,1.647 -0.099,2.722 -0.069,1.076 -0.254,2.151 -0.558,3.231 -0.3,1.072 -0.755,1.983 -1.359,2.722 -0.607,0.739 -1.412,1.109 -2.422,1.109 -1.281,0 -2.775,-0.739 -4.492,-2.217 -1.716,-1.482 -3.415,-3.199 -5.094,-5.149 -1.684,-1.95 -3.248,-3.933 -4.693,-5.953 -1.445,-2.015 -2.537,-3.563 -3.276,-4.639 0.267,1.95 0.603,3.9 1.006,5.851 0.406,1.95 0.977,3.867 1.716,5.751 0.607,1.614 1.194,3.379 1.765,5.296 0.571,1.918 0.858,3.753 0.858,5.502 0,1.075 -0.217,1.917 -0.657,2.521 -0.435,0.607 -1.227,0.907 -2.369,0.907 -1.28,0 -2.508,-0.501 -3.682,-1.511 -1.178,-1.01 -1.901,-2.118 -2.172,-3.33 -0.337,-1.547 -0.636,-3.128 -0.907,-4.741 -0.267,-1.618 -0.571,-3.199 -0.908,-4.742 -0.774,-3.717 -1.559,-7.554 -2.351,-11.507 -0.55,-0.875 -1.421,-2.141 -2.641,-3.831 -1.314,-1.815 -2.742,-3.65 -4.29,-5.497 -1.548,-1.852 -3.096,-3.466 -4.639,-4.845 -1.552,-1.379 -2.829,-2.069 -3.835,-2.069 -0.673,0 -1.211,0.287 -1.617,0.858 -0.403,0.571 -0.706,1.244 -0.908,2.02 -0.201,0.772 -0.336,1.564 -0.402,2.369 -0.07,0.808 -0.103,1.445 -0.103,1.917 0,1.548 0.103,3.297 0.304,5.247 0.201,1.95 0.489,3.9 0.858,5.85 0.37,1.95 0.809,3.867 1.314,5.752 0.501,1.884 1.022,3.568 1.56,5.045 0.205,0.608 0.423,1.228 0.657,1.868 0.234,0.637 0.353,1.294 0.353,1.967 0,0.739 -0.218,1.211 -0.657,1.412 -0.435,0.201 -0.956,0.304 -1.56,0.304 -0.879,0 -1.601,-0.222 -2.172,-0.657 -0.57,-0.439 -1.059,-0.977 -1.461,-1.613 -0.403,-0.641 -0.743,-1.347 -1.01,-2.119 -0.271,-0.776 -0.538,-1.465 -0.809,-2.069 -0.402,-1.01 -1.076,-2.356 -2.016,-4.036 -0.944,-1.683 -2.02,-3.514 -3.231,-5.501 -1.207,-1.983 -2.521,-3.982 -3.933,-6.002 -1.412,-2.016 -2.841,-3.851 -4.286,-5.497 -1.449,-1.651 -2.862,-2.993 -4.241,-4.036 -1.379,-1.043 -2.64,-1.564 -3.781,-1.564 -0.944,0 -1.499,0.505 -1.667,1.511 -0.168,1.01 -0.25,1.851 -0.25,2.524 0,1.749 0.152,3.667 0.451,5.752 0.304,2.082 0.674,4.188 1.113,6.306 0.435,2.119 0.94,4.188 1.511,6.204 0.57,2.02 1.129,3.867 1.666,5.55 0.136,0.538 0.284,1.092 0.452,1.663 0.168,0.571 0.255,1.129 0.255,1.667 0,1.478 -0.776,2.221 -2.32,2.221 -1.548,0 -2.944,-0.439 -4.188,-1.314 -1.248,-0.874 -2.139,-2.085 -2.676,-3.633 -0.941,-2.891 -1.63,-5.937 -2.065,-9.131 -0.44,-3.194 -0.657,-6.306 -0.657,-9.332 0,-1.28 0.049,-2.742 0.152,-4.388 0.098,-1.651 0.369,-3.198 0.804,-4.644 0.44,-1.445 1.146,-2.672 2.123,-3.682 0.973,-1.006 2.369,-1.511 4.183,-1.511 1.885,0 3.786,0.587 5.703,1.765 1.917,1.174 3.748,2.603 5.497,4.286 1.749,1.684 3.346,3.465 4.795,5.35 1.445,1.88 2.673,3.531 3.683,4.943 -0.136,-0.673 -0.201,-1.314 -0.201,-1.917 l 0,-1.918 c 0,-1.075 0.049,-2.438 0.147,-4.085 0.103,-1.65 0.391,-3.214 0.859,-4.692 0.472,-1.482 1.145,-2.759 2.019,-3.835 0.875,-1.075 2.086,-1.613 3.634,-1.613 1.95,0 3.999,0.739 6.154,2.221 2.151,1.478 4.237,3.26 6.253,5.345 1.248,1.29 2.409,2.614 3.503,3.967 -0.435,-3.327 -0.675,-6.603 -0.675,-9.817 0,-0.673 0.164,-1.265 0.501,-1.765 0.337,-0.505 0.875,-0.76 1.618,-0.76 0.94,0 1.765,0.337 2.471,1.01 0.706,0.673 1.261,1.412 1.663,2.221 1.145,2.554 2.324,5.058 3.531,7.517 1.211,2.451 2.557,4.857 4.035,7.214 1.211,1.95 2.558,3.998 4.04,6.154 1.478,2.151 3.059,4.035 4.742,5.649 0.267,0.267 0.636,0.607 1.108,1.01 0.468,0.402 0.875,0.603 1.211,0.603 0.403,0 0.657,-0.267 0.756,-0.804 0.102,-0.542 0.152,-0.945 0.152,-1.212 0,-1.954 -0.066,-3.867 -0.201,-5.751 -0.136,-1.885 -0.202,-3.802 -0.202,-5.752 0,-1.277 0.05,-2.689 0.152,-4.237 0.099,-1.548 0.403,-2.993 0.908,-4.339 0.505,-1.347 1.244,-2.472 2.217,-3.379 0.977,-0.908 2.34,-1.363 4.089,-1.363 1.88,0 3.814,0.607 5.801,1.818 1.983,1.207 3.867,2.69 5.649,4.438 0.885,0.869 1.72,1.767 2.506,2.693 0.037,-0.737 0.13,-1.52 0.323,-2.389 0.234,-1.079 0.587,-2.106 1.059,-3.079 0.468,-0.977 1.092,-1.798 1.864,-2.471 0.771,-0.674 1.699,-1.01 2.775,-1.01 1.478,0 3.091,0.472 4.844,1.412 1.749,0.94 3.461,2.069 5.145,3.383 1.679,1.31 3.263,2.705 4.741,4.183 1.478,1.483 2.689,2.726 3.634,3.736 0.201,-1.346 0.521,-2.894 0.956,-4.643 0.44,-1.749 1.06,-3.412 1.868,-4.992 0.809,-1.581 1.799,-2.927 2.977,-4.036 1.174,-1.112 2.64,-1.667 4.389,-1.667 2.151,0 4.187,0.542 6.104,1.614 1.918,1.075 3.716,2.406 5.399,3.986 1.679,1.581 3.211,3.313 4.59,5.198 1.379,1.88 2.607,3.633 3.683,5.247 0.402,0.603 0.821,1.276 1.26,2.015 0.439,0.739 0.657,1.482 0.657,2.221 0,0.468 -0.086,0.941 -0.255,1.413" /></g><g
           transform="translate(459.2019,138.5116)"
           id="g40"><path
             id="path42"
             style="fill:#fff;fill-opacity:1;fill-rule:nonzero;stroke:none"
             d="m 0,0 0,13.391 -4.782,0 0,2.726 12.808,0 0,-2.726 -4.772,0 L 3.254,0 0,0 Z" /></g><g
           transform="translate(469.2839,138.5116)"
           id="g44"><path
             id="path46"
             style="fill:#fff;fill-opacity:1;fill-rule:nonzero;stroke:none"
             d="m 0,0 0,16.117 4.87,0 2.924,-10.994 2.892,10.994 4.882,0 0,-16.117 -3.024,0 0,12.687 L 9.345,0 6.211,0 3.023,12.687 3.023,0 0,0 Z" /></g></g></g></g></svg>